<?xml version="1.0" encoding="UTF-8"?>
<score-partwise version="4.0">
   <work>
      <work-title>识谱练习</work-title>
   </work>
   <part-list>
      <score-part id="P1">
         <part-name>Piano</part-name>
      </score-part>
   </part-list>
   <part id="P1">
      <measure number="1">
         <attributes>
            <divisions>1</divisions>
            <key>
               <fifths>0</fifths>
            </key>
            <time>
               <beats>4</beats>
               <beat-type>4</beat-type>
            </time>
            <clef>
               <sign>G</sign>
               <line>2</line>
            </clef>
         </attributes>
         <note>
            <pitch>
               <step>C</step>
               <octave>4</octave>
            </pitch>
            <duration>1</duration>
            <type>quarter</type>
         </note>
         <note>
            <pitch>
               <step>D</step>
               <octave>4</octave>
            </pitch>
            <duration>1</duration>
            <type>quarter</type>
         </note>
         <note>
            <pitch>
               <step>E</step>
               <octave>4</octave>
            </pitch>
            <duration>1</duration>
            <type>quarter</type>
         </note>
         <note>
            <pitch>
               <step>F</step>
               <octave>4</octave>
            </pitch>
            <duration>1</duration>
            <type>quarter</type>
         </note>
      </measure>
      <measure number="2">
         <note>
            <pitch>
               <step>G</step>
               <octave>4</octave>
            </pitch>
            <duration>1</duration>
            <type>quarter</type>
         </note>
         <note>
            <pitch>
               <step>F</step>
               <octave>4</octave>
            </pitch>
            <duration>1</duration>
            <type>quarter</type>
         </note>
         <note>
            <pitch>
               <step>E</step>
               <octave>4</octave>
            </pitch>
            <duration>1</duration>
            <type>quarter</type>
         </note>
         <note>
            <pitch>
               <step>D</step>
               <octave>4</octave>
            </pitch>
            <duration>1</duration>
            <type>quarter</type>
         </note>
      </measure>
      <measure number="3">
         <note>
            <pitch>
               <step>C</step>
               <octave>4</octave>
            </pitch>
            <duration>4</duration>
            <type>whole</type>
         </note>
      </measure>
      <measure number="4">
         <note>
            <pitch>
               <step>D</step>
               <octave>4</octave>
            </pitch>
            <duration>1</duration>
            <type>quarter</type>
         </note>
         <note>
            <pitch>
               <step>E</step>
               <octave>4</octave>
            </pitch>
            <duration>1</duration>
            <type>quarter</type>
         </note>
         <note>
            <pitch>
               <step>C</step>
               <octave>4</octave>
            </pitch>
            <duration>1</duration>
            <type>quarter</type>
         </note>
         <note>
            <pitch>
               <step>E</step>
               <octave>4</octave>
            </pitch>
            <duration>1</duration>
            <type>quarter</type>
         </note>
      </measure>
      <measure number="5">
         <note>
            <pitch>
               <step>G</step>
               <octave>4</octave>
            </pitch>
            <duration>1</duration>
            <type>quarter</type>
         </note>
         <note>
            <pitch>
               <step>F</step>
               <octave>4</octave>
            </pitch>
            <duration>1</duration>
            <type>quarter</type>
         </note>
         <note>
            <pitch>
               <step>D</step>
               <octave>4</octave>
            </pitch>
            <duration>1</duration>
            <type>quarter</type>
         </note>
         <note>
            <pitch>
               <step>C</step>
               <octave>4</octave>
            </pitch>
            <duration>1</duration>
            <type>quarter</type>
         </note>
      </measure>
      <measure number="6">
         <note>
            <pitch>
               <step>D</step>
               <octave>4</octave>
            </pitch>
            <duration>1</duration>
            <type>quarter</type>
         </note>
         <note>
            <pitch>
               <step>C</step>
               <octave>4</octave>
            </pitch>
            <duration>1</duration>
            <type>quarter</type>
         </note>
         <note>
            <pitch>
               <step>E</step>
               <octave>4</octave>
            </pitch>
            <duration>1</duration>
            <type>quarter</type>
         </note>
         <note>
            <pitch>
               <step>F</step>
               <octave>4</octave>
            </pitch>
            <duration>1</duration>
            <type>quarter</type>
         </note>
      </measure>
      <measure number="7">
         <note>
            <pitch>
               <step>G</step>
               <octave>4</octave>
            </pitch>
            <duration>1</duration>
            <type>quarter</type>
         </note>
         <note>
            <pitch>
               <step>E</step>
               <octave>4</octave>
            </pitch>
            <duration>1</duration>
            <type>quarter</type>
         </note>
         <note>
            <pitch>
               <step>D</step>
               <octave>4</octave>
            </pitch>
            <duration>1</duration>
            <type>quarter</type>
         </note>
         <note>
            <pitch>
               <step>F</step>
               <octave>4</octave>
            </pitch>
            <duration>1</duration>
            <type>quarter</type>
         </note>
      </measure>
      <measure number="8">
         <note>
            <pitch>
               <step>G</step>
               <octave>4</octave>
            </pitch>
            <duration>1</duration>
            <type>quarter</type>
         </note>
         <note>
            <pitch>
               <step>E</step>
               <octave>4</octave>
            </pitch>
            <duration>1</duration>
            <type>quarter</type>
         </note>
         <note>
            <pitch>
               <step>C</step>
               <octave>4</octave>
            </pitch>
            <duration>1</duration>
            <type>quarter</type>
         </note>
         <note>
            <pitch>
               <step>E</step>
               <octave>4</octave>
            </pitch>
            <duration>1</duration>
            <type>quarter</type>
         </note>
      </measure>
      <measure number="9">
         <note>
            <pitch>
               <step>D</step>
               <octave>4</octave>
            </pitch>
            <duration>1</duration>
            <type>quarter</type>
         </note>
         <note>
            <pitch>
               <step>F</step>
               <octave>4</octave>
            </pitch>
            <duration>1</duration>
            <type>quarter</type>
         </note>
         <note>
            <pitch>
               <step>E</step>
               <octave>4</octave>
            </pitch>
            <duration>1</duration>
            <type>quarter</type>
         </note>
         <note>
            <pitch>
               <step>G</step>
               <octave>4</octave>
            </pitch>
            <duration>1</duration>
            <type>quarter</type>
         </note>
      </measure>
      <measure number="10">
         <note>
            <pitch>
               <step>E</step>
               <octave>4</octave>
            </pitch>
            <duration>1</duration>
            <type>quarter</type>
         </note>
         <note>
            <pitch>
               <step>C</step>
               <octave>4</octave>
            </pitch>
            <duration>1</duration>
            <type>quarter</type>
         </note>
         <note>
            <pitch>
               <step>D</step>
               <octave>4</octave>
            </pitch>
            <duration>1</duration>
            <type>quarter</type>
         </note>
         <note>
            <pitch>
               <step>C</step>
               <octave>4</octave>
            </pitch>
            <duration>1</duration>
            <type>quarter</type>
         </note>
      </measure>
      <measure number="11">
         <note>
            <pitch>
               <step>D</step>
               <octave>4</octave>
            </pitch>
            <duration>1</duration>
            <type>quarter</type>
         </note>
         <note>
            <pitch>
               <step>E</step>
               <octave>4</octave>
            </pitch>
            <duration>1</duration>
            <type>quarter</type>
         </note>
         <note>
            <pitch>
               <step>G</step>
               <octave>4</octave>
            </pitch>
            <duration>1</duration>
            <type>quarter</type>
         </note>
         <note>
            <pitch>
               <step>F</step>
               <octave>4</octave>
            </pitch>
            <duration>1</duration>
            <type>quarter</type>
         </note>
      </measure>
      <measure number="12">
         <note>
            <pitch>
               <step>E</step>
               <octave>4</octave>
            </pitch>
            <duration>1</duration>
            <type>quarter</type>
         </note>
         <note>
            <pitch>
               <step>C</step>
               <octave>4</octave>
            </pitch>
            <duration>1</duration>
            <type>quarter</type>
         </note>
         <note>
            <pitch>
               <step>D</step>
               <octave>4</octave>
            </pitch>
            <duration>1</duration>
            <type>quarter</type>
         </note>
         <note>
            <pitch>
               <step>E</step>
               <octave>4</octave>
            </pitch>
            <duration>1</duration>
            <type>quarter</type>
         </note>
      </measure>
      <measure number="13">
         <note>
            <pitch>
               <step>F</step>
               <octave>4</octave>
            </pitch>
            <duration>1</duration>
            <type>quarter</type>
         </note>
         <note>
            <pitch>
               <step>G</step>
               <octave>4</octave>
            </pitch>
            <duration>1</duration>
            <type>quarter</type>
         </note>
         <note>
            <pitch>
               <step>D</step>
               <octave>4</octave>
            </pitch>
            <duration>1</duration>
            <type>quarter</type>
         </note>
         <note>
            <pitch>
               <step>F</step>
               <octave>4</octave>
            </pitch>
            <duration>1</duration>
            <type>quarter</type>
         </note>
      </measure>
      <measure number="14">
         <note>
            <pitch>
               <step>C</step>
               <octave>4</octave>
            </pitch>
            <duration>1</duration>
            <type>quarter</type>
         </note>
         <note>
            <pitch>
               <step>D</step>
               <octave>4</octave>
            </pitch>
            <duration>1</duration>
            <type>quarter</type>
         </note>
         <note>
            <pitch>
               <step>C</step>
               <octave>4</octave>
            </pitch>
            <duration>1</duration>
            <type>quarter</type>
         </note>
         <note>
            <pitch>
               <step>F</step>
               <octave>4</octave>
            </pitch>
            <duration>1</duration>
            <type>quarter</type>
         </note>
      </measure>
      <measure number="15">
         <note>
            <pitch>
               <step>G</step>
               <octave>4</octave>
            </pitch>
            <duration>1</duration>
            <type>quarter</type>
         </note>
         <note>
            <pitch>
               <step>F</step>
               <octave>4</octave>
            </pitch>
            <duration>1</duration>
            <type>quarter</type>
         </note>
         <note>
            <pitch>
               <step>G</step>
               <octave>4</octave>
            </pitch>
            <duration>1</duration>
            <type>quarter</type>
         </note>
         <note>
            <pitch>
               <step>E</step>
               <octave>4</octave>
            </pitch>
            <duration>1</duration>
            <type>quarter</type>
         </note>
      </measure>
      <measure number="16">
         <note>
            <pitch>
               <step>C</step>
               <octave>4</octave>
            </pitch>
            <duration>1</duration>
            <type>quarter</type>
         </note>
         <note>
            <pitch>
               <step>E</step>
               <octave>4</octave>
            </pitch>
            <duration>1</duration>
            <type>quarter</type>
         </note>
         <note>
            <pitch>
               <step>D</step>
               <octave>4</octave>
            </pitch>
            <duration>1</duration>
            <type>quarter</type>
         </note>
         <note>
            <pitch>
               <step>G</step>
               <octave>4</octave>
            </pitch>
            <duration>1</duration>
            <type>quarter</type>
         </note>
      </measure>
      <measure number="17">
         <note>
            <pitch>
               <step>F</step>
               <octave>4</octave>
            </pitch>
            <duration>1</duration>
            <type>quarter</type>
         </note>
         <note>
            <pitch>
               <step>E</step>
               <octave>4</octave>
            </pitch>
            <duration>1</duration>
            <type>quarter</type>
         </note>
         <note>
            <pitch>
               <step>C</step>
               <octave>4</octave>
            </pitch>
            <duration>1</duration>
            <type>quarter</type>
         </note>
         <note>
            <pitch>
               <step>D</step>
               <octave>4</octave>
            </pitch>
            <duration>1</duration>
            <type>quarter</type>
         </note>
      </measure>
      <measure number="18">
         <note>
            <pitch>
               <step>E</step>
               <octave>4</octave>
            </pitch>
            <duration>1</duration>
            <type>quarter</type>
         </note>
         <note>
            <pitch>
               <step>C</step>
               <octave>4</octave>
            </pitch>
            <duration>1</duration>
            <type>quarter</type>
         </note>
         <note>
            <pitch>
               <step>F</step>
               <octave>4</octave>
            </pitch>
            <duration>1</duration>
            <type>quarter</type>
         </note>
         <note>
            <pitch>
               <step>D</step>
               <octave>4</octave>
            </pitch>
            <duration>1</duration>
            <type>quarter</type>
         </note>
      </measure>
      <measure number="19">
         <note>
            <pitch>
               <step>C</step>
               <octave>4</octave>
            </pitch>
            <duration>1</duration>
            <type>quarter</type>
         </note>
         <note>
            <pitch>
               <step>G</step>
               <octave>4</octave>
            </pitch>
            <duration>1</duration>
            <type>quarter</type>
         </note>
         <note>
            <pitch>
               <step>D</step>
               <octave>4</octave>
            </pitch>
            <duration>1</duration>
            <type>quarter</type>
         </note>
         <note>
            <pitch>
               <step>G</step>
               <octave>4</octave>
            </pitch>
            <duration>1</duration>
            <type>quarter</type>
         </note>
      </measure>
      <measure number="20">
         <attributes>
            <clef>
               <sign>F</sign>
               <line>4</line>
            </clef>
         </attributes>
         <note>
            <pitch>
               <step>F</step>
               <octave>3</octave>
            </pitch>
            <duration>1</duration>
            <type>quarter</type>
         </note>
         <note>
            <pitch>
               <step>G</step>
               <octave>3</octave>
            </pitch>
            <duration>1</duration>
            <type>quarter</type>
         </note>
         <note>
            <pitch>
               <step>A</step>
               <octave>3</octave>
            </pitch>
            <duration>1</duration>
            <type>quarter</type>
         </note>
         <note>
            <pitch>
               <step>B</step>
               <octave>3</octave>
            </pitch>
            <duration>1</duration>
            <type>quarter</type>
         </note>
      </measure>
      <measure number="21">
         <note>
            <pitch>
               <step>C</step>
               <octave>4</octave>
            </pitch>
            <duration>1</duration>
            <type>quarter</type>
         </note>
         <note>
            <pitch>
               <step>B</step>
               <octave>3</octave>
            </pitch>
            <duration>1</duration>
            <type>quarter</type>
         </note>
         <note>
            <pitch>
               <step>A</step>
               <octave>3</octave>
            </pitch>
            <duration>1</duration>
            <type>quarter</type>
         </note>
         <note>
            <pitch>
               <step>G</step>
               <octave>3</octave>
            </pitch>
            <duration>1</duration>
            <type>quarter</type>
         </note>
      </measure>
      <measure number="22">
         <note>
            <pitch>
               <step>F</step>
               <octave>3</octave>
            </pitch>
            <duration>4</duration>
            <type>whole</type>
         </note>
      </measure>
      <measure number="23">
         <note>
            <pitch>
               <step>G</step>
               <octave>3</octave>
            </pitch>
            <duration>1</duration>
            <type>quarter</type>
         </note>
         <note>
            <pitch>
               <step>A</step>
               <octave>3</octave>
            </pitch>
            <duration>1</duration>
            <type>quarter</type>
         </note>
         <note>
            <pitch>
               <step>F</step>
               <octave>3</octave>
            </pitch>
            <duration>1</duration>
            <type>quarter</type>
         </note>
         <note>
            <pitch>
               <step>A</step>
               <octave>3</octave>
            </pitch>
            <duration>1</duration>
            <type>quarter</type>
         </note>
      </measure>
      <measure number="24">
         <note>
            <pitch>
               <step>C</step>
               <octave>4</octave>
            </pitch>
            <duration>1</duration>
            <type>quarter</type>
         </note>
         <note>
            <pitch>
               <step>B</step>
               <octave>3</octave>
            </pitch>
            <duration>1</duration>
            <type>quarter</type>
         </note>
         <note>
            <pitch>
               <step>G</step>
               <octave>3</octave>
            </pitch>
            <duration>1</duration>
            <type>quarter</type>
         </note>
         <note>
            <pitch>
               <step>F</step>
               <octave>3</octave>
            </pitch>
            <duration>1</duration>
            <type>quarter</type>
         </note>
      </measure>
      <measure number="25">
         <note>
            <pitch>
               <step>G</step>
               <octave>3</octave>
            </pitch>
            <duration>1</duration>
            <type>quarter</type>
         </note>
         <note>
            <pitch>
               <step>F</step>
               <octave>3</octave>
            </pitch>
            <duration>1</duration>
            <type>quarter</type>
         </note>
         <note>
            <pitch>
               <step>A</step>
               <octave>3</octave>
            </pitch>
            <duration>1</duration>
            <type>quarter</type>
         </note>
         <note>
            <pitch>
               <step>B</step>
               <octave>3</octave>
            </pitch>
            <duration>1</duration>
            <type>quarter</type>
         </note>
      </measure>
      <measure number="26">
         <note>
            <pitch>
               <step>C</step>
               <octave>4</octave>
            </pitch>
            <duration>1</duration>
            <type>quarter</type>
         </note>
         <note>
            <pitch>
               <step>A</step>
               <octave>3</octave>
            </pitch>
            <duration>1</duration>
            <type>quarter</type>
         </note>
         <note>
            <pitch>
               <step>G</step>
               <octave>3</octave>
            </pitch>
            <duration>1</duration>
            <type>quarter</type>
         </note>
         <note>
            <pitch>
               <step>B</step>
               <octave>3</octave>
            </pitch>
            <duration>1</duration>
            <type>quarter</type>
         </note>
      </measure>
      <measure number="27">
         <note>
            <pitch>
               <step>C</step>
               <octave>4</octave>
            </pitch>
            <duration>1</duration>
            <type>quarter</type>
         </note>
         <note>
            <pitch>
               <step>A</step>
               <octave>3</octave>
            </pitch>
            <duration>1</duration>
            <type>quarter</type>
         </note>
         <note>
            <pitch>
               <step>F</step>
               <octave>3</octave>
            </pitch>
            <duration>1</duration>
            <type>quarter</type>
         </note>
         <note>
            <pitch>
               <step>A</step>
               <octave>3</octave>
            </pitch>
            <duration>1</duration>
            <type>quarter</type>
         </note>
      </measure>
      <measure number="28">
         <note>
            <pitch>
               <step>G</step>
               <octave>3</octave>
            </pitch>
            <duration>1</duration>
            <type>quarter</type>
         </note>
         <note>
            <pitch>
               <step>B</step>
               <octave>3</octave>
            </pitch>
            <duration>1</duration>
            <type>quarter</type>
         </note>
         <note>
            <pitch>
               <step>A</step>
               <octave>3</octave>
            </pitch>
            <duration>1</duration>
            <type>quarter</type>
         </note>
         <note>
            <pitch>
               <step>C</step>
               <octave>4</octave>
            </pitch>
            <duration>1</duration>
            <type>quarter</type>
         </note>
      </measure>
      <measure number="29">
         <note>
            <pitch>
               <step>A</step>
               <octave>3</octave>
            </pitch>
            <duration>1</duration>
            <type>quarter</type>
         </note>
         <note>
            <pitch>
               <step>F</step>
               <octave>3</octave>
            </pitch>
            <duration>1</duration>
            <type>quarter</type>
         </note>
         <note>
            <pitch>
               <step>G</step>
               <octave>3</octave>
            </pitch>
            <duration>1</duration>
            <type>quarter</type>
         </note>
         <note>
            <pitch>
               <step>F</step>
               <octave>3</octave>
            </pitch>
            <duration>1</duration>
            <type>quarter</type>
         </note>
      </measure>
      <measure number="30">
         <note>
            <pitch>
               <step>G</step>
               <octave>3</octave>
            </pitch>
            <duration>1</duration>
            <type>quarter</type>
         </note>
         <note>
            <pitch>
               <step>A</step>
               <octave>3</octave>
            </pitch>
            <duration>1</duration>
            <type>quarter</type>
         </note>
         <note>
            <pitch>
               <step>C</step>
               <octave>4</octave>
            </pitch>
            <duration>1</duration>
            <type>quarter</type>
         </note>
         <note>
            <pitch>
               <step>B</step>
               <octave>3</octave>
            </pitch>
            <duration>1</duration>
            <type>quarter</type>
         </note>
      </measure>
      <measure number="31">
         <note>
            <pitch>
               <step>A</step>
               <octave>3</octave>
            </pitch>
            <duration>1</duration>
            <type>quarter</type>
         </note>
         <note>
            <pitch>
               <step>F</step>
               <octave>3</octave>
            </pitch>
            <duration>1</duration>
            <type>quarter</type>
         </note>
         <note>
            <pitch>
               <step>G</step>
               <octave>3</octave>
            </pitch>
            <duration>1</duration>
            <type>quarter</type>
         </note>
         <note>
            <pitch>
               <step>A</step>
               <octave>3</octave>
            </pitch>
            <duration>1</duration>
            <type>quarter</type>
         </note>
      </measure>
      <measure number="32">
         <note>
            <pitch>
               <step>B</step>
               <octave>3</octave>
            </pitch>
            <duration>1</duration>
            <type>quarter</type>
         </note>
         <note>
            <pitch>
               <step>C</step>
               <octave>4</octave>
            </pitch>
            <duration>1</duration>
            <type>quarter</type>
         </note>
         <note>
            <pitch>
               <step>G</step>
               <octave>3</octave>
            </pitch>
            <duration>1</duration>
            <type>quarter</type>
         </note>
         <note>
            <pitch>
               <step>B</step>
               <octave>3</octave>
            </pitch>
            <duration>1</duration>
            <type>quarter</type>
         </note>
      </measure>
      <measure number="33">
         <note>
            <pitch>
               <step>F</step>
               <octave>3</octave>
            </pitch>
            <duration>1</duration>
            <type>quarter</type>
         </note>
         <note>
            <pitch>
               <step>G</step>
               <octave>3</octave>
            </pitch>
            <duration>1</duration>
            <type>quarter</type>
         </note>
         <note>
            <pitch>
               <step>F</step>
               <octave>3</octave>
            </pitch>
            <duration>1</duration>
            <type>quarter</type>
         </note>
         <note>
            <pitch>
               <step>B</step>
               <octave>3</octave>
            </pitch>
            <duration>1</duration>
            <type>quarter</type>
         </note>
      </measure>
      <measure number="34">
         <note>
            <pitch>
               <step>C</step>
               <octave>4</octave>
            </pitch>
            <duration>1</duration>
            <type>quarter</type>
         </note>
         <note>
            <pitch>
               <step>B</step>
               <octave>3</octave>
            </pitch>
            <duration>1</duration>
            <type>quarter</type>
         </note>
         <note>
            <pitch>
               <step>C</step>
               <octave>4</octave>
            </pitch>
            <duration>1</duration>
            <type>quarter</type>
         </note>
         <note>
            <pitch>
               <step>A</step>
               <octave>3</octave>
            </pitch>
            <duration>1</duration>
            <type>quarter</type>
         </note>
      </measure>
      <measure number="35">
         <note>
            <pitch>
               <step>F</step>
               <octave>3</octave>
            </pitch>
            <duration>1</duration>
            <type>quarter</type>
         </note>
         <note>
            <pitch>
               <step>A</step>
               <octave>3</octave>
            </pitch>
            <duration>1</duration>
            <type>quarter</type>
         </note>
         <note>
            <pitch>
               <step>G</step>
               <octave>3</octave>
            </pitch>
            <duration>1</duration>
            <type>quarter</type>
         </note>
         <note>
            <pitch>
               <step>C</step>
               <octave>4</octave>
            </pitch>
            <duration>1</duration>
            <type>quarter</type>
         </note>
      </measure>
      <measure number="36">
         <note>
            <pitch>
               <step>B</step>
               <octave>3</octave>
            </pitch>
            <duration>1</duration>
            <type>quarter</type>
         </note>
         <note>
            <pitch>
               <step>A</step>
               <octave>3</octave>
            </pitch>
            <duration>1</duration>
            <type>quarter</type>
         </note>
         <note>
            <pitch>
               <step>F</step>
               <octave>3</octave>
            </pitch>
            <duration>1</duration>
            <type>quarter</type>
         </note>
         <note>
            <pitch>
               <step>G</step>
               <octave>3</octave>
            </pitch>
            <duration>1</duration>
            <type>quarter</type>
         </note>
      </measure>
      <measure number="37">
         <note>
            <pitch>
               <step>A</step>
               <octave>3</octave>
            </pitch>
            <duration>1</duration>
            <type>quarter</type>
         </note>
         <note>
            <pitch>
               <step>F</step>
               <octave>3</octave>
            </pitch>
            <duration>1</duration>
            <type>quarter</type>
         </note>
         <note>
            <pitch>
               <step>B</step>
               <octave>3</octave>
            </pitch>
            <duration>1</duration>
            <type>quarter</type>
         </note>
         <note>
            <pitch>
               <step>G</step>
               <octave>3</octave>
            </pitch>
            <duration>1</duration>
            <type>quarter</type>
         </note>
      </measure>
      <measure number="38">
         <note>
            <pitch>
               <step>F</step>
               <octave>3</octave>
            </pitch>
            <duration>1</duration>
            <type>quarter</type>
         </note>
         <note>
            <pitch>
               <step>C</step>
               <octave>4</octave>
            </pitch>
            <duration>1</duration>
            <type>quarter</type>
         </note>
         <note>
            <pitch>
               <step>G</step>
               <octave>3</octave>
            </pitch>
            <duration>1</duration>
            <type>quarter</type>
         </note>
         <note>
            <pitch>
               <step>C</step>
               <octave>4</octave>
            </pitch>
            <duration>1</duration>
            <type>quarter</type>
         </note>
      </measure>
      <measure number="39">
         <note>
            <pitch>
               <step>F</step>
               <octave>3</octave>
            </pitch>
            <duration>1</duration>
            <type>quarter</type>
         </note>
         <note>
            <pitch>
               <step>A</step>
               <octave>3</octave>
            </pitch>
            <duration>1</duration>
            <type>quarter</type>
         </note>
         <note>
            <pitch>
               <step>G</step>
               <octave>3</octave>
            </pitch>
            <duration>1</duration>
            <type>quarter</type>
         </note>
         <note>
            <pitch>
               <step>C</step>
               <octave>4</octave>
            </pitch>
            <duration>1</duration>
            <type>quarter</type>
         </note>
      </measure>
      <measure number="40">
         <attributes>
            <clef>
               <sign>G</sign>
               <line>2</line>
            </clef>
         </attributes>
         <note>
            <pitch>
               <step>C</step>
               <octave>5</octave>
            </pitch>
            <duration>1</duration>
            <type>quarter</type>
         </note>
         <note>
            <pitch>
               <step>D</step>
               <octave>5</octave>
            </pitch>
            <duration>1</duration>
            <type>quarter</type>
         </note>
         <note>
            <pitch>
               <step>E</step>
               <octave>5</octave>
            </pitch>
            <duration>1</duration>
            <type>quarter</type>
         </note>
         <note>
            <pitch>
               <step>F</step>
               <octave>5</octave>
            </pitch>
            <duration>1</duration>
            <type>quarter</type>
         </note>
      </measure>
      <measure number="41">
         <note>
            <pitch>
               <step>G</step>
               <octave>5</octave>
            </pitch>
            <duration>1</duration>
            <type>quarter</type>
         </note>
         <note>
            <pitch>
               <step>F</step>
               <octave>5</octave>
            </pitch>
            <duration>1</duration>
            <type>quarter</type>
         </note>
         <note>
            <pitch>
               <step>E</step>
               <octave>5</octave>
            </pitch>
            <duration>1</duration>
            <type>quarter</type>
         </note>
         <note>
            <pitch>
               <step>D</step>
               <octave>5</octave>
            </pitch>
            <duration>1</duration>
            <type>quarter</type>
         </note>
      </measure>
      <measure number="42">
         <note>
            <pitch>
               <step>C</step>
               <octave>5</octave>
            </pitch>
            <duration>4</duration>
            <type>whole</type>
         </note>
      </measure>
      <measure number="43">
         <note>
            <pitch>
               <step>D</step>
               <octave>5</octave>
            </pitch>
            <duration>1</duration>
            <type>quarter</type>
         </note>
         <note>
            <pitch>
               <step>G</step>
               <octave>5</octave>
            </pitch>
            <duration>1</duration>
            <type>quarter</type>
         </note>
         <note>
            <pitch>
               <step>C</step>
               <octave>5</octave>
            </pitch>
            <duration>1</duration>
            <type>quarter</type>
         </note>
         <note>
            <pitch>
               <step>F</step>
               <octave>5</octave>
            </pitch>
            <duration>1</duration>
            <type>quarter</type>
         </note>
      </measure>
      <measure number="44">
         <note>
            <pitch>
               <step>G</step>
               <octave>5</octave>
            </pitch>
            <duration>1</duration>
            <type>quarter</type>
         </note>
         <note>
            <pitch>
               <step>E</step>
               <octave>5</octave>
            </pitch>
            <duration>1</duration>
            <type>quarter</type>
         </note>
         <note>
            <pitch>
               <step>D</step>
               <octave>5</octave>
            </pitch>
            <duration>1</duration>
            <type>quarter</type>
         </note>
         <note>
            <pitch>
               <step>C</step>
               <octave>5</octave>
            </pitch>
            <duration>1</duration>
            <type>quarter</type>
         </note>
      </measure>
      <measure number="45">
         <note>
            <pitch>
               <step>D</step>
               <octave>5</octave>
            </pitch>
            <duration>1</duration>
            <type>quarter</type>
         </note>
         <note>
            <pitch>
               <step>C</step>
               <octave>5</octave>
            </pitch>
            <duration>1</duration>
            <type>quarter</type>
         </note>
         <note>
            <pitch>
               <step>G</step>
               <octave>5</octave>
            </pitch>
            <duration>1</duration>
            <type>quarter</type>
         </note>
         <note>
            <pitch>
               <step>F</step>
               <octave>5</octave>
            </pitch>
            <duration>1</duration>
            <type>quarter</type>
         </note>
      </measure>
      <measure number="46">
         <note>
            <pitch>
               <step>G</step>
               <octave>5</octave>
            </pitch>
            <duration>1</duration>
            <type>quarter</type>
         </note>
         <note>
            <pitch>
               <step>E</step>
               <octave>5</octave>
            </pitch>
            <duration>1</duration>
            <type>quarter</type>
         </note>
         <note>
            <pitch>
               <step>C</step>
               <octave>5</octave>
            </pitch>
            <duration>1</duration>
            <type>quarter</type>
         </note>
         <note>
            <pitch>
               <step>F</step>
               <octave>5</octave>
            </pitch>
            <duration>1</duration>
            <type>quarter</type>
         </note>
      </measure>
      <measure number="47">
         <note>
            <pitch>
               <step>G</step>
               <octave>5</octave>
            </pitch>
            <duration>1</duration>
            <type>quarter</type>
         </note>
         <note>
            <pitch>
               <step>E</step>
               <octave>5</octave>
            </pitch>
            <duration>1</duration>
            <type>quarter</type>
         </note>
         <note>
            <pitch>
               <step>C</step>
               <octave>5</octave>
            </pitch>
            <duration>1</duration>
            <type>quarter</type>
         </note>
         <note>
            <pitch>
               <step>E</step>
               <octave>5</octave>
            </pitch>
            <duration>1</duration>
            <type>quarter</type>
         </note>
      </measure>
      <measure number="48">
         <note>
            <pitch>
               <step>D</step>
               <octave>5</octave>
            </pitch>
            <duration>1</duration>
            <type>quarter</type>
         </note>
         <note>
            <pitch>
               <step>F</step>
               <octave>5</octave>
            </pitch>
            <duration>1</duration>
            <type>quarter</type>
         </note>
         <note>
            <pitch>
               <step>E</step>
               <octave>5</octave>
            </pitch>
            <duration>1</duration>
            <type>quarter</type>
         </note>
         <note>
            <pitch>
               <step>G</step>
               <octave>5</octave>
            </pitch>
            <duration>1</duration>
            <type>quarter</type>
         </note>
      </measure>
      <measure number="49">
         <note>
            <pitch>
               <step>E</step>
               <octave>5</octave>
            </pitch>
            <duration>1</duration>
            <type>quarter</type>
         </note>
         <note>
            <pitch>
               <step>C</step>
               <octave>5</octave>
            </pitch>
            <duration>1</duration>
            <type>quarter</type>
         </note>
         <note>
            <pitch>
               <step>F</step>
               <octave>5</octave>
            </pitch>
            <duration>1</duration>
            <type>quarter</type>
         </note>
         <note>
            <pitch>
               <step>C</step>
               <octave>5</octave>
            </pitch>
            <duration>1</duration>
            <type>quarter</type>
         </note>
      </measure>
      <measure number="50">
         <note>
            <pitch>
               <step>D</step>
               <octave>5</octave>
            </pitch>
            <duration>1</duration>
            <type>quarter</type>
         </note>
         <note>
            <pitch>
               <step>C</step>
               <octave>5</octave>
            </pitch>
            <duration>1</duration>
            <type>quarter</type>
         </note>
         <note>
            <pitch>
               <step>G</step>
               <octave>5</octave>
            </pitch>
            <duration>1</duration>
            <type>quarter</type>
         </note>
         <note>
            <pitch>
               <step>F</step>
               <octave>5</octave>
            </pitch>
            <duration>1</duration>
            <type>quarter</type>
         </note>
      </measure>
      <measure number="51">
         <note>
            <pitch>
               <step>E</step>
               <octave>5</octave>
            </pitch>
            <duration>1</duration>
            <type>quarter</type>
         </note>
         <note>
            <pitch>
               <step>C</step>
               <octave>5</octave>
            </pitch>
            <duration>1</duration>
            <type>quarter</type>
         </note>
         <note>
            <pitch>
               <step>F</step>
               <octave>5</octave>
            </pitch>
            <duration>1</duration>
            <type>quarter</type>
         </note>
         <note>
            <pitch>
               <step>E</step>
               <octave>5</octave>
            </pitch>
            <duration>1</duration>
            <type>quarter</type>
         </note>
      </measure>
      <measure number="52">
         <note>
            <pitch>
               <step>F</step>
               <octave>5</octave>
            </pitch>
            <duration>1</duration>
            <type>quarter</type>
         </note>
         <note>
            <pitch>
               <step>G</step>
               <octave>5</octave>
            </pitch>
            <duration>1</duration>
            <type>quarter</type>
         </note>
         <note>
            <pitch>
               <step>C</step>
               <octave>5</octave>
            </pitch>
            <duration>1</duration>
            <type>quarter</type>
         </note>
         <note>
            <pitch>
               <step>F</step>
               <octave>5</octave>
            </pitch>
            <duration>1</duration>
            <type>quarter</type>
         </note>
      </measure>
      <measure number="53">
         <note>
            <pitch>
               <step>C</step>
               <octave>5</octave>
            </pitch>
            <duration>1</duration>
            <type>quarter</type>
         </note>
         <note>
            <pitch>
               <step>E</step>
               <octave>5</octave>
            </pitch>
            <duration>1</duration>
            <type>quarter</type>
         </note>
         <note>
            <pitch>
               <step>C</step>
               <octave>5</octave>
            </pitch>
            <duration>1</duration>
            <type>quarter</type>
         </note>
         <note>
            <pitch>
               <step>F</step>
               <octave>5</octave>
            </pitch>
            <duration>1</duration>
            <type>quarter</type>
         </note>
      </measure>
      <measure number="54">
         <note>
            <pitch>
               <step>G</step>
               <octave>5</octave>
            </pitch>
            <duration>1</duration>
            <type>quarter</type>
         </note>
         <note>
            <pitch>
               <step>F</step>
               <octave>5</octave>
            </pitch>
            <duration>1</duration>
            <type>quarter</type>
         </note>
         <note>
            <pitch>
               <step>D</step>
               <octave>5</octave>
            </pitch>
            <duration>1</duration>
            <type>quarter</type>
         </note>
         <note>
            <pitch>
               <step>E</step>
               <octave>5</octave>
            </pitch>
            <duration>1</duration>
            <type>quarter</type>
         </note>
      </measure>
      <measure number="55">
         <note>
            <pitch>
               <step>C</step>
               <octave>5</octave>
            </pitch>
            <duration>1</duration>
            <type>quarter</type>
         </note>
         <note>
            <pitch>
               <step>E</step>
               <octave>5</octave>
            </pitch>
            <duration>1</duration>
            <type>quarter</type>
         </note>
         <note>
            <pitch>
               <step>D</step>
               <octave>5</octave>
            </pitch>
            <duration>1</duration>
            <type>quarter</type>
         </note>
         <note>
            <pitch>
               <step>F</step>
               <octave>5</octave>
            </pitch>
            <duration>1</duration>
            <type>quarter</type>
         </note>
      </measure>
      <measure number="56">
         <note>
            <pitch>
               <step>F</step>
               <octave>5</octave>
            </pitch>
            <duration>1</duration>
            <type>quarter</type>
         </note>
         <note>
            <pitch>
               <step>E</step>
               <octave>5</octave>
            </pitch>
            <duration>1</duration>
            <type>quarter</type>
         </note>
         <note>
            <pitch>
               <step>C</step>
               <octave>5</octave>
            </pitch>
            <duration>1</duration>
            <type>quarter</type>
         </note>
         <note>
            <pitch>
               <step>D</step>
               <octave>5</octave>
            </pitch>
            <duration>1</duration>
            <type>quarter</type>
         </note>
      </measure>
      <measure number="57">
         <note>
            <pitch>
               <step>D</step>
               <octave>5</octave>
            </pitch>
            <duration>1</duration>
            <type>quarter</type>
         </note>
         <note>
            <pitch>
               <step>C</step>
               <octave>5</octave>
            </pitch>
            <duration>1</duration>
            <type>quarter</type>
         </note>
         <note>
            <pitch>
               <step>F</step>
               <octave>5</octave>
            </pitch>
            <duration>1</duration>
            <type>quarter</type>
         </note>
         <note>
            <pitch>
               <step>D</step>
               <octave>5</octave>
            </pitch>
            <duration>1</duration>
            <type>quarter</type>
         </note>
      </measure>
      <measure number="58">
         <note>
            <pitch>
               <step>C</step>
               <octave>5</octave>
            </pitch>
            <duration>1</duration>
            <type>quarter</type>
         </note>
         <note>
            <pitch>
               <step>F</step>
               <octave>5</octave>
            </pitch>
            <duration>1</duration>
            <type>quarter</type>
         </note>
         <note>
            <pitch>
               <step>D</step>
               <octave>5</octave>
            </pitch>
            <duration>1</duration>
            <type>quarter</type>
         </note>
         <note>
            <pitch>
               <step>G</step>
               <octave>5</octave>
            </pitch>
            <duration>1</duration>
            <type>quarter</type>
         </note>
      </measure>
      <measure number="59">
         <note>
            <pitch>
               <step>E</step>
               <octave>5</octave>
            </pitch>
            <duration>1</duration>
            <type>quarter</type>
         </note>
         <note>
            <pitch>
               <step>C</step>
               <octave>5</octave>
            </pitch>
            <duration>1</duration>
            <type>quarter</type>
         </note>
         <note>
            <pitch>
               <step>G</step>
               <octave>5</octave>
            </pitch>
            <duration>1</duration>
            <type>quarter</type>
         </note>
         <note>
            <pitch>
               <step>D</step>
               <octave>5</octave>
            </pitch>
            <duration>1</duration>
            <type>quarter</type>
         </note>
      </measure>
      <measure number="60">
         <attributes>
            <clef>
               <sign>F</sign>
               <line>4</line>
            </clef>
         </attributes>
         <note>
            <pitch>
               <step>C</step>
               <octave>3</octave>
            </pitch>
            <duration>1</duration>
            <type>quarter</type>
         </note>
         <note>
            <pitch>
               <step>D</step>
               <octave>3</octave>
            </pitch>
            <duration>1</duration>
            <type>quarter</type>
         </note>
         <note>
            <pitch>
               <step>E</step>
               <octave>3</octave>
            </pitch>
            <duration>1</duration>
            <type>quarter</type>
         </note>
         <note>
            <pitch>
               <step>F</step>
               <octave>3</octave>
            </pitch>
            <duration>1</duration>
            <type>quarter</type>
         </note>
      </measure>
      <measure number="61">
         <note>
            <pitch>
               <step>G</step>
               <octave>3</octave>
            </pitch>
            <duration>1</duration>
            <type>quarter</type>
         </note>
         <note>
            <pitch>
               <step>F</step>
               <octave>3</octave>
            </pitch>
            <duration>1</duration>
            <type>quarter</type>
         </note>
         <note>
            <pitch>
               <step>E</step>
               <octave>3</octave>
            </pitch>
            <duration>1</duration>
            <type>quarter</type>
         </note>
         <note>
            <pitch>
               <step>D</step>
               <octave>3</octave>
            </pitch>
            <duration>1</duration>
            <type>quarter</type>
         </note>
      </measure>
      <measure number="62">
         <note>
            <pitch>
               <step>C</step>
               <octave>3</octave>
            </pitch>
            <duration>4</duration>
            <type>whole</type>
         </note>
      </measure>
      <measure number="63">
         <note>
            <pitch>
               <step>D</step>
               <octave>3</octave>
            </pitch>
            <duration>1</duration>
            <type>quarter</type>
         </note>
         <note>
            <pitch>
               <step>E</step>
               <octave>3</octave>
            </pitch>
            <duration>1</duration>
            <type>quarter</type>
         </note>
         <note>
            <pitch>
               <step>C</step>
               <octave>3</octave>
            </pitch>
            <duration>1</duration>
            <type>quarter</type>
         </note>
         <note>
            <pitch>
               <step>F</step>
               <octave>3</octave>
            </pitch>
            <duration>1</duration>
            <type>quarter</type>
         </note>
      </measure>
      <measure number="64">
         <note>
            <pitch>
               <step>G</step>
               <octave>3</octave>
            </pitch>
            <duration>1</duration>
            <type>quarter</type>
         </note>
         <note>
            <pitch>
               <step>F</step>
               <octave>3</octave>
            </pitch>
            <duration>1</duration>
            <type>quarter</type>
         </note>
         <note>
            <pitch>
               <step>D</step>
               <octave>3</octave>
            </pitch>
            <duration>1</duration>
            <type>quarter</type>
         </note>
         <note>
            <pitch>
               <step>C</step>
               <octave>3</octave>
            </pitch>
            <duration>1</duration>
            <type>quarter</type>
         </note>
      </measure>
      <measure number="65">
         <note>
            <pitch>
               <step>D</step>
               <octave>3</octave>
            </pitch>
            <duration>1</duration>
            <type>quarter</type>
         </note>
         <note>
            <pitch>
               <step>C</step>
               <octave>3</octave>
            </pitch>
            <duration>1</duration>
            <type>quarter</type>
         </note>
         <note>
            <pitch>
               <step>E</step>
               <octave>3</octave>
            </pitch>
            <duration>1</duration>
            <type>quarter</type>
         </note>
         <note>
            <pitch>
               <step>F</step>
               <octave>3</octave>
            </pitch>
            <duration>1</duration>
            <type>quarter</type>
         </note>
      </measure>
      <measure number="66">
         <note>
            <pitch>
               <step>F</step>
               <octave>3</octave>
            </pitch>
            <duration>1</duration>
            <type>quarter</type>
         </note>
         <note>
            <pitch>
               <step>E</step>
               <octave>3</octave>
            </pitch>
            <duration>1</duration>
            <type>quarter</type>
         </note>
         <note>
            <pitch>
               <step>C</step>
               <octave>3</octave>
            </pitch>
            <duration>1</duration>
            <type>quarter</type>
         </note>
         <note>
            <pitch>
               <step>F</step>
               <octave>3</octave>
            </pitch>
            <duration>1</duration>
            <type>quarter</type>
         </note>
      </measure>
      <measure number="67">
         <note>
            <pitch>
               <step>G</step>
               <octave>3</octave>
            </pitch>
            <duration>1</duration>
            <type>quarter</type>
         </note>
         <note>
            <pitch>
               <step>E</step>
               <octave>3</octave>
            </pitch>
            <duration>1</duration>
            <type>quarter</type>
         </note>
         <note>
            <pitch>
               <step>C</step>
               <octave>3</octave>
            </pitch>
            <duration>1</duration>
            <type>quarter</type>
         </note>
         <note>
            <pitch>
               <step>D</step>
               <octave>3</octave>
            </pitch>
            <duration>1</duration>
            <type>quarter</type>
         </note>
      </measure>
      <measure number="68">
         <note>
            <pitch>
               <step>D</step>
               <octave>3</octave>
            </pitch>
            <duration>1</duration>
            <type>quarter</type>
         </note>
         <note>
            <pitch>
               <step>F</step>
               <octave>3</octave>
            </pitch>
            <duration>1</duration>
            <type>quarter</type>
         </note>
         <note>
            <pitch>
               <step>E</step>
               <octave>3</octave>
            </pitch>
            <duration>1</duration>
            <type>quarter</type>
         </note>
         <note>
            <pitch>
               <step>D</step>
               <octave>3</octave>
            </pitch>
            <duration>1</duration>
            <type>quarter</type>
         </note>
      </measure>
      <measure number="69">
         <note>
            <pitch>
               <step>E</step>
               <octave>3</octave>
            </pitch>
            <duration>1</duration>
            <type>quarter</type>
         </note>
         <note>
            <pitch>
               <step>C</step>
               <octave>3</octave>
            </pitch>
            <duration>1</duration>
            <type>quarter</type>
         </note>
         <note>
            <pitch>
               <step>D</step>
               <octave>3</octave>
            </pitch>
            <duration>1</duration>
            <type>quarter</type>
         </note>
         <note>
            <pitch>
               <step>C</step>
               <octave>3</octave>
            </pitch>
            <duration>1</duration>
            <type>quarter</type>
         </note>
      </measure>
      <measure number="70">
         <note>
            <pitch>
               <step>D</step>
               <octave>3</octave>
            </pitch>
            <duration>1</duration>
            <type>quarter</type>
         </note>
         <note>
            <pitch>
               <step>E</step>
               <octave>3</octave>
            </pitch>
            <duration>1</duration>
            <type>quarter</type>
         </note>
         <note>
            <pitch>
               <step>F</step>
               <octave>3</octave>
            </pitch>
            <duration>1</duration>
            <type>quarter</type>
         </note>
         <note>
            <pitch>
               <step>E</step>
               <octave>3</octave>
            </pitch>
            <duration>1</duration>
            <type>quarter</type>
         </note>
      </measure>
      <measure number="71">
         <note>
            <pitch>
               <step>E</step>
               <octave>3</octave>
            </pitch>
            <duration>1</duration>
            <type>quarter</type>
         </note>
         <note>
            <pitch>
               <step>D</step>
               <octave>3</octave>
            </pitch>
            <duration>1</duration>
            <type>quarter</type>
         </note>
         <note>
            <pitch>
               <step>D</step>
               <octave>3</octave>
            </pitch>
            <duration>1</duration>
            <type>quarter</type>
         </note>
         <note>
            <pitch>
               <step>E</step>
               <octave>3</octave>
            </pitch>
            <duration>1</duration>
            <type>quarter</type>
         </note>
      </measure>
      <measure number="72">
         <note>
            <pitch>
               <step>F</step>
               <octave>3</octave>
            </pitch>
            <duration>1</duration>
            <type>quarter</type>
         </note>
         <note>
            <pitch>
               <step>C</step>
               <octave>3</octave>
            </pitch>
            <duration>1</duration>
            <type>quarter</type>
         </note>
         <note>
            <pitch>
               <step>D</step>
               <octave>3</octave>
            </pitch>
            <duration>1</duration>
            <type>quarter</type>
         </note>
         <note>
            <pitch>
               <step>F</step>
               <octave>3</octave>
            </pitch>
            <duration>1</duration>
            <type>quarter</type>
         </note>
      </measure>
      <measure number="73">
         <note>
            <pitch>
               <step>C</step>
               <octave>3</octave>
            </pitch>
            <duration>1</duration>
            <type>quarter</type>
         </note>
         <note>
            <pitch>
               <step>E</step>
               <octave>3</octave>
            </pitch>
            <duration>1</duration>
            <type>quarter</type>
         </note>
         <note>
            <pitch>
               <step>C</step>
               <octave>3</octave>
            </pitch>
            <duration>1</duration>
            <type>quarter</type>
         </note>
         <note>
            <pitch>
               <step>F</step>
               <octave>3</octave>
            </pitch>
            <duration>1</duration>
            <type>quarter</type>
         </note>
      </measure>
      <measure number="74">
         <note>
            <pitch>
               <step>E</step>
               <octave>3</octave>
            </pitch>
            <duration>1</duration>
            <type>quarter</type>
         </note>
         <note>
            <pitch>
               <step>F</step>
               <octave>3</octave>
            </pitch>
            <duration>1</duration>
            <type>quarter</type>
         </note>
         <note>
            <pitch>
               <step>G</step>
               <octave>3</octave>
            </pitch>
            <duration>1</duration>
            <type>quarter</type>
         </note>
         <note>
            <pitch>
               <step>E</step>
               <octave>3</octave>
            </pitch>
            <duration>1</duration>
            <type>quarter</type>
         </note>
      </measure>
      <measure number="75">
         <note>
            <pitch>
               <step>C</step>
               <octave>3</octave>
            </pitch>
            <duration>1</duration>
            <type>quarter</type>
         </note>
         <note>
            <pitch>
               <step>D</step>
               <octave>3</octave>
            </pitch>
            <duration>1</duration>
            <type>quarter</type>
         </note>
         <note>
            <pitch>
               <step>F</step>
               <octave>3</octave>
            </pitch>
            <duration>1</duration>
            <type>quarter</type>
         </note>
         <note>
            <pitch>
               <step>G</step>
               <octave>3</octave>
            </pitch>
            <duration>1</duration>
            <type>quarter</type>
         </note>
      </measure>
      <measure number="76">
         <note>
            <pitch>
               <step>F</step>
               <octave>3</octave>
            </pitch>
            <duration>1</duration>
            <type>quarter</type>
         </note>
         <note>
            <pitch>
               <step>E</step>
               <octave>3</octave>
            </pitch>
            <duration>1</duration>
            <type>quarter</type>
         </note>
         <note>
            <pitch>
               <step>C</step>
               <octave>3</octave>
            </pitch>
            <duration>1</duration>
            <type>quarter</type>
         </note>
         <note>
            <pitch>
               <step>G</step>
               <octave>3</octave>
            </pitch>
            <duration>1</duration>
            <type>quarter</type>
         </note>
      </measure>
      <measure number="77">
         <note>
            <pitch>
               <step>E</step>
               <octave>3</octave>
            </pitch>
            <duration>1</duration>
            <type>quarter</type>
         </note>
         <note>
            <pitch>
               <step>C</step>
               <octave>3</octave>
            </pitch>
            <duration>1</duration>
            <type>quarter</type>
         </note>
         <note>
            <pitch>
               <step>F</step>
               <octave>3</octave>
            </pitch>
            <duration>1</duration>
            <type>quarter</type>
         </note>
         <note>
            <pitch>
               <step>E</step>
               <octave>3</octave>
            </pitch>
            <duration>1</duration>
            <type>quarter</type>
         </note>
      </measure>
      <measure number="78">
         <note>
            <pitch>
               <step>C</step>
               <octave>3</octave>
            </pitch>
            <duration>1</duration>
            <type>quarter</type>
         </note>
         <note>
            <pitch>
               <step>F</step>
               <octave>3</octave>
            </pitch>
            <duration>1</duration>
            <type>quarter</type>
         </note>
         <note>
            <pitch>
               <step>D</step>
               <octave>3</octave>
            </pitch>
            <duration>1</duration>
            <type>quarter</type>
         </note>
         <note>
            <pitch>
               <step>G</step>
               <octave>3</octave>
            </pitch>
            <duration>1</duration>
            <type>quarter</type>
         </note>
      </measure>
      <measure number="79">
         <note>
            <pitch>
               <step>E</step>
               <octave>3</octave>
            </pitch>
            <duration>1</duration>
            <type>quarter</type>
         </note>
         <note>
            <pitch>
               <step>C</step>
               <octave>3</octave>
            </pitch>
            <duration>1</duration>
            <type>quarter</type>
         </note>
         <note>
            <pitch>
               <step>D</step>
               <octave>3</octave>
            </pitch>
            <duration>1</duration>
            <type>quarter</type>
         </note>
         <note>
            <pitch>
               <step>F</step>
               <octave>3</octave>
            </pitch>
            <duration>1</duration>
            <type>quarter</type>
         </note>
         <barline location="right">
            <bar-style>light-heavy</bar-style>
         </barline>
      </measure>
   </part>
</score-partwise>
