<?xml version="1.0" encoding="UTF-8" standalone="no"?>
<score-partwise
   xmlns:xsi="http://www.w3.org/2001/XMLSchema-instance"
   xmlns="http://www.musicxml.org/xsd/MusicXML"
   xsi:schemaLocation="
      http://www.musicxml.org/xsd/MusicXML
      https://i.kinwaa.cn/schema/musicxml-4.0/musicxml.xsd"
   version="4.0">
   <work>
      <work-title>活出爱</work-title>
   </work>
   <identification>
      <creator type="composer">盛晓玫</creator>
   </identification>
   <part-list>
      <score-part id="P1">
         <part-name>Piano</part-name>
      </score-part>
   </part-list>
   <part id="P1">
      <measure number="1">
         <attributes>
            <divisions>2</divisions>
            <key>
               <fifths>0</fifths>
            </key>
            <time>
               <beats>6</beats>
               <beat-type>8</beat-type>
            </time>
            <staves>2</staves>
            <clef number="1">
               <sign>G</sign>
               <line>2</line>
            </clef>
            <clef number="2">
               <sign>G</sign>
               <line>2</line>
            </clef>
         </attributes>
         <note>
            <rest />
            <duration>3</duration>
            <type>quarter</type>
            <dot />
            <staff>1</staff>
         </note>
         <note>
            <pitch>
               <step>C</step>
               <octave>5</octave>
            </pitch>
            <duration>1</duration>
            <type>eighth</type>
            <staff>1</staff>
            <beam number="1">begin</beam>
         </note>
         <note>
            <pitch>
               <step>D</step>
               <octave>5</octave>
            </pitch>
            <duration>1</duration>
            <type>eighth</type>
            <staff>1</staff>
            <beam number="1">continue</beam>
         </note>
         <note>
            <pitch>
               <step>E</step>
               <octave>5</octave>
            </pitch>
            <duration>1</duration>
            <type>eighth</type>
            <staff>1</staff>
            <beam number="1">end</beam>
         </note>
         <backup>
            <duration>6</duration>
         </backup>
         <note>
            <rest measure="yes" />
            <duration>6</duration>
            <staff>2</staff>
         </note>
      </measure>
      <measure number="2">
         <note>
            <pitch>
               <step>G</step>
               <octave>5</octave>
            </pitch>
            <duration>3</duration>
            <type>quarter</type>
            <dot />
            <staff>1</staff>
         </note>
         <note>
            <pitch>
               <step>G</step>
               <octave>5</octave>
            </pitch>
            <duration>1</duration>
            <type>eighth</type>
            <staff>1</staff>
            <beam number="1">begin</beam>
         </note>
         <note>
            <pitch>
               <step>C</step>
               <octave>6</octave>
            </pitch>
            <duration>1</duration>
            <type>eighth</type>
            <staff>1</staff>
            <beam number="1">continue</beam>
         </note>
         <note>
            <pitch>
               <step>B</step>
               <octave>5</octave>
            </pitch>
            <duration>1</duration>
            <type>eighth</type>
            <staff>1</staff>
            <beam number="1">end</beam>
         </note>
         <backup>
            <duration>6</duration>
         </backup>
         <note>
            <pitch>
               <step>C</step>
               <octave>4</octave>
            </pitch>
            <duration>1</duration>
            <type>eighth</type>
            <staff>2</staff>
            <beam number="1">begin</beam>
         </note>
         <note>
            <pitch>
               <step>G</step>
               <octave>4</octave>
            </pitch>
            <duration>1</duration>
            <type>eighth</type>
            <staff>2</staff>
            <beam number="1">continue</beam>
         </note>
         <note>
            <pitch>
               <step>C</step>
               <octave>5</octave>
            </pitch>
            <duration>1</duration>
            <type>eighth</type>
            <staff>2</staff>
            <beam number="1">end</beam>
         </note>
         <note>
            <rest />
            <duration>3</duration>
            <type>quarter</type>
            <dot />
            <staff>2</staff>
         </note>
      </measure>
      <measure number="3">
         <note>
            <pitch>
               <step>G</step>
               <octave>5</octave>
            </pitch>
            <duration>3</duration>
            <type>quarter</type>
            <dot />
            <staff>1</staff>
         </note>
         <note>
            <pitch>
               <step>G</step>
               <octave>5</octave>
            </pitch>
            <duration>1</duration>
            <type>eighth</type>
            <staff>1</staff>
            <beam number="1">begin</beam>
         </note>
         <note>
            <pitch>
               <step>D</step>
               <octave>6</octave>
            </pitch>
            <duration>1</duration>
            <type>eighth</type>
            <staff>1</staff>
            <beam number="1">continue</beam>
         </note>
         <note>
            <pitch>
               <step>C</step>
               <octave>6</octave>
            </pitch>
            <duration>1</duration>
            <type>eighth</type>
            <staff>1</staff>
            <beam number="1">end</beam>
         </note>
         <backup>
            <duration>6</duration>
         </backup>
         <note>
            <pitch>
               <step>B</step>
               <octave>4</octave>
            </pitch>
            <duration>1</duration>
            <type>eighth</type>
            <staff>2</staff>
            <beam number="1">begin</beam>
         </note>
         <note>
            <pitch>
               <step>G</step>
               <octave>4</octave>
            </pitch>
            <duration>1</duration>
            <type>eighth</type>
            <staff>2</staff>
            <beam number="1">continue</beam>
         </note>
         <note>
            <pitch>
               <step>B</step>
               <octave>4</octave>
            </pitch>
            <duration>1</duration>
            <type>eighth</type>
            <staff>2</staff>
            <beam number="1">end</beam>
         </note>
         <note>
            <rest />
            <duration>3</duration>
            <type>quarter</type>
            <dot />
            <staff>2</staff>
         </note>
      </measure>
      <measure number="4">
         <note>
            <pitch>
               <step>G</step>
               <octave>5</octave>
            </pitch>
            <duration>3</duration>
            <type>quarter</type>
            <dot />
            <staff>1</staff>
         </note>
         <note>
            <pitch>
               <step>F</step>
               <octave>5</octave>
            </pitch>
            <duration>2</duration>
            <type>quarter</type>
            <staff>1</staff>
         </note>
         <note>
            <pitch>
               <step>E</step>
               <octave>5</octave>
            </pitch>
            <duration>1</duration>
            <type>eighth</type>
            <staff>1</staff>
         </note>
         <backup>
            <duration>6</duration>
         </backup>
         <note>
            <pitch>
               <step>A</step>
               <octave>4</octave>
            </pitch>
            <duration>1</duration>
            <type>eighth</type>
            <staff>2</staff>
            <beam number="1">begin</beam>
         </note>
         <note>
            <pitch>
               <step>F</step>
               <octave>4</octave>
            </pitch>
            <duration>1</duration>
            <type>eighth</type>
            <staff>2</staff>
            <beam number="1">continue</beam>
         </note>
         <note>
            <pitch>
               <step>A</step>
               <octave>4</octave>
            </pitch>
            <duration>1</duration>
            <tie type="start" />
            <type>eighth</type>
            <staff>2</staff>
            <beam number="1">end</beam>
            <notations>
               <tied type="start" />
            </notations>
         </note>
         <note>
            <pitch>
               <step>A</step>
               <octave>4</octave>
            </pitch>
            <duration>1</duration>
            <tie type="stop" />
            <type>eighth</type>
            <staff>2</staff>
            <notations>
               <tied type="stop" />
            </notations>
         </note>
         <note>
            <pitch>
               <step>A</step>
               <octave>4</octave>
            </pitch>
            <duration>2</duration>
            <type>quarter</type>
            <staff>2</staff>
         </note>
      </measure>
      <measure number="5">
         <note>
            <pitch>
               <step>E</step>
               <octave>5</octave>
            </pitch>
            <duration>3</duration>
            <type>quarter</type>
            <dot />
            <staff>1</staff>
         </note>
         <note>
            <pitch>
               <step>C</step>
               <octave>5</octave>
            </pitch>
            <duration>1</duration>
            <type>eighth</type>
            <staff>1</staff>
            <beam number="1">begin</beam>
         </note>
         <note>
            <pitch>
               <step>D</step>
               <octave>5</octave>
            </pitch>
            <duration>1</duration>
            <type>eighth</type>
            <staff>1</staff>
            <beam number="1">continue</beam>
         </note>
         <note>
            <pitch>
               <step>E</step>
               <octave>5</octave>
            </pitch>
            <duration>1</duration>
            <type>eighth</type>
            <staff>1</staff>
            <beam number="1">end</beam>
         </note>
         <backup>
            <duration>6</duration>
         </backup>
         <note>
            <pitch>
               <step>G</step>
               <octave>4</octave>
            </pitch>
            <duration>1</duration>
            <type>eighth</type>
            <staff>2</staff>
            <beam number="1">begin</beam>
         </note>
         <note>
            <pitch>
               <step>E</step>
               <octave>4</octave>
            </pitch>
            <duration>1</duration>
            <type>eighth</type>
            <staff>2</staff>
            <beam number="1">continue</beam>
         </note>
         <note>
            <pitch>
               <step>G</step>
               <octave>4</octave>
            </pitch>
            <duration>1</duration>
            <type>eighth</type>
            <staff>2</staff>
            <beam number="1">end</beam>
         </note>
         <note>
            <rest />
            <duration>3</duration>
            <type>quarter</type>
            <dot />
            <staff>2</staff>
         </note>
      </measure>
      <measure number="6">
         <note>
            <pitch>
               <step>G</step>
               <octave>5</octave>
            </pitch>
            <duration>3</duration>
            <type>quarter</type>
            <dot />
            <staff>1</staff>
         </note>
         <note>
            <pitch>
               <step>G</step>
               <octave>5</octave>
            </pitch>
            <duration>1</duration>
            <type>eighth</type>
            <staff>1</staff>
            <beam number="1">begin</beam>
         </note>
         <note>
            <pitch>
               <step>C</step>
               <octave>6</octave>
            </pitch>
            <duration>1</duration>
            <type>eighth</type>
            <staff>1</staff>
            <beam number="1">continue</beam>
         </note>
         <note>
            <pitch>
               <step>B</step>
               <octave>5</octave>
            </pitch>
            <duration>1</duration>
            <type>eighth</type>
            <staff>1</staff>
            <beam number="1">end</beam>
         </note>
         <backup>
            <duration>6</duration>
         </backup>
         <note>
            <pitch>
               <step>F</step>
               <octave>4</octave>
            </pitch>
            <duration>1</duration>
            <type>eighth</type>
            <staff>2</staff>
            <beam number="1">begin</beam>
         </note>
         <note>
            <pitch>
               <step>C</step>
               <octave>4</octave>
            </pitch>
            <duration>1</duration>
            <type>eighth</type>
            <staff>2</staff>
            <beam number="1">continue</beam>
         </note>
         <note>
            <pitch>
               <step>A</step>
               <octave>4</octave>
            </pitch>
            <duration>1</duration>
            <type>eighth</type>
            <staff>2</staff>
            <beam number="1">end</beam>
         </note>
         <note>
            <rest />
            <duration>3</duration>
            <type>quarter</type>
            <dot />
            <staff>2</staff>
         </note>
      </measure>
      <measure number="7">
         <note>
            <pitch>
               <step>G</step>
               <octave>5</octave>
            </pitch>
            <duration>3</duration>
            <type>quarter</type>
            <dot />
            <staff>1</staff>
         </note>
         <note>
            <pitch>
               <step>G</step>
               <octave>5</octave>
            </pitch>
            <duration>1</duration>
            <type>eighth</type>
            <staff>1</staff>
            <beam number="1">begin</beam>
         </note>
         <note>
            <pitch>
               <step>F</step>
               <octave>5</octave>
            </pitch>
            <duration>1</duration>
            <type>eighth</type>
            <staff>1</staff>
            <beam number="1">continue</beam>
         </note>
         <note>
            <pitch>
               <step>E</step>
               <octave>5</octave>
            </pitch>
            <duration>1</duration>
            <type>eighth</type>
            <staff>1</staff>
            <beam number="1">end</beam>
         </note>
         <backup>
            <duration>6</duration>
         </backup>
         <note>
            <pitch>
               <step>G</step>
               <octave>4</octave>
            </pitch>
            <duration>1</duration>
            <type>eighth</type>
            <staff>2</staff>
            <beam number="1">begin</beam>
         </note>
         <note>
            <pitch>
               <step>C</step>
               <octave>4</octave>
            </pitch>
            <duration>1</duration>
            <type>eighth</type>
            <staff>2</staff>
            <beam number="1">continue</beam>
         </note>
         <note>
            <pitch>
               <step>E</step>
               <octave>4</octave>
            </pitch>
            <duration>1</duration>
            <type>eighth</type>
            <staff>2</staff>
            <beam number="1">end</beam>
         </note>
         <note>
            <rest />
            <duration>3</duration>
            <type>quarter</type>
            <dot />
            <staff>2</staff>
         </note>
      </measure>
      <measure number="8">
         <note>
            <pitch>
               <step>F</step>
               <octave>5</octave>
            </pitch>
            <duration>3</duration>
            <type>quarter</type>
            <dot />
            <staff>1</staff>
         </note>
         <note>
            <pitch>
               <step>E</step>
               <octave>5</octave>
            </pitch>
            <duration>2</duration>
            <type>quarter</type>
            <staff>1</staff>
         </note>
         <note>
            <pitch>
               <step>C</step>
               <octave>5</octave>
            </pitch>
            <duration>1</duration>
            <type>eighth</type>
            <staff>1</staff>
         </note>
         <backup>
            <duration>6</duration>
         </backup>
         <note>
            <pitch>
               <step>D</step>
               <octave>4</octave>
            </pitch>
            <duration>1</duration>
            <type>eighth</type>
            <staff>2</staff>
            <beam number="1">begin</beam>
         </note>
         <note>
            <pitch>
               <step>F</step>
               <octave>4</octave>
            </pitch>
            <duration>1</duration>
            <type>eighth</type>
            <staff>2</staff>
            <beam number="1">continue</beam>
         </note>
         <note>
            <pitch>
               <step>A</step>
               <octave>4</octave>
            </pitch>
            <duration>1</duration>
            <type>eighth</type>
            <staff>2</staff>
            <beam number="1">end</beam>
         </note>
         <note>
            <rest />
            <duration>3</duration>
            <type>quarter</type>
            <dot />
            <staff>2</staff>
         </note>
      </measure>
      <measure number="9">
         <attributes>
            <clef number="2">
               <sign>F</sign>
               <line>4</line>
            </clef>
         </attributes>
         <note>
            <pitch>
               <step>G</step>
               <octave>4</octave>
            </pitch>
            <duration>3</duration>
            <type>quarter</type>
            <dot />
            <staff>1</staff>
         </note>
         <note>
            <pitch>
               <step>C</step>
               <octave>4</octave>
            </pitch>
            <duration>1</duration>
            <type>eighth</type>
            <staff>1</staff>
            <beam number="1">begin</beam>
         </note>
         <note>
            <pitch>
               <step>D</step>
               <octave>4</octave>
            </pitch>
            <duration>1</duration>
            <type>eighth</type>
            <staff>1</staff>
            <beam number="1">continue</beam>
         </note>
         <note>
            <pitch>
               <step>E</step>
               <octave>4</octave>
            </pitch>
            <duration>1</duration>
            <type>eighth</type>
            <staff>1</staff>
            <beam number="1">end</beam>
         </note>
         <backup>
            <duration>6</duration>
         </backup>
         <note>
            <pitch>
               <step>G</step>
               <octave>2</octave>
            </pitch>
            <duration>1</duration>
            <type>eighth</type>
            <staff>2</staff>
            <beam number="1">begin</beam>
         </note>
         <note>
            <pitch>
               <step>D</step>
               <octave>3</octave>
            </pitch>
            <duration>1</duration>
            <type>eighth</type>
            <staff>2</staff>
            <beam number="1">continue</beam>
         </note>
         <note>
            <pitch>
               <step>G</step>
               <octave>3</octave>
            </pitch>
            <duration>1</duration>
            <type>eighth</type>
            <staff>2</staff>
            <beam number="1">end</beam>
         </note>
         <note>
            <rest />
            <duration>3</duration>
            <type>quarter</type>
            <dot />
            <staff>2</staff>
         </note>
      </measure>
      <measure number="10">
         <note>
            <pitch>
               <step>G</step>
               <octave>4</octave>
            </pitch>
            <duration>3</duration>
            <type>quarter</type>
            <dot />
            <staff>1</staff>
         </note>
         <note>
            <pitch>
               <step>G</step>
               <octave>4</octave>
            </pitch>
            <duration>1</duration>
            <type>eighth</type>
            <staff>1</staff>
            <beam number="1">begin</beam>
         </note>
         <note>
            <pitch>
               <step>C</step>
               <octave>5</octave>
            </pitch>
            <duration>1</duration>
            <type>eighth</type>
            <staff>1</staff>
            <beam number="1">continue</beam>
         </note>
         <note>
            <pitch>
               <step>B</step>
               <octave>4</octave>
            </pitch>
            <duration>1</duration>
            <type>eighth</type>
            <staff>1</staff>
            <beam number="1">end</beam>
         </note>
         <backup>
            <duration>6</duration>
         </backup>
         <note>
            <pitch>
               <step>C</step>
               <octave>3</octave>
            </pitch>
            <duration>1</duration>
            <type>eighth</type>
            <staff>2</staff>
            <beam number="1">begin</beam>
         </note>
         <note>
            <pitch>
               <step>G</step>
               <octave>3</octave>
            </pitch>
            <duration>1</duration>
            <type>eighth</type>
            <staff>2</staff>
            <beam number="1">continue</beam>
         </note>
         <note>
            <pitch>
               <step>C</step>
               <octave>4</octave>
            </pitch>
            <duration>1</duration>
            <type>eighth</type>
            <staff>2</staff>
            <beam number="1">end</beam>
         </note>
         <note>
            <rest />
            <duration>3</duration>
            <type>quarter</type>
            <dot />
            <staff>2</staff>
         </note>
      </measure>
      <measure number="11">
         <note>
            <pitch>
               <step>G</step>
               <octave>4</octave>
            </pitch>
            <duration>3</duration>
            <type>quarter</type>
            <dot />
            <staff>1</staff>
         </note>
         <note>
            <pitch>
               <step>G</step>
               <octave>4</octave>
            </pitch>
            <duration>1</duration>
            <type>eighth</type>
            <staff>1</staff>
            <beam number="1">begin</beam>
         </note>
         <note>
            <pitch>
               <step>D</step>
               <octave>5</octave>
            </pitch>
            <duration>1</duration>
            <type>eighth</type>
            <staff>1</staff>
            <beam number="1">continue</beam>
         </note>
         <note>
            <pitch>
               <step>C</step>
               <octave>5</octave>
            </pitch>
            <duration>1</duration>
            <type>eighth</type>
            <staff>1</staff>
            <beam number="1">end</beam>
         </note>
         <backup>
            <duration>6</duration>
         </backup>
         <note>
            <pitch>
               <step>B</step>
               <octave>2</octave>
            </pitch>
            <duration>1</duration>
            <type>eighth</type>
            <staff>2</staff>
            <beam number="1">begin</beam>
         </note>
         <note>
            <pitch>
               <step>D</step>
               <octave>3</octave>
            </pitch>
            <duration>1</duration>
            <type>eighth</type>
            <staff>2</staff>
            <beam number="1">continue</beam>
         </note>
         <note>
            <pitch>
               <step>G</step>
               <octave>3</octave>
            </pitch>
            <duration>1</duration>
            <type>eighth</type>
            <staff>2</staff>
            <beam number="1">end</beam>
         </note>
         <note>
            <rest />
            <duration>3</duration>
            <type>quarter</type>
            <dot />
            <staff>2</staff>
         </note>
      </measure>
      <measure number="12">
         <note>
            <pitch>
               <step>G</step>
               <octave>4</octave>
            </pitch>
            <duration>3</duration>
            <type>quarter</type>
            <dot />
            <staff>1</staff>
         </note>
         <note>
            <pitch>
               <step>F</step>
               <octave>4</octave>
            </pitch>
            <duration>2</duration>
            <type>quarter</type>
            <staff>1</staff>
         </note>
         <note>
            <pitch>
               <step>E</step>
               <octave>4</octave>
            </pitch>
            <duration>1</duration>
            <type>eighth</type>
            <staff>1</staff>
         </note>
         <backup>
            <duration>6</duration>
         </backup>
         <note>
            <pitch>
               <step>A</step>
               <octave>2</octave>
            </pitch>
            <duration>1</duration>
            <type>eighth</type>
            <staff>2</staff>
            <beam number="1">begin</beam>
         </note>
         <note>
            <pitch>
               <step>C</step>
               <octave>3</octave>
            </pitch>
            <duration>1</duration>
            <type>eighth</type>
            <staff>2</staff>
            <beam number="1">continue</beam>
         </note>
         <note>
            <pitch>
               <step>G</step>
               <octave>3</octave>
            </pitch>
            <duration>1</duration>
            <type>eighth</type>
            <staff>2</staff>
            <beam number="1">end</beam>
         </note>
         <note>
            <rest />
            <duration>3</duration>
            <type>quarter</type>
            <dot />
            <staff>2</staff>
         </note>
      </measure>
      <measure number="13">
         <note>
            <pitch>
               <step>E</step>
               <octave>4</octave>
            </pitch>
            <duration>3</duration>
            <type>quarter</type>
            <dot />
            <staff>1</staff>
         </note>
         <note>
            <pitch>
               <step>E</step>
               <octave>4</octave>
            </pitch>
            <duration>1</duration>
            <type>eighth</type>
            <staff>1</staff>
            <beam number="1">begin</beam>
         </note>
         <note>
            <pitch>
               <step>F</step>
               <octave>4</octave>
            </pitch>
            <duration>1</duration>
            <type>eighth</type>
            <staff>1</staff>
            <beam number="1">continue</beam>
         </note>
         <note>
            <pitch>
               <step>G</step>
               <octave>4</octave>
            </pitch>
            <duration>1</duration>
            <type>eighth</type>
            <staff>1</staff>
            <beam number="1">end</beam>
         </note>
         <backup>
            <duration>6</duration>
         </backup>
         <note>
            <pitch>
               <step>G</step>
               <octave>2</octave>
            </pitch>
            <duration>1</duration>
            <type>eighth</type>
            <staff>2</staff>
            <beam number="1">begin</beam>
         </note>
         <note>
            <pitch>
               <step>C</step>
               <octave>3</octave>
            </pitch>
            <duration>1</duration>
            <type>eighth</type>
            <staff>2</staff>
            <beam number="1">continue</beam>
         </note>
         <note>
            <pitch>
               <step>E</step>
               <octave>3</octave>
            </pitch>
            <duration>1</duration>
            <type>eighth</type>
            <staff>2</staff>
            <beam number="1">end</beam>
         </note>
         <note>
            <rest />
            <duration>3</duration>
            <type>quarter</type>
            <dot />
            <staff>2</staff>
         </note>
      </measure>
      <measure number="14">
         <note>
            <pitch>
               <step>A</step>
               <octave>4</octave>
            </pitch>
            <duration>3</duration>
            <type>quarter</type>
            <dot />
            <staff>1</staff>
         </note>
         <note>
            <pitch>
               <step>F</step>
               <octave>5</octave>
            </pitch>
            <duration>1</duration>
            <type>eighth</type>
            <staff>1</staff>
            <beam number="1">begin</beam>
         </note>
         <note>
            <pitch>
               <step>E</step>
               <octave>5</octave>
            </pitch>
            <duration>1</duration>
            <type>eighth</type>
            <staff>1</staff>
            <beam number="1">continue</beam>
         </note>
         <note>
            <pitch>
               <step>C</step>
               <octave>5</octave>
            </pitch>
            <duration>1</duration>
            <type>eighth</type>
            <staff>1</staff>
            <beam number="1">end</beam>
         </note>
         <backup>
            <duration>6</duration>
         </backup>
         <note>
            <pitch>
               <step>F</step>
               <octave>2</octave>
            </pitch>
            <duration>1</duration>
            <type>eighth</type>
            <staff>2</staff>
            <beam number="1">begin</beam>
         </note>
         <note>
            <pitch>
               <step>A</step>
               <octave>2</octave>
            </pitch>
            <duration>1</duration>
            <type>eighth</type>
            <staff>2</staff>
            <beam number="1">continue</beam>
         </note>
         <note>
            <pitch>
               <step>C</step>
               <octave>3</octave>
            </pitch>
            <duration>1</duration>
            <type>eighth</type>
            <staff>2</staff>
            <beam number="1">end</beam>
         </note>
         <note>
            <rest />
            <duration>3</duration>
            <type>quarter</type>
            <dot />
            <staff>2</staff>
         </note>
      </measure>
      <measure number="15">
         <note>
            <pitch>
               <step>G</step>
               <octave>4</octave>
            </pitch>
            <duration>3</duration>
            <type>quarter</type>
            <dot />
            <staff>1</staff>
         </note>
         <note>
            <pitch>
               <step>F</step>
               <octave>5</octave>
            </pitch>
            <duration>1</duration>
            <type>eighth</type>
            <staff>1</staff>
            <beam number="1">begin</beam>
         </note>
         <note>
            <pitch>
               <step>E</step>
               <octave>5</octave>
            </pitch>
            <duration>1</duration>
            <type>eighth</type>
            <staff>1</staff>
            <beam number="1">continue</beam>
         </note>
         <note>
            <pitch>
               <step>D</step>
               <octave>5</octave>
            </pitch>
            <duration>1</duration>
            <type>eighth</type>
            <staff>1</staff>
            <beam number="1">end</beam>
         </note>
         <backup>
            <duration>6</duration>
         </backup>
         <note>
            <pitch>
               <step>G</step>
               <octave>2</octave>
            </pitch>
            <duration>1</duration>
            <type>eighth</type>
            <staff>2</staff>
            <beam number="1">begin</beam>
         </note>
         <note>
            <pitch>
               <step>B</step>
               <octave>2</octave>
            </pitch>
            <duration>1</duration>
            <type>eighth</type>
            <staff>2</staff>
            <beam number="1">continue</beam>
         </note>
         <note>
            <pitch>
               <step>D</step>
               <octave>3</octave>
            </pitch>
            <duration>1</duration>
            <type>eighth</type>
            <staff>2</staff>
            <beam number="1">end</beam>
         </note>
         <note>
            <rest />
            <duration>3</duration>
            <type>quarter</type>
            <dot />
            <staff>2</staff>
         </note>
      </measure>
      <measure number="16">
         <note>
            <pitch>
               <step>C</step>
               <octave>5</octave>
            </pitch>
            <duration>3</duration>
            <type>quarter</type>
            <dot />
            <staff>1</staff>
         </note>
         <note>
            <rest />
            <duration>3</duration>
            <type>quarter</type>
            <dot />
            <staff>1</staff>
         </note>
         <backup>
            <duration>6</duration>
         </backup>
         <note>
            <pitch>
               <step>C</step>
               <octave>3</octave>
            </pitch>
            <duration>1</duration>
            <type>eighth</type>
            <staff>2</staff>
            <beam number="1">begin</beam>
         </note>
         <note>
            <pitch>
               <step>E</step>
               <octave>3</octave>
            </pitch>
            <duration>1</duration>
            <type>eighth</type>
            <staff>2</staff>
            <beam number="1">continue</beam>
         </note>
         <note>
            <pitch>
               <step>G</step>
               <octave>3</octave>
            </pitch>
            <duration>1</duration>
            <type>eighth</type>
            <staff>2</staff>
            <beam number="1">end</beam>
         </note>
         <note>
            <pitch>
               <step>C</step>
               <octave>4</octave>
            </pitch>
            <duration>1</duration>
            <type>eighth</type>
            <staff>2</staff>
            <beam number="1">begin</beam>
         </note>
         <note>
            <pitch>
               <step>E</step>
               <octave>3</octave>
            </pitch>
            <duration>1</duration>
            <type>eighth</type>
            <staff>2</staff>
            <beam number="1">continue</beam>
         </note>
         <note>
            <pitch>
               <step>C</step>
               <octave>3</octave>
            </pitch>
            <duration>1</duration>
            <type>eighth</type>
            <staff>2</staff>
            <beam number="1">end</beam>
         </note>
      </measure>
      <measure number="17">
         <note>
            <rest />
            <duration>3</duration>
            <type>quarter</type>
            <dot />
            <staff>1</staff>
         </note>
         <note>
            <pitch>
               <step>C</step>
               <octave>5</octave>
            </pitch>
            <duration>1</duration>
            <type>eighth</type>
            <staff>1</staff>
            <beam number="1">begin</beam>
         </note>
         <note>
            <pitch>
               <step>D</step>
               <octave>5</octave>
            </pitch>
            <duration>1</duration>
            <type>eighth</type>
            <staff>1</staff>
            <beam number="1">continue</beam>
         </note>
         <note>
            <pitch>
               <step>E</step>
               <octave>5</octave>
            </pitch>
            <duration>1</duration>
            <type>eighth</type>
            <staff>1</staff>
            <beam number="1">end</beam>
         </note>
         <backup>
            <duration>6</duration>
         </backup>
         <note>
            <pitch>
               <step>G</step>
               <octave>2</octave>
            </pitch>
            <duration>3</duration>
            <type>quarter</type>
            <dot />
            <staff>2</staff>
         </note>
         <note>
            <rest />
            <duration>3</duration>
            <type>quarter</type>
            <dot />
            <staff>2</staff>
         </note>
      </measure>
      <measure number="18">
         <note>
            <pitch>
               <step>G</step>
               <octave>5</octave>
            </pitch>
            <duration>3</duration>
            <type>quarter</type>
            <dot />
            <staff>1</staff>
         </note>
         <note>
            <pitch>
               <step>G</step>
               <octave>5</octave>
            </pitch>
            <duration>1</duration>
            <type>eighth</type>
            <staff>1</staff>
            <beam number="1">begin</beam>
         </note>
         <note>
            <pitch>
               <step>G</step>
               <octave>5</octave>
            </pitch>
            <duration>1</duration>
            <type>eighth</type>
            <staff>1</staff>
            <beam number="1">continue</beam>
         </note>
         <note>
            <pitch>
               <step>E</step>
               <octave>5</octave>
            </pitch>
            <duration>1</duration>
            <type>eighth</type>
            <staff>1</staff>
            <beam number="1">end</beam>
         </note>
         <backup>
            <duration>6</duration>
         </backup>
         <note>
            <pitch>
               <step>C</step>
               <octave>3</octave>
            </pitch>
            <duration>1</duration>
            <type>eighth</type>
            <staff>2</staff>
            <beam number="1">begin</beam>
         </note>
         <note>
            <pitch>
               <step>G</step>
               <octave>3</octave>
            </pitch>
            <duration>1</duration>
            <type>eighth</type>
            <staff>2</staff>
            <beam number="1">continue</beam>
         </note>
         <note>
            <pitch>
               <step>C</step>
               <octave>4</octave>
            </pitch>
            <duration>1</duration>
            <type>eighth</type>
            <staff>2</staff>
            <beam number="1">end</beam>
         </note>
         <note>
            <rest />
            <duration>3</duration>
            <type>quarter</type>
            <dot />
            <staff>2</staff>
         </note>
      </measure>
      <measure number="19">
         <note>
            <pitch>
               <step>D</step>
               <octave>5</octave>
            </pitch>
            <duration>3</duration>
            <type>quarter</type>
            <dot />
            <staff>1</staff>
         </note>
         <note>
            <pitch>
               <step>E</step>
               <octave>5</octave>
            </pitch>
            <duration>2</duration>
            <type>quarter</type>
            <staff>1</staff>
         </note>
         <note>
            <pitch>
               <step>D</step>
               <octave>5</octave>
            </pitch>
            <duration>1</duration>
            <type>eighth</type>
            <staff>1</staff>
         </note>
         <backup>
            <duration>6</duration>
         </backup>
         <note>
            <pitch>
               <step>G</step>
               <octave>2</octave>
            </pitch>
            <duration>1</duration>
            <type>eighth</type>
            <staff>2</staff>
            <beam number="1">begin</beam>
         </note>
         <note>
            <pitch>
               <step>D</step>
               <octave>3</octave>
            </pitch>
            <duration>1</duration>
            <type>eighth</type>
            <staff>2</staff>
            <beam number="1">continue</beam>
         </note>
         <note>
            <pitch>
               <step>G</step>
               <octave>3</octave>
            </pitch>
            <duration>1</duration>
            <type>eighth</type>
            <staff>2</staff>
            <beam number="1">end</beam>
         </note>
         <note>
            <rest />
            <duration>3</duration>
            <type>quarter</type>
            <dot />
            <staff>2</staff>
         </note>
      </measure>
      <measure number="20">
         <note>
            <pitch>
               <step>C</step>
               <octave>5</octave>
            </pitch>
            <duration>3</duration>
            <type>quarter</type>
            <dot />
            <staff>1</staff>
         </note>
         <note>
            <pitch>
               <step>A</step>
               <octave>4</octave>
            </pitch>
            <duration>2</duration>
            <type>quarter</type>
            <staff>1</staff>
         </note>
         <note>
            <pitch>
               <step>G</step>
               <octave>4</octave>
            </pitch>
            <duration>1</duration>
            <type>eighth</type>
            <staff>1</staff>
         </note>
         <backup>
            <duration>6</duration>
         </backup>
         <note>
            <pitch>
               <step>A</step>
               <octave>2</octave>
            </pitch>
            <duration>1</duration>
            <type>eighth</type>
            <staff>2</staff>
            <beam number="1">begin</beam>
         </note>
         <note>
            <pitch>
               <step>E</step>
               <octave>3</octave>
            </pitch>
            <duration>1</duration>
            <type>eighth</type>
            <staff>2</staff>
            <beam number="1">continue</beam>
         </note>
         <note>
            <pitch>
               <step>A</step>
               <octave>3</octave>
            </pitch>
            <duration>1</duration>
            <type>eighth</type>
            <staff>2</staff>
            <beam number="1">end</beam>
         </note>
         <note>
            <rest />
            <duration>3</duration>
            <type>quarter</type>
            <dot />
            <staff>2</staff>
         </note>
      </measure>
      <measure number="21">
         <note>
            <pitch>
               <step>E</step>
               <octave>5</octave>
            </pitch>
            <duration>4</duration>
            <type>half</type>
            <staff>1</staff>
         </note>
         <note>
            <pitch>
               <step>G</step>
               <octave>4</octave>
            </pitch>
            <duration>1</duration>
            <type>eighth</type>
            <staff>1</staff>
            <beam number="1">begin</beam>
         </note>
         <note>
            <pitch>
               <step>A</step>
               <octave>4</octave>
            </pitch>
            <duration>1</duration>
            <type>eighth</type>
            <staff>1</staff>
            <beam number="1">end</beam>
         </note>
         <backup>
            <duration>6</duration>
         </backup>
         <note>
            <pitch>
               <step>E</step>
               <octave>2</octave>
            </pitch>
            <duration>1</duration>
            <type>eighth</type>
            <staff>2</staff>
            <beam number="1">begin</beam>
         </note>
         <note>
            <pitch>
               <step>B</step>
               <octave>2</octave>
            </pitch>
            <duration>1</duration>
            <type>eighth</type>
            <staff>2</staff>
            <beam number="1">continue</beam>
         </note>
         <note>
            <pitch>
               <step>E</step>
               <octave>3</octave>
            </pitch>
            <duration>1</duration>
            <type>eighth</type>
            <staff>2</staff>
            <beam number="1">end</beam>
         </note>
         <note>
            <rest />
            <duration>3</duration>
            <type>quarter</type>
            <dot />
            <staff>2</staff>
         </note>
      </measure>
      <measure number="22">
         <note>
            <pitch>
               <step>C</step>
               <octave>5</octave>
            </pitch>
            <duration>3</duration>
            <type>quarter</type>
            <dot />
            <staff>1</staff>
         </note>
         <note>
            <pitch>
               <step>C</step>
               <octave>5</octave>
            </pitch>
            <duration>2</duration>
            <type>quarter</type>
            <staff>1</staff>
         </note>
         <note>
            <pitch>
               <step>A</step>
               <octave>5</octave>
            </pitch>
            <duration>1</duration>
            <type>eighth</type>
            <staff>1</staff>
         </note>
         <backup>
            <duration>6</duration>
         </backup>
         <note>
            <pitch>
               <step>F</step>
               <octave>2</octave>
            </pitch>
            <duration>1</duration>
            <type>eighth</type>
            <staff>2</staff>
            <beam number="1">begin</beam>
         </note>
         <note>
            <pitch>
               <step>C</step>
               <octave>3</octave>
            </pitch>
            <duration>1</duration>
            <type>eighth</type>
            <staff>2</staff>
            <beam number="1">continue</beam>
         </note>
         <note>
            <pitch>
               <step>F</step>
               <octave>3</octave>
            </pitch>
            <duration>1</duration>
            <type>eighth</type>
            <staff>2</staff>
            <beam number="1">end</beam>
         </note>
         <note>
            <rest />
            <duration>3</duration>
            <type>quarter</type>
            <dot />
            <staff>2</staff>
         </note>
      </measure>
      <measure number="23">
         <note>
            <pitch>
               <step>G</step>
               <octave>5</octave>
            </pitch>
            <duration>3</duration>
            <type>quarter</type>
            <dot />
            <staff>1</staff>
         </note>
         <note>
            <pitch>
               <step>E</step>
               <octave>5</octave>
            </pitch>
            <duration>1</duration>
            <type>eighth</type>
            <staff>1</staff>
            <beam number="1">begin</beam>
         </note>
         <note>
            <pitch>
               <step>D</step>
               <octave>5</octave>
            </pitch>
            <duration>1</duration>
            <type>eighth</type>
            <staff>1</staff>
            <beam number="1">continue</beam>
         </note>
         <note>
            <pitch>
               <step>C</step>
               <octave>5</octave>
            </pitch>
            <duration>1</duration>
            <type>eighth</type>
            <staff>1</staff>
            <beam number="1">end</beam>
         </note>
         <backup>
            <duration>6</duration>
         </backup>
         <note>
            <pitch>
               <step>E</step>
               <octave>2</octave>
            </pitch>
            <duration>1</duration>
            <type>eighth</type>
            <staff>2</staff>
            <beam number="1">begin</beam>
         </note>
         <note>
            <pitch>
               <step>B</step>
               <octave>2</octave>
            </pitch>
            <duration>1</duration>
            <type>eighth</type>
            <staff>2</staff>
            <beam number="1">continue</beam>
         </note>
         <note>
            <pitch>
               <step>E</step>
               <octave>3</octave>
            </pitch>
            <duration>1</duration>
            <type>eighth</type>
            <staff>2</staff>
            <beam number="1">end</beam>
         </note>
         <note>
            <rest />
            <duration>3</duration>
            <type>quarter</type>
            <dot />
            <staff>2</staff>
         </note>
      </measure>
      <measure number="24">
         <note>
            <pitch>
               <step>D</step>
               <octave>5</octave>
            </pitch>
            <duration>3</duration>
            <tie type="start" />
            <type>quarter</type>
            <dot />
            <staff>1</staff>
            <notations>
               <tied type="start" />
            </notations>
         </note>
         <note>
            <pitch>
               <step>D</step>
               <octave>5</octave>
            </pitch>
            <duration>2</duration>
            <tie type="stop" />
            <type>quarter</type>
            <staff>1</staff>
            <notations>
               <tied type="stop" />
            </notations>
         </note>
         <note>
            <pitch>
               <step>G</step>
               <octave>4</octave>
            </pitch>
            <duration>1</duration>
            <type>eighth</type>
            <staff>1</staff>
         </note>
         <backup>
            <duration>6</duration>
         </backup>
         <note>
            <pitch>
               <step>G</step>
               <octave>2</octave>
            </pitch>
            <duration>1</duration>
            <type>eighth</type>
            <staff>2</staff>
            <beam number="1">begin</beam>
         </note>
         <note>
            <pitch>
               <step>D</step>
               <octave>3</octave>
            </pitch>
            <duration>1</duration>
            <type>eighth</type>
            <staff>2</staff>
            <beam number="1">continue</beam>
         </note>
         <note>
            <pitch>
               <step>G</step>
               <octave>3</octave>
            </pitch>
            <duration>1</duration>
            <type>eighth</type>
            <staff>2</staff>
            <beam number="1">end</beam>
         </note>
         <note>
            <pitch>
               <step>B</step>
               <octave>3</octave>
            </pitch>
            <duration>1</duration>
            <type>eighth</type>
            <staff>2</staff>
            <beam number="1">begin</beam>
         </note>
         <note>
            <pitch>
               <step>D</step>
               <octave>4</octave>
            </pitch>
            <duration>1</duration>
            <type>eighth</type>
            <staff>2</staff>
            <beam number="1">end</beam>
         </note>
         <note>
            <rest />
            <duration>1</duration>
            <type>eighth</type>
            <staff>2</staff>
         </note>
      </measure>
      <measure number="25">
         <note>
            <pitch>
               <step>B</step>
               <octave>4</octave>
            </pitch>
            <duration>3</duration>
            <type>quarter</type>
            <dot />
            <staff>1</staff>
         </note>
         <note>
            <pitch>
               <step>C</step>
               <octave>5</octave>
            </pitch>
            <duration>1</duration>
            <type>eighth</type>
            <staff>1</staff>
            <beam number="1">begin</beam>
         </note>
         <note>
            <pitch>
               <step>D</step>
               <octave>5</octave>
            </pitch>
            <duration>1</duration>
            <type>eighth</type>
            <staff>1</staff>
            <beam number="1">continue</beam>
         </note>
         <note>
            <pitch>
               <step>E</step>
               <octave>5</octave>
            </pitch>
            <duration>1</duration>
            <type>eighth</type>
            <staff>1</staff>
            <beam number="1">end</beam>
         </note>
         <backup>
            <duration>6</duration>
         </backup>
         <note>
            <rest measure="yes" />
            <duration>6</duration>
            <staff>2</staff>
         </note>
      </measure>
      <measure number="26">
         <note>
            <pitch>
               <step>G</step>
               <octave>5</octave>
            </pitch>
            <duration>3</duration>
            <type>quarter</type>
            <dot />
            <staff>1</staff>
         </note>
         <note>
            <pitch>
               <step>G</step>
               <octave>5</octave>
            </pitch>
            <duration>1</duration>
            <type>eighth</type>
            <staff>1</staff>
            <beam number="1">begin</beam>
         </note>
         <note>
            <pitch>
               <step>G</step>
               <octave>5</octave>
            </pitch>
            <duration>1</duration>
            <type>eighth</type>
            <staff>1</staff>
            <beam number="1">continue</beam>
         </note>
         <note>
            <pitch>
               <step>E</step>
               <octave>5</octave>
            </pitch>
            <duration>1</duration>
            <type>eighth</type>
            <staff>1</staff>
            <beam number="1">end</beam>
         </note>
         <backup>
            <duration>6</duration>
         </backup>
         <note>
            <pitch>
               <step>C</step>
               <octave>3</octave>
            </pitch>
            <duration>1</duration>
            <type>eighth</type>
            <staff>2</staff>
            <beam number="1">begin</beam>
         </note>
         <note>
            <pitch>
               <step>G</step>
               <octave>3</octave>
            </pitch>
            <duration>1</duration>
            <type>eighth</type>
            <staff>2</staff>
            <beam number="1">continue</beam>
         </note>
         <note>
            <pitch>
               <step>C</step>
               <octave>4</octave>
            </pitch>
            <duration>1</duration>
            <type>eighth</type>
            <staff>2</staff>
            <beam number="1">end</beam>
         </note>
         <note>
            <rest />
            <duration>3</duration>
            <type>quarter</type>
            <dot />
            <staff>2</staff>
         </note>
      </measure>
      <measure number="27">
         <note>
            <pitch>
               <step>D</step>
               <octave>5</octave>
            </pitch>
            <duration>3</duration>
            <type>quarter</type>
            <dot />
            <staff>1</staff>
         </note>
         <note>
            <pitch>
               <step>E</step>
               <octave>5</octave>
            </pitch>
            <duration>2</duration>
            <type>quarter</type>
            <staff>1</staff>
         </note>
         <note>
            <pitch>
               <step>D</step>
               <octave>5</octave>
            </pitch>
            <duration>1</duration>
            <type>eighth</type>
            <staff>1</staff>
         </note>
         <backup>
            <duration>6</duration>
         </backup>
         <note>
            <pitch>
               <step>G</step>
               <octave>2</octave>
            </pitch>
            <duration>1</duration>
            <type>eighth</type>
            <staff>2</staff>
            <beam number="1">begin</beam>
         </note>
         <note>
            <pitch>
               <step>D</step>
               <octave>3</octave>
            </pitch>
            <duration>1</duration>
            <type>eighth</type>
            <staff>2</staff>
            <beam number="1">continue</beam>
         </note>
         <note>
            <pitch>
               <step>G</step>
               <octave>3</octave>
            </pitch>
            <duration>1</duration>
            <type>eighth</type>
            <staff>2</staff>
            <beam number="1">end</beam>
         </note>
         <note>
            <rest />
            <duration>3</duration>
            <type>quarter</type>
            <dot />
            <staff>2</staff>
         </note>
      </measure>
      <measure number="28">
         <note>
            <pitch>
               <step>C</step>
               <octave>5</octave>
            </pitch>
            <duration>3</duration>
            <type>quarter</type>
            <dot />
            <staff>1</staff>
         </note>
         <note>
            <pitch>
               <step>A</step>
               <octave>4</octave>
            </pitch>
            <duration>2</duration>
            <type>quarter</type>
            <staff>1</staff>
         </note>
         <note>
            <pitch>
               <step>G</step>
               <octave>4</octave>
            </pitch>
            <duration>1</duration>
            <type>eighth</type>
            <staff>1</staff>
         </note>
         <backup>
            <duration>6</duration>
         </backup>
         <note>
            <pitch>
               <step>A</step>
               <octave>2</octave>
            </pitch>
            <duration>1</duration>
            <type>eighth</type>
            <staff>2</staff>
            <beam number="1">begin</beam>
         </note>
         <note>
            <pitch>
               <step>E</step>
               <octave>3</octave>
            </pitch>
            <duration>1</duration>
            <type>eighth</type>
            <staff>2</staff>
            <beam number="1">continue</beam>
         </note>
         <note>
            <pitch>
               <step>A</step>
               <octave>3</octave>
            </pitch>
            <duration>1</duration>
            <type>eighth</type>
            <staff>2</staff>
            <beam number="1">end</beam>
         </note>
         <note>
            <rest />
            <duration>3</duration>
            <type>quarter</type>
            <dot />
            <staff>2</staff>
         </note>
      </measure>
      <measure number="29">
         <note>
            <pitch>
               <step>E</step>
               <octave>5</octave>
            </pitch>
            <duration>4</duration>
            <type>half</type>
            <staff>1</staff>
         </note>
         <note>
            <pitch>
               <step>G</step>
               <octave>4</octave>
            </pitch>
            <duration>1</duration>
            <type>eighth</type>
            <staff>1</staff>
            <beam number="1">begin</beam>
         </note>
         <note>
            <pitch>
               <step>A</step>
               <octave>4</octave>
            </pitch>
            <duration>1</duration>
            <type>eighth</type>
            <staff>1</staff>
            <beam number="1">end</beam>
         </note>
         <backup>
            <duration>6</duration>
         </backup>
         <note>
            <pitch>
               <step>E</step>
               <octave>2</octave>
            </pitch>
            <duration>1</duration>
            <type>eighth</type>
            <staff>2</staff>
            <beam number="1">begin</beam>
         </note>
         <note>
            <pitch>
               <step>B</step>
               <octave>2</octave>
            </pitch>
            <duration>1</duration>
            <type>eighth</type>
            <staff>2</staff>
            <beam number="1">continue</beam>
         </note>
         <note>
            <pitch>
               <step>E</step>
               <octave>3</octave>
            </pitch>
            <duration>1</duration>
            <type>eighth</type>
            <staff>2</staff>
            <beam number="1">end</beam>
         </note>
         <note>
            <rest />
            <duration>3</duration>
            <type>quarter</type>
            <dot />
            <staff>2</staff>
         </note>
      </measure>
      <measure number="30">
         <note>
            <pitch>
               <step>C</step>
               <octave>5</octave>
            </pitch>
            <duration>3</duration>
            <type>quarter</type>
            <dot />
            <staff>1</staff>
         </note>
         <note>
            <pitch>
               <step>C</step>
               <octave>5</octave>
            </pitch>
            <duration>1</duration>
            <type>eighth</type>
            <staff>1</staff>
            <beam number="1">begin</beam>
         </note>
         <note>
            <pitch>
               <step>D</step>
               <octave>5</octave>
            </pitch>
            <duration>1</duration>
            <type>eighth</type>
            <staff>1</staff>
            <beam number="1">continue</beam>
         </note>
         <note>
            <pitch>
               <step>E</step>
               <octave>5</octave>
            </pitch>
            <duration>1</duration>
            <type>eighth</type>
            <staff>1</staff>
            <beam number="1">end</beam>
         </note>
         <backup>
            <duration>6</duration>
         </backup>
         <note>
            <pitch>
               <step>F</step>
               <octave>2</octave>
            </pitch>
            <duration>1</duration>
            <type>eighth</type>
            <staff>2</staff>
            <beam number="1">begin</beam>
         </note>
         <note>
            <pitch>
               <step>C</step>
               <octave>3</octave>
            </pitch>
            <duration>1</duration>
            <type>eighth</type>
            <staff>2</staff>
            <beam number="1">continue</beam>
         </note>
         <note>
            <pitch>
               <step>F</step>
               <octave>3</octave>
            </pitch>
            <duration>1</duration>
            <type>eighth</type>
            <staff>2</staff>
            <beam number="1">end</beam>
         </note>
         <note>
            <rest />
            <duration>3</duration>
            <type>quarter</type>
            <dot />
            <staff>2</staff>
         </note>
      </measure>
      <measure number="31">
         <note>
            <pitch>
               <step>D</step>
               <octave>5</octave>
            </pitch>
            <duration>3</duration>
            <type>quarter</type>
            <dot />
            <staff>1</staff>
         </note>
         <note>
            <pitch>
               <step>E</step>
               <octave>5</octave>
            </pitch>
            <duration>2</duration>
            <type>quarter</type>
            <staff>1</staff>
         </note>
         <note>
            <pitch>
               <step>D</step>
               <octave>5</octave>
            </pitch>
            <duration>1</duration>
            <type>eighth</type>
            <staff>1</staff>
         </note>
         <backup>
            <duration>6</duration>
         </backup>
         <note>
            <pitch>
               <step>G</step>
               <octave>2</octave>
            </pitch>
            <duration>1</duration>
            <type>eighth</type>
            <staff>2</staff>
            <beam number="1">begin</beam>
         </note>
         <note>
            <pitch>
               <step>D</step>
               <octave>3</octave>
            </pitch>
            <duration>1</duration>
            <type>eighth</type>
            <staff>2</staff>
            <beam number="1">continue</beam>
         </note>
         <note>
            <pitch>
               <step>G</step>
               <octave>3</octave>
            </pitch>
            <duration>1</duration>
            <type>eighth</type>
            <staff>2</staff>
            <beam number="1">end</beam>
         </note>
         <note>
            <rest />
            <duration>3</duration>
            <type>quarter</type>
            <dot />
            <staff>2</staff>
         </note>
      </measure>
      <measure number="32">
         <note>
            <pitch>
               <step>C</step>
               <octave>5</octave>
            </pitch>
            <duration>3</duration>
            <tie type="start" />
            <type>quarter</type>
            <dot />
            <staff>1</staff>
            <notations>
               <tied type="start" />
            </notations>
         </note>
         <note>
            <pitch>
               <step>C</step>
               <octave>5</octave>
            </pitch>
            <duration>3</duration>
            <tie type="stop" />
            <type>quarter</type>
            <dot />
            <staff>1</staff>
            <notations>
               <tied type="stop" />
            </notations>
         </note>
         <backup>
            <duration>6</duration>
         </backup>
         <note>
            <pitch>
               <step>C</step>
               <octave>3</octave>
            </pitch>
            <duration>1</duration>
            <type>eighth</type>
            <staff>2</staff>
            <beam number="1">begin</beam>
         </note>
         <note>
            <pitch>
               <step>G</step>
               <octave>3</octave>
            </pitch>
            <duration>1</duration>
            <type>eighth</type>
            <staff>2</staff>
            <beam number="1">continue</beam>
         </note>
         <note>
            <pitch>
               <step>C</step>
               <octave>4</octave>
            </pitch>
            <duration>1</duration>
            <type>eighth</type>
            <staff>2</staff>
            <beam number="1">end</beam>
         </note>
         <note>
            <pitch>
               <step>E</step>
               <octave>4</octave>
            </pitch>
            <duration>1</duration>
            <type>eighth</type>
            <staff>2</staff>
            <beam number="1">begin</beam>
         </note>
         <note>
            <pitch>
               <step>G</step>
               <octave>4</octave>
            </pitch>
            <duration>1</duration>
            <type>eighth</type>
            <staff>2</staff>
            <beam number="1">continue</beam>
         </note>
         <note>
            <pitch>
               <step>G</step>
               <octave>3</octave>
            </pitch>
            <duration>1</duration>
            <type>eighth</type>
            <staff>2</staff>
            <beam number="1">end</beam>
         </note>
      </measure>
      <measure number="33">
         <note>
            <rest />
            <duration>3</duration>
            <type>quarter</type>
            <dot />
            <staff>1</staff>
         </note>
         <note>
            <pitch>
               <step>C</step>
               <octave>6</octave>
            </pitch>
            <duration>1</duration>
            <type>eighth</type>
            <staff>1</staff>
            <beam number="1">begin</beam>
         </note>
         <note>
            <pitch>
               <step>C</step>
               <octave>6</octave>
            </pitch>
            <duration>1</duration>
            <type>eighth</type>
            <staff>1</staff>
            <beam number="1">continue</beam>
         </note>
         <note>
            <pitch>
               <step>B</step>
               <octave>5</octave>
            </pitch>
            <duration>1</duration>
            <type>eighth</type>
            <staff>1</staff>
            <beam number="1">end</beam>
         </note>
         <backup>
            <duration>6</duration>
         </backup>
         <note>
            <pitch>
               <step>C</step>
               <octave>4</octave>
            </pitch>
            <duration>3</duration>
            <type>quarter</type>
            <dot />
            <staff>2</staff>
         </note>
         <note>
            <rest />
            <duration>3</duration>
            <type>quarter</type>
            <dot />
            <staff>2</staff>
         </note>
      </measure>
      <measure number="34">
         <attributes>
            <clef number="2">
               <sign>G</sign>
               <line>2</line>
            </clef>
         </attributes>
         <note>
            <pitch>
               <step>A</step>
               <octave>5</octave>
            </pitch>
            <duration>3</duration>
            <type>quarter</type>
            <dot />
            <staff>1</staff>
         </note>
         <note>
            <pitch>
               <step>A</step>
               <octave>5</octave>
            </pitch>
            <duration>2</duration>
            <type>quarter</type>
            <staff>1</staff>
         </note>
         <note>
            <pitch>
               <step>G</step>
               <octave>5</octave>
            </pitch>
            <duration>1</duration>
            <type>eighth</type>
            <staff>1</staff>
         </note>
         <backup>
            <duration>6</duration>
         </backup>
         <note>
            <pitch>
               <step>F</step>
               <octave>4</octave>
            </pitch>
            <duration>1</duration>
            <type>eighth</type>
            <staff>2</staff>
            <beam number="1">begin</beam>
         </note>
         <note>
            <pitch>
               <step>C</step>
               <octave>5</octave>
            </pitch>
            <duration>1</duration>
            <type>eighth</type>
            <staff>2</staff>
            <beam number="1">continue</beam>
         </note>
         <note>
            <pitch>
               <step>F</step>
               <octave>5</octave>
            </pitch>
            <duration>1</duration>
            <type>eighth</type>
            <staff>2</staff>
            <beam number="1">end</beam>
         </note>
         <note>
            <rest />
            <duration>3</duration>
            <type>quarter</type>
            <dot />
            <staff>2</staff>
         </note>
      </measure>
      <measure number="35">
         <note>
            <pitch>
               <step>G</step>
               <octave>5</octave>
            </pitch>
            <duration>3</duration>
            <type>quarter</type>
            <dot />
            <staff>1</staff>
         </note>
         <note>
            <pitch>
               <step>G</step>
               <octave>5</octave>
            </pitch>
            <duration>2</duration>
            <type>quarter</type>
            <staff>1</staff>
         </note>
         <note>
            <pitch>
               <step>F</step>
               <octave>5</octave>
            </pitch>
            <duration>1</duration>
            <type>eighth</type>
            <staff>1</staff>
         </note>
         <backup>
            <duration>6</duration>
         </backup>
         <note>
            <pitch>
               <step>G</step>
               <octave>4</octave>
            </pitch>
            <duration>1</duration>
            <type>eighth</type>
            <staff>2</staff>
            <beam number="1">begin</beam>
         </note>
         <note>
            <pitch>
               <step>D</step>
               <octave>5</octave>
            </pitch>
            <duration>1</duration>
            <type>eighth</type>
            <staff>2</staff>
            <beam number="1">continue</beam>
         </note>
         <note>
            <pitch>
               <step>G</step>
               <octave>5</octave>
            </pitch>
            <duration>1</duration>
            <type>eighth</type>
            <staff>2</staff>
            <beam number="1">end</beam>
         </note>
         <note>
            <rest />
            <duration>3</duration>
            <type>quarter</type>
            <dot />
            <staff>2</staff>
         </note>
      </measure>
      <measure number="36">
         <note>
            <pitch>
               <step>E</step>
               <octave>5</octave>
            </pitch>
            <duration>3</duration>
            <type>quarter</type>
            <dot />
            <staff>1</staff>
         </note>
         <note>
            <pitch>
               <step>E</step>
               <octave>5</octave>
            </pitch>
            <duration>2</duration>
            <type>quarter</type>
            <staff>1</staff>
         </note>
         <note>
            <pitch>
               <step>D</step>
               <octave>5</octave>
            </pitch>
            <duration>1</duration>
            <type>eighth</type>
            <staff>1</staff>
         </note>
         <backup>
            <duration>6</duration>
         </backup>
         <note>
            <pitch>
               <step>E</step>
               <octave>4</octave>
            </pitch>
            <duration>1</duration>
            <type>eighth</type>
            <staff>2</staff>
            <beam number="1">begin</beam>
         </note>
         <note>
            <pitch>
               <step>B</step>
               <octave>4</octave>
            </pitch>
            <duration>1</duration>
            <type>eighth</type>
            <staff>2</staff>
            <beam number="1">continue</beam>
         </note>
         <note>
            <pitch>
               <step>E</step>
               <octave>5</octave>
            </pitch>
            <duration>1</duration>
            <type>eighth</type>
            <staff>2</staff>
            <beam number="1">end</beam>
         </note>
         <note>
            <rest />
            <duration>3</duration>
            <type>quarter</type>
            <dot />
            <staff>2</staff>
         </note>
      </measure>
      <measure number="37">
         <note>
            <pitch>
               <step>C</step>
               <octave>5</octave>
            </pitch>
            <duration>3</duration>
            <type>quarter</type>
            <dot />
            <staff>1</staff>
         </note>
         <note>
            <pitch>
               <step>C</step>
               <octave>5</octave>
            </pitch>
            <duration>2</duration>
            <type>quarter</type>
            <staff>1</staff>
         </note>
         <note>
            <pitch>
               <step>C</step>
               <octave>6</octave>
            </pitch>
            <duration>1</duration>
            <type>eighth</type>
            <staff>1</staff>
         </note>
         <backup>
            <duration>6</duration>
         </backup>
         <note>
            <pitch>
               <step>A</step>
               <octave>4</octave>
            </pitch>
            <duration>1</duration>
            <type>eighth</type>
            <staff>2</staff>
            <beam number="1">begin</beam>
         </note>
         <note>
            <pitch>
               <step>E</step>
               <octave>5</octave>
            </pitch>
            <duration>1</duration>
            <type>eighth</type>
            <staff>2</staff>
            <beam number="1">continue</beam>
         </note>
         <note>
            <pitch>
               <step>A</step>
               <octave>5</octave>
            </pitch>
            <duration>1</duration>
            <type>eighth</type>
            <staff>2</staff>
            <beam number="1">end</beam>
         </note>
         <note>
            <rest />
            <duration>3</duration>
            <type>quarter</type>
            <dot />
            <staff>2</staff>
         </note>
      </measure>
      <measure number="38">
         <note>
            <pitch>
               <step>A</step>
               <octave>5</octave>
            </pitch>
            <duration>3</duration>
            <type>quarter</type>
            <dot />
            <staff>1</staff>
         </note>
         <note>
            <pitch>
               <step>A</step>
               <octave>5</octave>
            </pitch>
            <duration>2</duration>
            <type>quarter</type>
            <staff>1</staff>
         </note>
         <note>
            <pitch>
               <step>G</step>
               <octave>5</octave>
            </pitch>
            <duration>1</duration>
            <type>eighth</type>
            <staff>1</staff>
         </note>
         <backup>
            <duration>6</duration>
         </backup>
         <note>
            <pitch>
               <step>F</step>
               <octave>4</octave>
            </pitch>
            <duration>1</duration>
            <type>eighth</type>
            <staff>2</staff>
            <beam number="1">begin</beam>
         </note>
         <note>
            <pitch>
               <step>C</step>
               <octave>5</octave>
            </pitch>
            <duration>1</duration>
            <type>eighth</type>
            <staff>2</staff>
            <beam number="1">continue</beam>
         </note>
         <note>
            <pitch>
               <step>F</step>
               <octave>5</octave>
            </pitch>
            <duration>1</duration>
            <type>eighth</type>
            <staff>2</staff>
            <beam number="1">end</beam>
         </note>
         <note>
            <rest />
            <duration>3</duration>
            <type>quarter</type>
            <dot />
            <staff>2</staff>
         </note>
      </measure>
      <measure number="39">
         <note>
            <pitch>
               <step>G</step>
               <octave>5</octave>
            </pitch>
            <duration>3</duration>
            <type>quarter</type>
            <dot />
            <staff>1</staff>
         </note>
         <note>
            <pitch>
               <step>D</step>
               <octave>5</octave>
            </pitch>
            <duration>2</duration>
            <type>quarter</type>
            <staff>1</staff>
         </note>
         <note>
            <pitch>
               <step>E</step>
               <octave>5</octave>
            </pitch>
            <duration>1</duration>
            <type>eighth</type>
            <staff>1</staff>
         </note>
         <backup>
            <duration>6</duration>
         </backup>
         <note>
            <pitch>
               <step>G</step>
               <octave>4</octave>
            </pitch>
            <duration>1</duration>
            <type>eighth</type>
            <staff>2</staff>
            <beam number="1">begin</beam>
         </note>
         <note>
            <pitch>
               <step>D</step>
               <octave>5</octave>
            </pitch>
            <duration>1</duration>
            <type>eighth</type>
            <staff>2</staff>
            <beam number="1">continue</beam>
         </note>
         <note>
            <pitch>
               <step>G</step>
               <octave>5</octave>
            </pitch>
            <duration>1</duration>
            <type>eighth</type>
            <staff>2</staff>
            <beam number="1">end</beam>
         </note>
         <note>
            <rest />
            <duration>3</duration>
            <type>quarter</type>
            <dot />
            <staff>2</staff>
         </note>
      </measure>
      <measure number="40">
         <note>
            <pitch>
               <step>E</step>
               <octave>5</octave>
            </pitch>
            <duration>3</duration>
            <tie type="start" />
            <type>quarter</type>
            <dot />
            <staff>1</staff>
            <notations>
               <tied type="start" />
            </notations>
         </note>
         <note>
            <pitch>
               <step>E</step>
               <octave>5</octave>
            </pitch>
            <duration>3</duration>
            <tie type="stop" />
            <type>quarter</type>
            <dot />
            <staff>1</staff>
            <notations>
               <tied type="stop" />
            </notations>
         </note>
         <backup>
            <duration>6</duration>
         </backup>
         <note>
            <pitch>
               <step>C</step>
               <octave>4</octave>
            </pitch>
            <duration>1</duration>
            <type>eighth</type>
            <staff>2</staff>
            <beam number="1">begin</beam>
         </note>
         <note>
            <pitch>
               <step>G</step>
               <octave>4</octave>
            </pitch>
            <duration>1</duration>
            <type>eighth</type>
            <staff>2</staff>
            <beam number="1">continue</beam>
         </note>
         <note>
            <pitch>
               <step>C</step>
               <octave>5</octave>
            </pitch>
            <duration>1</duration>
            <type>eighth</type>
            <staff>2</staff>
            <beam number="1">end</beam>
         </note>
         <note>
            <pitch>
               <step>E</step>
               <octave>5</octave>
            </pitch>
            <duration>1</duration>
            <type>eighth</type>
            <staff>2</staff>
            <beam number="1">begin</beam>
         </note>
         <note>
            <pitch>
               <step>G</step>
               <octave>5</octave>
            </pitch>
            <duration>1</duration>
            <type>eighth</type>
            <staff>2</staff>
            <beam number="1">continue</beam>
         </note>
         <note>
            <pitch>
               <step>E</step>
               <octave>5</octave>
            </pitch>
            <duration>1</duration>
            <type>eighth</type>
            <staff>2</staff>
            <beam number="1">end</beam>
         </note>
      </measure>
      <measure number="41">
         <note>
            <rest />
            <duration>3</duration>
            <type>quarter</type>
            <dot />
            <staff>1</staff>
         </note>
         <note>
            <pitch>
               <step>C</step>
               <octave>6</octave>
            </pitch>
            <duration>1</duration>
            <type>eighth</type>
            <staff>1</staff>
            <beam number="1">begin</beam>
         </note>
         <note>
            <pitch>
               <step>C</step>
               <octave>6</octave>
            </pitch>
            <duration>1</duration>
            <type>eighth</type>
            <staff>1</staff>
            <beam number="1">continue</beam>
         </note>
         <note>
            <pitch>
               <step>B</step>
               <octave>5</octave>
            </pitch>
            <duration>1</duration>
            <type>eighth</type>
            <staff>1</staff>
            <beam number="1">end</beam>
         </note>
         <backup>
            <duration>6</duration>
         </backup>
         <note>
            <pitch>
               <step>C</step>
               <octave>5</octave>
            </pitch>
            <duration>3</duration>
            <type>quarter</type>
            <dot />
            <staff>2</staff>
         </note>
         <note>
            <rest />
            <duration>3</duration>
            <type>quarter</type>
            <dot />
            <staff>2</staff>
         </note>
      </measure>
      <measure number="42">
         <note>
            <pitch>
               <step>A</step>
               <octave>5</octave>
            </pitch>
            <duration>3</duration>
            <type>quarter</type>
            <dot />
            <staff>1</staff>
         </note>
         <note>
            <pitch>
               <step>A</step>
               <octave>5</octave>
            </pitch>
            <duration>2</duration>
            <type>quarter</type>
            <staff>1</staff>
         </note>
         <note>
            <pitch>
               <step>G</step>
               <octave>5</octave>
            </pitch>
            <duration>1</duration>
            <type>eighth</type>
            <staff>1</staff>
         </note>
         <backup>
            <duration>6</duration>
         </backup>
         <note>
            <pitch>
               <step>F</step>
               <octave>4</octave>
            </pitch>
            <duration>1</duration>
            <type>eighth</type>
            <staff>2</staff>
            <beam number="1">begin</beam>
         </note>
         <note>
            <pitch>
               <step>C</step>
               <octave>5</octave>
            </pitch>
            <duration>1</duration>
            <type>eighth</type>
            <staff>2</staff>
            <beam number="1">continue</beam>
         </note>
         <note>
            <pitch>
               <step>F</step>
               <octave>5</octave>
            </pitch>
            <duration>1</duration>
            <type>eighth</type>
            <staff>2</staff>
            <beam number="1">end</beam>
         </note>
         <note>
            <rest />
            <duration>3</duration>
            <type>quarter</type>
            <dot />
            <staff>2</staff>
         </note>
      </measure>
      <measure number="43">
         <note>
            <pitch>
               <step>G</step>
               <octave>5</octave>
            </pitch>
            <duration>3</duration>
            <type>quarter</type>
            <dot />
            <staff>1</staff>
         </note>
         <note>
            <pitch>
               <step>G</step>
               <octave>5</octave>
            </pitch>
            <duration>2</duration>
            <type>quarter</type>
            <staff>1</staff>
         </note>
         <note>
            <pitch>
               <step>F</step>
               <octave>5</octave>
            </pitch>
            <duration>1</duration>
            <type>eighth</type>
            <staff>1</staff>
         </note>
         <backup>
            <duration>6</duration>
         </backup>
         <note>
            <pitch>
               <step>G</step>
               <octave>4</octave>
            </pitch>
            <duration>1</duration>
            <type>eighth</type>
            <staff>2</staff>
            <beam number="1">begin</beam>
         </note>
         <note>
            <pitch>
               <step>D</step>
               <octave>5</octave>
            </pitch>
            <duration>1</duration>
            <type>eighth</type>
            <staff>2</staff>
            <beam number="1">continue</beam>
         </note>
         <note>
            <pitch>
               <step>G</step>
               <octave>5</octave>
            </pitch>
            <duration>1</duration>
            <type>eighth</type>
            <staff>2</staff>
            <beam number="1">end</beam>
         </note>
         <note>
            <rest />
            <duration>3</duration>
            <type>quarter</type>
            <dot />
            <staff>2</staff>
         </note>
      </measure>
      <measure number="44">
         <note>
            <pitch>
               <step>E</step>
               <octave>5</octave>
            </pitch>
            <duration>3</duration>
            <type>quarter</type>
            <dot />
            <staff>1</staff>
         </note>
         <note>
            <pitch>
               <step>E</step>
               <octave>5</octave>
            </pitch>
            <duration>2</duration>
            <type>quarter</type>
            <staff>1</staff>
         </note>
         <note>
            <pitch>
               <step>D</step>
               <octave>5</octave>
            </pitch>
            <duration>1</duration>
            <type>eighth</type>
            <staff>1</staff>
         </note>
         <backup>
            <duration>6</duration>
         </backup>
         <note>
            <pitch>
               <step>E</step>
               <octave>4</octave>
            </pitch>
            <duration>1</duration>
            <type>eighth</type>
            <staff>2</staff>
            <beam number="1">begin</beam>
         </note>
         <note>
            <pitch>
               <step>B</step>
               <octave>4</octave>
            </pitch>
            <duration>1</duration>
            <type>eighth</type>
            <staff>2</staff>
            <beam number="1">continue</beam>
         </note>
         <note>
            <pitch>
               <step>E</step>
               <octave>5</octave>
            </pitch>
            <duration>1</duration>
            <type>eighth</type>
            <staff>2</staff>
            <beam number="1">end</beam>
         </note>
         <note>
            <rest />
            <duration>3</duration>
            <type>quarter</type>
            <dot />
            <staff>2</staff>
         </note>
      </measure>
      <measure number="45">
         <note>
            <pitch>
               <step>C</step>
               <octave>5</octave>
            </pitch>
            <duration>3</duration>
            <type>quarter</type>
            <dot />
            <staff>1</staff>
         </note>
         <note>
            <pitch>
               <step>C</step>
               <octave>5</octave>
            </pitch>
            <duration>1</duration>
            <type>eighth</type>
            <staff>1</staff>
            <beam number="1">begin</beam>
         </note>
         <note>
            <pitch>
               <step>D</step>
               <octave>5</octave>
            </pitch>
            <duration>1</duration>
            <type>eighth</type>
            <staff>1</staff>
            <beam number="1">continue</beam>
         </note>
         <note>
            <pitch>
               <step>E</step>
               <octave>5</octave>
            </pitch>
            <duration>1</duration>
            <type>eighth</type>
            <staff>1</staff>
            <beam number="1">end</beam>
         </note>
         <backup>
            <duration>6</duration>
         </backup>
         <note>
            <pitch>
               <step>A</step>
               <octave>4</octave>
            </pitch>
            <duration>1</duration>
            <type>eighth</type>
            <staff>2</staff>
            <beam number="1">begin</beam>
         </note>
         <note>
            <pitch>
               <step>E</step>
               <octave>5</octave>
            </pitch>
            <duration>1</duration>
            <type>eighth</type>
            <staff>2</staff>
            <beam number="1">continue</beam>
         </note>
         <note>
            <pitch>
               <step>A</step>
               <octave>5</octave>
            </pitch>
            <duration>1</duration>
            <type>eighth</type>
            <staff>2</staff>
            <beam number="1">end</beam>
         </note>
         <note>
            <rest />
            <duration>3</duration>
            <type>quarter</type>
            <dot />
            <staff>2</staff>
         </note>
      </measure>
      <measure number="46">
         <note>
            <pitch>
               <step>D</step>
               <octave>5</octave>
            </pitch>
            <duration>3</duration>
            <type>quarter</type>
            <dot />
            <staff>1</staff>
         </note>
         <note>
            <pitch>
               <step>D</step>
               <octave>5</octave>
            </pitch>
            <duration>2</duration>
            <type>quarter</type>
            <staff>1</staff>
         </note>
         <note>
            <pitch>
               <step>A</step>
               <octave>5</octave>
            </pitch>
            <duration>1</duration>
            <type>eighth</type>
            <staff>1</staff>
         </note>
         <backup>
            <duration>6</duration>
         </backup>
         <note>
            <pitch>
               <step>D</step>
               <octave>4</octave>
            </pitch>
            <duration>1</duration>
            <type>eighth</type>
            <staff>2</staff>
            <beam number="1">begin</beam>
         </note>
         <note>
            <pitch>
               <step>A</step>
               <octave>4</octave>
            </pitch>
            <duration>1</duration>
            <type>eighth</type>
            <staff>2</staff>
            <beam number="1">continue</beam>
         </note>
         <note>
            <pitch>
               <step>D</step>
               <octave>5</octave>
            </pitch>
            <duration>1</duration>
            <type>eighth</type>
            <staff>2</staff>
            <beam number="1">end</beam>
         </note>
         <note>
            <rest />
            <duration>3</duration>
            <type>quarter</type>
            <dot />
            <staff>2</staff>
         </note>
      </measure>
      <measure number="47">
         <note>
            <pitch>
               <step>G</step>
               <octave>5</octave>
            </pitch>
            <duration>3</duration>
            <type>quarter</type>
            <dot />
            <staff>1</staff>
         </note>
         <note>
            <pitch>
               <step>E</step>
               <octave>5</octave>
            </pitch>
            <duration>2</duration>
            <type>quarter</type>
            <staff>1</staff>
         </note>
         <note>
            <pitch>
               <step>D</step>
               <octave>5</octave>
            </pitch>
            <duration>1</duration>
            <type>eighth</type>
            <staff>1</staff>
         </note>
         <backup>
            <duration>6</duration>
         </backup>
         <note>
            <pitch>
               <step>G</step>
               <octave>4</octave>
            </pitch>
            <duration>1</duration>
            <type>eighth</type>
            <staff>2</staff>
            <beam number="1">begin</beam>
         </note>
         <note>
            <pitch>
               <step>D</step>
               <octave>5</octave>
            </pitch>
            <duration>1</duration>
            <type>eighth</type>
            <staff>2</staff>
            <beam number="1">continue</beam>
         </note>
         <note>
            <pitch>
               <step>G</step>
               <octave>5</octave>
            </pitch>
            <duration>1</duration>
            <type>eighth</type>
            <staff>2</staff>
            <beam number="1">end</beam>
         </note>
         <note>
            <rest />
            <duration>3</duration>
            <type>quarter</type>
            <dot />
            <staff>2</staff>
         </note>
      </measure>
      <measure number="48">
         <note>
            <pitch>
               <step>C</step>
               <octave>5</octave>
            </pitch>
            <duration>6</duration>
            <type>half</type>
            <dot />
            <staff>1</staff>
         </note>
         <backup>
            <duration>6</duration>
         </backup>
         <note>
            <pitch>
               <step>C</step>
               <octave>4</octave>
            </pitch>
            <duration>1</duration>
            <type>eighth</type>
            <staff>2</staff>
            <beam number="1">begin</beam>
         </note>
         <note>
            <pitch>
               <step>G</step>
               <octave>4</octave>
            </pitch>
            <duration>1</duration>
            <type>eighth</type>
            <staff>2</staff>
            <beam number="1">continue</beam>
         </note>
         <note>
            <pitch>
               <step>C</step>
               <octave>5</octave>
            </pitch>
            <duration>1</duration>
            <type>eighth</type>
            <staff>2</staff>
            <beam number="1">end</beam>
         </note>
         <note>
            <pitch>
               <step>E</step>
               <octave>5</octave>
            </pitch>
            <duration>1</duration>
            <type>eighth</type>
            <staff>2</staff>
            <beam number="1">begin</beam>
         </note>
         <note>
            <pitch>
               <step>C</step>
               <octave>5</octave>
            </pitch>
            <duration>1</duration>
            <type>eighth</type>
            <staff>2</staff>
            <beam number="1">continue</beam>
         </note>
         <note>
            <pitch>
               <step>G</step>
               <octave>4</octave>
            </pitch>
            <duration>1</duration>
            <type>eighth</type>
            <staff>2</staff>
            <beam number="1">end</beam>
         </note>
      </measure>
      <measure number="49">
         <note>
            <rest measure="yes" />
            <duration>6</duration>
            <staff>1</staff>
         </note>
         <backup>
            <duration>6</duration>
         </backup>
         <note>
            <pitch>
               <step>C</step>
               <octave>4</octave>
            </pitch>
            <duration>6</duration>
            <type>half</type>
            <dot />
            <staff>2</staff>
         </note>
         <note>
            <chord />
            <pitch>
               <step>G</step>
               <octave>4</octave>
            </pitch>
            <duration>6</duration>
            <type>half</type>
            <dot />
            <staff>2</staff>
         </note>
         <note>
            <chord />
            <pitch>
               <step>C</step>
               <octave>5</octave>
            </pitch>
            <duration>6</duration>
            <type>half</type>
            <dot />
            <staff>2</staff>
         </note>
         <barline location="right">
            <bar-style>light-heavy</bar-style>
         </barline>
      </measure>
   </part>
</score-partwise>