<?xml version="1.0" encoding="UTF-8" standalone="no"?>
<score-partwise xmlns:xsi="http://www.w3.org/2001/XMLSchema-instance" xmlns="http://www.musicxml.org/xsd/MusicXML" xsi:schemaLocation="http://www.musicxml.org/xsd/MusicXML https://i.kinwaa.cn/schema/musicxml-4.0/musicxml.xsd" version="4.0"><work><work-number>Where cross the crowded ways of life</work-number><work-title>生命路程</work-title></work><identification><creator type="composer">选自William Gardiner Sacred Melodies(1815)</creator><creator type="lyricist">Frank M. North编词(1903)&#x000A;刘廷芳 杨荫浏译(1933)</creator><rights>天乐诗班 2024年10月6日 献</rights></identification><part-list><part-group number="1" type="start"><group-symbol>bracket</group-symbol><group-barline>no</group-barline></part-group><score-part id="P1"><part-name/><score-instrument id="P1-I1"><instrument-name>Women</instrument-name><instrument-sound>voice.female</instrument-sound></score-instrument><midi-device id="P1-I1" port="1"/><midi-instrument id="P1-I1"><midi-channel>1</midi-channel><midi-program>53</midi-program><volume>78.7402</volume><pan>0</pan></midi-instrument></score-part><score-part id="P2"><part-name/><score-instrument id="P2-I1"><instrument-name>Men</instrument-name><instrument-sound>voice.male</instrument-sound></score-instrument><midi-device id="P2-I1" port="1"/><midi-instrument id="P2-I1"><midi-channel>3</midi-channel><midi-program>53</midi-program><volume>78.7402</volume><pan>0</pan></midi-instrument></score-part><part-group number="1" type="stop"/></part-list><part id="P1"><measure number="1"><attributes><divisions>2</divisions><key><fifths>-2</fifths></key><time><beats>3</beats><beat-type>4</beat-type></time><clef><sign>G</sign><line>2</line></clef></attributes><note><pitch><step>F</step><octave>4</octave></pitch><duration>2</duration><voice>1</voice><type>quarter</type><lyric number="1"><text>1.生</text></lyric><lyric number="2"><text>2.遭</text></lyric><lyric number="3"><text>3.彷</text></lyric><lyric number="4"><text>4.奉</text></lyric><lyric number="5"><text>5.救</text></lyric><lyric number="6"><text>6.直</text></lyric></note><note><pitch><step>B</step><alter>-1</alter><octave>4</octave></pitch><duration>2</duration><voice>1</voice><type>quarter</type><lyric number="1"><text>命</text></lyric><lyric number="2"><text>遇</text></lyric><lyric number="3"><text>徨</text></lyric><lyric number="4"><text>主</text></lyric><lyric number="5"><text>主，</text></lyric><lyric number="6"><text>到</text></lyric></note><note><pitch><step>A</step><octave>4</octave></pitch><duration>2</duration><voice>1</voice><type>quarter</type><lyric number="1"><text>路</text></lyric><lyric number="2"><text>困</text></lyric><lyric number="3"><text>柔</text></lyric><lyric number="4"><text>之</text></lyric><lyric number="5"><text>求</text></lyric><lyric number="6"><text>人</text></lyric></note><backup><duration>6</duration></backup><note><pitch><step>D</step><octave>4</octave></pitch><duration>2</duration><voice>2</voice><type>quarter</type></note><note><pitch><step>F</step><octave>4</octave></pitch><duration>2</duration><voice>2</voice><type>quarter</type></note><note><pitch><step>E</step><alter>-1</alter><octave>4</octave></pitch><duration>2</duration><voice>2</voice><type>quarter</type></note></measure><measure number="2"><note><pitch><step>B</step><alter>-1</alter><octave>4</octave></pitch><duration>4</duration><voice>1</voice><type>half</type><lyric number="1"><text>程</text></lyric><lyric number="2"><text>苦，</text></lyric><lyric number="3"><text>弱</text></lyric><lyric number="4"><text>名，</text></lyric><lyric number="5"><text>你</text></lyric><lyric number="6"><text>群</text></lyric></note><note><pitch><step>C</step><octave>5</octave></pitch><duration>2</duration><voice>1</voice><type>quarter</type><lyric number="1"><text>分</text></lyric><lyric number="2"><text>历</text></lyric><lyric number="3"><text>无</text></lyric><lyric number="4"><text>杯</text></lyric><lyric number="5"><text>快</text></lyric><lyric number="6"><text>了</text></lyric></note><backup><duration>6</duration></backup><note><pitch><step>F</step><octave>4</octave></pitch><duration>4</duration><voice>2</voice><type>half</type></note><note><pitch><step>C</step><octave>4</octave></pitch><duration>2</duration><voice>2</voice><type>quarter</type></note></measure><measure number="3"><note><pitch><step>F</step><octave>4</octave></pitch><duration>2</duration><voice>1</voice><type>quarter</type><notations><slur number="1" type="start"/></notations><lyric number="1"><text>歧</text></lyric><lyric number="2"><text>经</text></lyric><lyric number="3"><text>助</text></lyric><lyric number="4"><text>水</text></lyric><lyric number="5"><text>快</text></lyric><lyric number="6"><text>解</text></lyric></note><note><pitch><step>G</step><octave>4</octave></pitch><duration>2</duration><voice>1</voice><type>quarter</type><notations><slur number="1" type="stop"/></notations></note><note><pitch><step>A</step><octave>4</octave></pitch><duration>2</duration><voice>1</voice><type>quarter</type><lyric number="1"><text>之</text></lyric><lyric number="2"><text>艰</text></lyric><lyric number="3"><text>孩</text></lyric><lyric number="4"><text>济</text></lyric><lyric number="5"><text>来</text></lyric><lyric number="6"><text>主</text></lyric></note><backup><duration>6</duration></backup><note><pitch><step>E</step><alter>-1</alter><octave>4</octave></pitch><duration>4</duration><voice>2</voice><type>half</type></note><note><pitch><step>E</step><alter>-1</alter><octave>4</octave></pitch><duration>2</duration><voice>2</voice><type>quarter</type></note></measure><measure number="4"><note><pitch><step>B</step><alter>-1</alter><octave>4</octave></pitch><duration>6</duration><voice>1</voice><type>half</type><dot/><lyric number="1"><text>处，</text></lyric><lyric number="2"><text>辛，</text></lyric><lyric number="3"><text>童，</text></lyric><lyric number="4"><text>人，</text></lyric><lyric number="5"><text>临，</text></lyric><lyric number="6"><text>爱，</text></lyric></note><backup><duration>6</duration></backup><note><pitch><step>D</step><octave>4</octave></pitch><duration>6</duration><voice>2</voice><type>half</type><dot/></note></measure><measure number="5"><note><pitch><step>B</step><alter>-1</alter><octave>4</octave></pitch><duration>2</duration><voice>1</voice><type>quarter</type><lyric number="1"><text>种</text></lyric><lyric number="2"><text>身</text></lyric><lyric number="3"><text>忧</text></lyric><lyric number="4"><text>彰</text></lyric><lyric number="5"><text>医</text></lyric><lyric number="6"><text>跟</text></lyric></note><note><pitch><step>A</step><octave>4</octave></pitch><duration>2</duration><voice>1</voice><type>quarter</type><lyric number="1"><text>族、</text></lyric><lyric number="2"><text>处</text></lyric><lyric number="3"><text>伤</text></lyric><lyric number="4"><text>显</text></lyric><lyric number="5"><text>治</text></lyric><lyric number="6"><text>随</text></lyric></note><note><pitch><step>G</step><octave>4</octave></pitch><duration>2</duration><voice>1</voice><type>quarter</type><lyric number="1"><text>阶</text></lyric><lyric number="2"><text>黑</text></lyric><lyric number="3"><text>众</text></lyric><lyric number="4"><text>我</text></lyric><lyric number="5"><text>世</text></lyric><lyric number="6"><text>我</text></lyric></note><backup><duration>6</duration></backup><note><pitch><step>E</step><octave>4</octave></pitch><duration>2</duration><voice>2</voice><type>quarter</type><accidental>natural</accidental></note><note><pitch><step>F</step><octave>4</octave></pitch><duration>2</duration><voice>2</voice><type>quarter</type></note><note><pitch><step>E</step><octave>4</octave></pitch><duration>2</duration><voice>2</voice><type>quarter</type></note></measure><measure number="6"><note><pitch><step>C</step><octave>5</octave></pitch><duration>4</duration><voice>1</voice><type>half</type><lyric number="1"><text>层</text></lyric><lyric number="2"><text>暗</text></lyric><lyric number="3"><text>生</text></lyric><lyric number="4"><text>主</text></lyric><lyric number="5"><text>界</text></lyric><lyric number="6"><text>主</text></lyric></note><note><pitch><step>A</step><octave>4</octave></pitch><duration>2</duration><voice>1</voice><type>quarter</type><lyric number="1"><text>喧</text></lyric><lyric number="2"><text>惊</text></lyric><lyric number="3"><text>劳</text></lyric><lyric number="4"><text>日</text></lyric><lyric number="5"><text>痛</text></lyric><lyric number="6"><text>脚</text></lyric></note><backup><duration>6</duration></backup><note><pitch><step>F</step><octave>4</octave></pitch><duration>4</duration><voice>2</voice><type>half</type></note><note><pitch><step>F</step><octave>4</octave></pitch><duration>2</duration><voice>2</voice><type>quarter</type></note></measure><measure number="7"><note><pitch><step>A</step><octave>4</octave></pitch><duration>1</duration><voice>1</voice><type>eighth</type><notations><slur number="1" type="start"/></notations><lyric number="1"><text>闹</text></lyric><lyric number="2"><text>恐</text></lyric><lyric number="3"><text>累</text></lyric><lyric number="4"><text>新</text></lyric><lyric number="5"><text>苦</text></lyric><lyric number="6"><text>踪</text></lyric></note><note><pitch><step>G</step><octave>4</octave></pitch><duration>1</duration><voice>1</voice><type>eighth</type></note><note><pitch><step>F</step><octave>4</octave></pitch><duration>2</duration><voice>1</voice><type>quarter</type><notations><slur number="1" type="stop"/></notations></note><note><pitch><step>E</step><octave>4</octave></pitch><duration>2</duration><voice>1</voice><type>quarter</type><accidental>natural</accidental><lyric number="1"><text>纷</text></lyric><lyric number="2"><text>之</text></lyric><lyric number="3"><text>负</text></lyric><lyric number="4"><text>恩</text></lyric><lyric number="5"><text>心</text></lyric><lyric number="6"><text>前</text></lyric></note><backup><duration>6</duration></backup><note><pitch><step>D</step><octave>4</octave></pitch><duration>2</duration><voice>2</voice><type>quarter</type></note><note><pitch><step>C</step><octave>4</octave></pitch><duration>2</duration><voice>2</voice><type>quarter</type></note><note><pitch><step>C</step><octave>4</octave></pitch><duration>2</duration><voice>2</voice><type>quarter</type></note></measure><measure number="8"><note><pitch><step>F</step><octave>4</octave></pitch><duration>4</duration><voice>1</voice><type>half</type><lyric number="1"><text>纷，</text></lyric><lyric number="2"><text>中，</text></lyric><lyric number="3"><text>重，</text></lyric><lyric number="4"><text>宠，</text></lyric><lyric number="5"><text>灵，</text></lyric><lyric number="6"><text>行，</text></lyric></note><note><pitch><step>F</step><octave>4</octave></pitch><duration>2</duration><voice>1</voice><type>quarter</type><lyric number="1"><text>我</text></lyric><lyric number="2"><text>我</text></lyric><lyric number="3"><text>饥</text></lyric><lyric number="4"><text>千</text></lyric><lyric number="5"><text>深</text></lyric><lyric number="6"><text>荣</text></lyric></note><backup><duration>6</duration></backup><note><pitch><step>C</step><octave>4</octave></pitch><duration>4</duration><voice>2</voice><type>half</type></note><note><pitch><step>D</step><octave>4</octave></pitch><duration>2</duration><voice>2</voice><type>quarter</type></note></measure><measure number="9"><note><pitch><step>F</step><octave>4</octave></pitch><duration>4</duration><voice>1</voice><type>half</type><lyric number="1"><text>从</text></lyric><lyric number="2"><text>从</text></lyric><lyric number="3"><text>渴</text></lyric><lyric number="4"><text>万</text></lyric><lyric number="5"><text>入</text></lyric><lyric number="6"><text>耀</text></lyric></note><note><pitch><step>B</step><alter>-1</alter><octave>4</octave></pitch><duration>2</duration><voice>1</voice><type>quarter</type><lyric number="1"><text>私</text></lyric><lyric number="2"><text>贪</text></lyric><lyric number="3"><text>心</text></lyric><lyric number="4"><text>群</text></lyric><lyric number="5"><text>烦</text></lyric><lyric number="6"><text>之</text></lyric></note><backup><duration>6</duration></backup><note><pitch><step>D</step><octave>4</octave></pitch><duration>4</duration><voice>2</voice><type>half</type></note><note><pitch><step>D</step><octave>4</octave></pitch><duration>2</duration><voice>2</voice><type>quarter</type></note></measure><measure number="10"><note><pitch><step>B</step><alter>-1</alter><octave>4</octave></pitch><duration>2</duration><voice>1</voice><type>quarter</type><notations><slur number="1" type="start"/></notations><lyric number="1"><text>利</text></lyric><lyric number="2"><text>欲</text></lyric><lyric number="3"><text>灵，</text></lyric><lyric number="4"><text>众</text></lyric><lyric number="5"><text>闷</text></lyric><lyric number="6"><text>光</text></lyric></note><note><pitch><step>A</step><octave>4</octave></pitch><duration>2</duration><voice>1</voice><type>quarter</type><notations><slur number="1" type="stop"/></notations></note><note><pitch><step>G</step><octave>4</octave></pitch><duration>2</duration><voice>1</voice><type>quarter</type><lyric number="1"><text>争</text></lyric><lyric number="2"><text>诱</text></lyric><lyric number="3"><text>重</text></lyric><lyric number="4"><text>仍</text></lyric><lyric number="5"><text>人</text></lyric><lyric number="6"><text>到</text></lyric></note><backup><duration>6</duration></backup><note><pitch><step>E</step><alter>-1</alter><octave>4</octave></pitch><duration>4</duration><voice>2</voice><type>half</type></note><note><pitch><step>E</step><alter>-1</alter><octave>4</octave></pitch><duration>2</duration><voice>2</voice><type>quarter</type></note></measure><measure number="11"><note><pitch><step>F</step><octave>4</octave></pitch><duration>4</duration><voice>1</voice><type>half</type><lyric number="1"><text>斗</text></lyric><lyric number="2"><text>惑</text></lyric><lyric number="3"><text>压</text></lyric><lyric number="4"><text>在</text></lyric><lyric number="5"><text>群</text></lyric><lyric number="6"><text>时</text></lyric></note><note><pitch><step>D</step><octave>5</octave></pitch><duration>2</duration><voice>1</voice><type>quarter</type><lyric number="1"><text>声</text></lyric><lyric number="2"><text>路</text></lyric><lyric number="3"><text>苦</text></lyric><lyric number="4"><text>盼</text></lyric><lyric number="5"><text>中</text></lyric><lyric number="6"><text>显</text></lyric></note><backup><duration>6</duration></backup><note><pitch><step>D</step><octave>4</octave></pitch><duration>4</duration><voice>2</voice><type>half</type></note><note><pitch><step>F</step><octave>4</octave></pitch><duration>2</duration><voice>2</voice><type>quarter</type></note></measure><measure number="12"><note><pitch><step>D</step><octave>5</octave></pitch><duration>2</duration><voice>1</voice><type>quarter</type><notations><slur number="1" type="start"/></notations><lyric number="1"><text>中，</text></lyric><lyric number="2"><text>上，</text></lyric><lyric number="3"><text>痛，</text></lyric><lyric number="4"><text>望，</text></lyric><lyric number="5"><text>间，</text></lyric><lyric number="6"><text>明，</text></lyric></note><note><pitch><step>C</step><octave>5</octave></pitch><duration>2</duration><voice>1</voice><type>quarter</type><notations><slur number="1" type="stop"/></notations></note><note><pitch><step>B</step><alter>-1</alter><octave>4</octave></pitch><duration>2</duration><voice>1</voice><type>quarter</type><lyric number="1"><text>仿</text></lyric><lyric number="2"><text>仿</text></lyric><lyric number="3"><text>救</text></lyric><lyric number="4"><text>亲</text></lyric><lyric number="5"><text>踏</text></lyric><lyric number="6"><text>上</text></lyric></note><backup><duration>6</duration></backup><note><pitch><step>G</step><octave>4</octave></pitch><duration>4</duration><voice>2</voice><type>half</type></note><note><pitch><step>G</step><octave>4</octave></pitch><duration>2</duration><voice>2</voice><type>quarter</type></note></measure><measure number="13"><note><pitch><step>A</step><octave>4</octave></pitch><duration>4</duration><voice>1</voice><type>half</type><lyric number="1"><text>佛</text></lyric><lyric number="2"><text>佛</text></lyric><lyric number="3"><text>主</text></lyric><lyric number="4"><text>见</text></lyric><lyric number="5"><text>遍</text></lyric><lyric number="6"><text>主</text></lyric></note><note><pitch><step>E</step><alter>-1</alter><octave>5</octave></pitch><duration>2</duration><voice>1</voice><type>quarter</type><lyric number="1"><text>听</text></lyric><lyric number="2"><text>看</text></lyric><lyric number="3"><text>挚</text></lyric><lyric number="4"><text>上</text></lyric><lyric number="5"><text>街</text></lyric><lyric number="6"><text>之</text></lyric></note><backup><duration>6</duration></backup><note><pitch><step>F</step><octave>4</octave></pitch><duration>4</duration><voice>2</voice><type>half</type></note><note><pitch><step>A</step><octave>4</octave></pitch><duration>2</duration><voice>2</voice><type>quarter</type></note></measure><measure number="14"><note><pitch><step>E</step><alter>-1</alter><octave>5</octave></pitch><duration>2</duration><voice>1</voice><type>quarter</type><notations><slur number="1" type="start"/></notations><lyric number="1"><text>见</text></lyric><lyric number="2"><text>见</text></lyric><lyric number="3"><text>爱</text></lyric><lyric number="4"><text>主</text></lyric><lyric number="5"><text>巷</text></lyric><lyric number="6"><text>城</text></lyric></note><note><pitch><step>D</step><octave>5</octave></pitch><duration>2</duration><voice>1</voice><type>quarter</type><notations><slur number="1" type="stop"/></notations></note><note><pitch><step>C</step><octave>5</octave></pitch><duration>2</duration><voice>1</voice><type>quarter</type><lyric number="1"><text>我</text></lyric><lyric number="2"><text>我</text></lyric><lyric number="3"><text>从</text></lyric><lyric number="4"><text>怜</text></lyric><lyric number="5"><text>安</text></lyric><lyric number="6"><text>从</text></lyric></note><backup><duration>6</duration></backup><note><pitch><step>B</step><alter>-1</alter><octave>4</octave></pitch><duration>4</duration><voice>2</voice><type>half</type></note><note><pitch><step>G</step><octave>4</octave></pitch><duration>2</duration><voice>2</voice><type>quarter</type></note></measure><measure number="15"><note><pitch><step>B</step><alter>-1</alter><octave>4</octave></pitch><duration>2</duration><voice>1</voice><type>quarter</type><notations><slur number="1" type="start"/></notations><lyric number="1"><text>主</text></lyric><lyric number="2"><text>主</text></lyric><lyric number="3"><text>不</text></lyric><lyric number="4"><text>悯</text></lyric><lyric number="5"><text>慰</text></lyric><lyric number="6"><text>天</text></lyric></note><note><pitch><step>C</step><octave>5</octave></pitch><duration>2</duration><voice>1</voice><type>quarter</type><notations><slur number="1" type="stop"/></notations></note><note><pitch><step>A</step><octave>4</octave></pitch><duration>2</duration><voice>1</voice><type>quarter</type><lyric number="1"><text>慈</text></lyric><lyric number="2"><text>泪</text></lyric><lyric number="3"><text>放</text></lyric><lyric number="4"><text>慈</text></lyric><lyric number="5"><text>众</text></lyric><lyric number="6"><text>降</text></lyric></note><backup><duration>6</duration></backup><note><pitch><step>F</step><octave>4</octave></pitch><duration>4</duration><voice>2</voice><type>half</type></note><note><pitch><step>F</step><octave>4</octave></pitch><duration>2</duration><voice>2</voice><type>quarter</type></note></measure><measure number="16"><note><pitch><step>B</step><alter>-1</alter><octave>4</octave></pitch><duration>6</duration><voice>1</voice><type>half</type><dot/><lyric number="1"><text>声。</text></lyric><lyric number="2"><text>容。</text></lyric><lyric number="3"><text>松。</text></lyric><lyric number="4"><text>容。</text></lyric><lyric number="5"><text>民。</text></lyric><lyric number="6"><text>临。</text></lyric></note><backup><duration>6</duration></backup><note><pitch><step>F</step><octave>4</octave></pitch><duration>6</duration><voice>2</voice><type>half</type><dot/></note><barline location="right"><bar-style>light-heavy</bar-style></barline></measure><measure number="17"><note><pitch><step>B</step><alter>-1</alter><octave>4</octave></pitch><duration>6</duration><voice>1</voice><type>half</type><dot/><lyric number="6"><text>阿</text></lyric></note><backup><duration>6</duration></backup><note><pitch><step>G</step><octave>4</octave></pitch><duration>6</duration><voice>2</voice><type>half</type><dot/></note></measure><measure number="18"><note><pitch><step>B</step><alter>-1</alter><octave>4</octave></pitch><duration>6</duration><voice>1</voice><type>half</type><dot/><lyric number="6"><text>们。</text></lyric></note><backup><duration>6</duration></backup><note><pitch><step>F</step><octave>4</octave></pitch><duration>6</duration><voice>2</voice><type>half</type><dot/></note><barline location="right"><bar-style>light-heavy</bar-style></barline></measure></part><part id="P2"><measure number="1"><attributes><divisions>2</divisions><key><fifths>-2</fifths></key><time><beats>3</beats><beat-type>4</beat-type></time><clef><sign>F</sign><line>4</line></clef></attributes><note><pitch><step>B</step><alter>-1</alter><octave>3</octave></pitch><duration>2</duration><voice>1</voice><type>quarter</type></note><note><pitch><step>D</step><octave>4</octave></pitch><duration>2</duration><voice>1</voice><type>quarter</type></note><note><pitch><step>C</step><octave>4</octave></pitch><duration>2</duration><voice>1</voice><type>quarter</type></note><backup><duration>6</duration></backup><note><pitch><step>B</step><alter>-1</alter><octave>2</octave></pitch><duration>2</duration><voice>2</voice><type>quarter</type></note><note><pitch><step>B</step><alter>-1</alter><octave>2</octave></pitch><duration>2</duration><voice>2</voice><type>quarter</type></note><note><pitch><step>C</step><octave>3</octave></pitch><duration>2</duration><voice>2</voice><type>quarter</type></note></measure><measure number="2"><note><pitch><step>B</step><alter>-1</alter><octave>3</octave></pitch><duration>4</duration><voice>1</voice><type>half</type></note><note><pitch><step>G</step><octave>3</octave></pitch><duration>2</duration><voice>1</voice><type>quarter</type></note><backup><duration>6</duration></backup><note><pitch><step>D</step><octave>3</octave></pitch><duration>4</duration><voice>2</voice><type>half</type></note><note><pitch><step>E</step><alter>-1</alter><octave>3</octave></pitch><duration>2</duration><voice>2</voice><type>quarter</type></note></measure><measure number="3"><note><pitch><step>A</step><octave>3</octave></pitch><duration>2</duration><voice>1</voice><type>quarter</type><notations><slur number="1" type="start"/></notations></note><note><pitch><step>B</step><alter>-1</alter><octave>3</octave></pitch><duration>2</duration><voice>1</voice><type>quarter</type><notations><slur number="1" type="stop"/></notations></note><note><pitch><step>C</step><octave>4</octave></pitch><duration>2</duration><voice>1</voice><type>quarter</type></note><backup><duration>6</duration></backup><note><pitch><step>F</step><octave>3</octave></pitch><duration>4</duration><voice>2</voice><type>half</type></note><note><pitch><step>F</step><alter>1</alter><octave>3</octave></pitch><duration>2</duration><voice>2</voice><type>quarter</type><accidental>sharp</accidental></note></measure><measure number="4"><note><pitch><step>B</step><alter>-1</alter><octave>3</octave></pitch><duration>6</duration><voice>1</voice><type>half</type><dot/></note><backup><duration>6</duration></backup><note><pitch><step>G</step><octave>3</octave></pitch><duration>6</duration><voice>2</voice><type>half</type><dot/></note></measure><measure number="5"><note><pitch><step>G</step><octave>3</octave></pitch><duration>2</duration><voice>1</voice><type>quarter</type></note><note><pitch><step>C</step><octave>4</octave></pitch><duration>2</duration><voice>1</voice><type>quarter</type></note><note><pitch><step>C</step><octave>4</octave></pitch><duration>2</duration><voice>1</voice><type>quarter</type></note><backup><duration>6</duration></backup><note><pitch><step>C</step><octave>3</octave></pitch><duration>2</duration><voice>2</voice><type>quarter</type></note><note><pitch><step>C</step><octave>3</octave></pitch><duration>2</duration><voice>2</voice><type>quarter</type></note><note><pitch><step>B</step><alter>-1</alter><octave>2</octave></pitch><duration>2</duration><voice>2</voice><type>quarter</type></note></measure><measure number="6"><note><pitch><step>C</step><octave>4</octave></pitch><duration>4</duration><voice>1</voice><type>half</type></note><note><pitch><step>F</step><octave>3</octave></pitch><duration>2</duration><voice>1</voice><type>quarter</type></note><backup><duration>6</duration></backup><note><pitch><step>A</step><octave>2</octave></pitch><duration>4</duration><voice>2</voice><type>half</type></note><note><pitch><step>D</step><octave>3</octave></pitch><duration>2</duration><voice>2</voice><type>quarter</type></note></measure><measure number="7"><note><pitch><step>B</step><alter>-1</alter><octave>3</octave></pitch><duration>2</duration><voice>1</voice><type>quarter</type><notations><slur number="1" type="start"/></notations></note><note><pitch><step>A</step><octave>3</octave></pitch><duration>2</duration><voice>1</voice><type>quarter</type><notations><slur number="1" type="stop"/></notations></note><note><pitch><step>G</step><octave>3</octave></pitch><duration>2</duration><voice>1</voice><type>quarter</type></note><backup><duration>6</duration></backup><note><pitch><step>B</step><alter>-1</alter><octave>2</octave></pitch><duration>2</duration><voice>2</voice><type>quarter</type></note><note><pitch><step>C</step><octave>3</octave></pitch><duration>2</duration><voice>2</voice><type>quarter</type></note><note><pitch><step>C</step><octave>3</octave></pitch><duration>2</duration><voice>2</voice><type>quarter</type></note></measure><measure number="8"><note><pitch><step>A</step><octave>3</octave></pitch><duration>4</duration><voice>1</voice><type>half</type></note><note><pitch><step>B</step><alter>-1</alter><octave>3</octave></pitch><duration>2</duration><voice>1</voice><type>quarter</type></note><backup><duration>6</duration></backup><note><pitch><step>F</step><octave>3</octave></pitch><duration>4</duration><voice>2</voice><type>half</type></note><note><pitch><step>B</step><alter>-1</alter><octave>2</octave></pitch><duration>2</duration><voice>2</voice><type>quarter</type></note></measure><measure number="9"><note><pitch><step>B</step><alter>-1</alter><octave>3</octave></pitch><duration>4</duration><voice>1</voice><type>half</type></note><note><pitch><step>F</step><octave>3</octave></pitch><duration>2</duration><voice>1</voice><type>quarter</type></note><backup><duration>6</duration></backup><note><pitch><step>B</step><alter>-1</alter><octave>2</octave></pitch><duration>4</duration><voice>2</voice><type>half</type></note><note><pitch><step>B</step><alter>-1</alter><octave>2</octave></pitch><duration>2</duration><voice>2</voice><type>quarter</type></note></measure><measure number="10"><note><pitch><step>F</step><octave>3</octave></pitch><duration>3</duration><voice>1</voice><type>quarter</type><dot/><notations><slur number="1" type="start"/></notations></note><note><pitch><step>G</step><octave>3</octave></pitch><duration>1</duration><voice>1</voice><type>eighth</type><notations><slur number="1" type="stop"/></notations></note><note><pitch><step>A</step><octave>3</octave></pitch><duration>2</duration><voice>1</voice><type>quarter</type></note><backup><duration>6</duration></backup><note><pitch><step>C</step><octave>3</octave></pitch><duration>4</duration><voice>2</voice><type>half</type></note><note><pitch><step>C</step><octave>3</octave></pitch><duration>2</duration><voice>2</voice><type>quarter</type></note></measure><measure number="11"><note><pitch><step>B</step><alter>-1</alter><octave>3</octave></pitch><duration>4</duration><voice>1</voice><type>half</type></note><note><pitch><step>B</step><alter>-1</alter><octave>3</octave></pitch><duration>2</duration><voice>1</voice><type>quarter</type></note><backup><duration>6</duration></backup><note><pitch><step>D</step><octave>3</octave></pitch><duration>4</duration><voice>2</voice><type>half</type></note><note><pitch><step>B</step><alter>-1</alter><octave>2</octave></pitch><duration>2</duration><voice>2</voice><type>quarter</type></note></measure><measure number="12"><note><pitch><step>B</step><alter>-1</alter><octave>3</octave></pitch><duration>2</duration><voice>1</voice><type>quarter</type><notations><slur number="1" type="start"/></notations></note><note><pitch><step>E</step><alter>-1</alter><octave>4</octave></pitch><duration>2</duration><voice>1</voice><type>quarter</type><notations><slur number="1" type="stop"/></notations></note><note><pitch><step>D</step><alter>-1</alter><octave>4</octave></pitch><duration>2</duration><voice>1</voice><type>quarter</type><accidental>flat</accidental></note><backup><duration>6</duration></backup><note><pitch><step>E</step><alter>-1</alter><octave>3</octave></pitch><duration>4</duration><voice>2</voice><type>half</type></note><note><pitch><step>E</step><octave>3</octave></pitch><duration>2</duration><voice>2</voice><type>quarter</type><accidental>natural</accidental></note></measure><measure number="13"><note><pitch><step>C</step><octave>4</octave></pitch><duration>4</duration><voice>1</voice><type>half</type></note><note><pitch><step>C</step><octave>4</octave></pitch><duration>2</duration><voice>1</voice><type>quarter</type></note><backup><duration>6</duration></backup><note><pitch><step>F</step><octave>3</octave></pitch><duration>4</duration><voice>2</voice><type>half</type></note><note><pitch><step>F</step><alter>1</alter><octave>3</octave></pitch><duration>2</duration><voice>2</voice><type>quarter</type><accidental>sharp</accidental></note></measure><measure number="14"><note><pitch><step>B</step><alter>-1</alter><octave>3</octave></pitch><duration>4</duration><voice>1</voice><type>half</type></note><note><pitch><step>E</step><alter>-1</alter><octave>4</octave></pitch><duration>2</duration><voice>1</voice><type>quarter</type></note><backup><duration>6</duration></backup><note><pitch><step>G</step><octave>3</octave></pitch><duration>4</duration><voice>2</voice><type>half</type></note><note><pitch><step>E</step><alter>-1</alter><octave>3</octave></pitch><duration>2</duration><voice>2</voice><type>quarter</type></note></measure><measure number="15"><note><pitch><step>D</step><octave>4</octave></pitch><duration>2</duration><voice>1</voice><type>quarter</type><notations><slur number="1" type="start"/></notations></note><note><pitch><step>E</step><alter>-1</alter><octave>4</octave></pitch><duration>2</duration><voice>1</voice><type>quarter</type><notations><slur number="1" type="stop"/></notations></note><note><pitch><step>C</step><octave>4</octave></pitch><duration>2</duration><voice>1</voice><type>quarter</type></note><backup><duration>6</duration></backup><note><pitch><step>F</step><octave>3</octave></pitch><duration>4</duration><voice>2</voice><type>half</type></note><note><pitch><step>F</step><octave>3</octave></pitch><duration>2</duration><voice>2</voice><type>quarter</type></note></measure><measure number="16"><note><pitch><step>D</step><octave>4</octave></pitch><duration>6</duration><voice>1</voice><type>half</type><dot/></note><backup><duration>6</duration></backup><note><pitch><step>B</step><alter>-1</alter><octave>2</octave></pitch><duration>6</duration><voice>2</voice><type>half</type><dot/></note><barline location="right"><bar-style>light-heavy</bar-style></barline></measure><measure number="17"><note><pitch><step>E</step><alter>-1</alter><octave>4</octave></pitch><duration>6</duration><voice>1</voice><type>half</type><dot/></note><backup><duration>6</duration></backup><note><pitch><step>E</step><alter>-1</alter><octave>3</octave></pitch><duration>6</duration><voice>2</voice><type>half</type><dot/></note></measure><measure number="18"><note><pitch><step>D</step><octave>4</octave></pitch><duration>6</duration><voice>1</voice><type>half</type><dot/></note><backup><duration>6</duration></backup><note><pitch><step>B</step><alter>-1</alter><octave>2</octave></pitch><duration>6</duration><voice>2</voice><type>half</type><dot/></note><barline location="right"><bar-style>light-heavy</bar-style></barline></measure></part></score-partwise>