<?xml version="1.0" encoding="UTF-8" standalone="no"?>
<score-partwise xmlns:xsi="http://www.w3.org/2001/XMLSchema-instance" xmlns="http://www.musicxml.org/xsd/MusicXML" xsi:schemaLocation="http://www.musicxml.org/xsd/MusicXML https://i.kinwaa.cn/schema/musicxml-4.0/musicxml.xsd" version="4.0"><work><work-title>请主差遣</work-title></work><identification><creator type="composer">H. Ernest Nichol曲(1905)</creator><creator type="lyricist">Daniel March词(1868)&#x000A;赵紫宸译(1931)&#x000A;补充本编译组修(2008)</creator><rights>天乐诗班 2024年10月20日 献</rights></identification><part-list><part-group number="1" type="start"><group-symbol>bracket</group-symbol></part-group><score-part id="P1"><part-name>S&#x000A;A</part-name><part-abbreviation>S&#x000A;A</part-abbreviation><score-instrument id="P1-I1"><instrument-name>Women</instrument-name><instrument-sound>voice.female</instrument-sound></score-instrument><midi-device id="P1-I1" port="1"/><midi-instrument id="P1-I1"><midi-channel>1</midi-channel><midi-program>53</midi-program><volume>78.7402</volume><pan>0</pan></midi-instrument></score-part><score-part id="P2"><part-name>T&#x000A;B</part-name><part-abbreviation>T&#x000A;B</part-abbreviation><score-instrument id="P2-I1"><instrument-name>Men</instrument-name><instrument-sound>voice.male</instrument-sound></score-instrument><midi-device id="P2-I1" port="1"/><midi-instrument id="P2-I1"><midi-channel>3</midi-channel><midi-program>53</midi-program><volume>78.7402</volume><pan>0</pan></midi-instrument></score-part><part-group number="1" type="stop"/></part-list><part id="P1"><measure number="1"><attributes><divisions>2</divisions><key><fifths>-4</fifths></key><time><beats>4</beats><beat-type>4</beat-type></time><clef><sign>G</sign><line>2</line></clef></attributes><note><pitch><step>A</step><alter>-1</alter><octave>4</octave></pitch><duration>3</duration><voice>1</voice><type>quarter</type><dot/></note><note><pitch><step>E</step><alter>-1</alter><octave>4</octave></pitch><duration>1</duration><voice>1</voice><type>eighth</type></note><note><pitch><step>C</step><octave>4</octave></pitch><duration>2</duration><voice>1</voice><type>quarter</type></note><note><pitch><step>E</step><alter>-1</alter><octave>4</octave></pitch><duration>2</duration><voice>1</voice><type>quarter</type></note><backup><duration>8</duration></backup><note><pitch><step>A</step><alter>-1</alter><octave>4</octave></pitch><duration>3</duration><voice>2</voice><type>quarter</type><dot/><lyric number="1"><text>1.听</text></lyric><lyric number="2"><text>2.你</text></lyric><lyric number="3"><text>3.不</text></lyric></note><note><pitch><step>E</step><alter>-1</alter><octave>4</octave></pitch><duration>1</duration><voice>2</voice><type>eighth</type><lyric number="1"><text>啊，</text></lyric><lyric number="2"><text>若</text></lyric><lyric number="3"><text>要</text></lyric></note><note><pitch><step>C</step><octave>4</octave></pitch><duration>2</duration><voice>2</voice><type>quarter</type><lyric number="1"><text>耶</text></lyric><lyric number="2"><text>不</text></lyric><lyric number="3"><text>让</text></lyric></note><note><pitch><step>E</step><alter>-1</alter><octave>4</octave></pitch><duration>2</duration><voice>2</voice><type>quarter</type><lyric number="1"><text>稣</text></lyric><lyric number="2"><text>能</text></lyric><lyric number="3"><text>人</text></lyric></note></measure><measure number="2"><note><pitch><step>A</step><alter>-1</alter><octave>4</octave></pitch><duration>2</duration><voice>1</voice><type>quarter</type></note><note><pitch><step>B</step><alter>-1</alter><octave>4</octave></pitch><duration>2</duration><voice>1</voice><type>quarter</type></note><note><pitch><step>C</step><octave>5</octave></pitch><duration>2</duration><voice>1</voice><type>quarter</type></note><note><pitch><step>D</step><alter>-1</alter><octave>5</octave></pitch><duration>2</duration><voice>1</voice><type>quarter</type></note><backup><duration>8</duration></backup><note><pitch><step>A</step><alter>-1</alter><octave>4</octave></pitch><duration>2</duration><voice>2</voice><type>quarter</type><lyric number="1"><text>正</text></lyric><lyric number="2"><text>出</text></lyric><lyric number="3"><text>听</text></lyric></note><note><pitch><step>G</step><octave>4</octave></pitch><duration>2</duration><voice>2</voice><type>quarter</type><lyric number="1"><text>在</text></lyric><lyric number="2"><text>海</text></lyric><lyric number="3"><text>你</text></lyric></note><note><pitch><step>A</step><alter>-1</alter><octave>4</octave></pitch><duration>2</duration><voice>2</voice><type>quarter</type><lyric number="1"><text>呼</text></lyric><lyric number="2"><text>远</text></lyric><lyric number="3"><text>推</text></lyric></note><note><pitch><step>G</step><octave>4</octave></pitch><duration>2</duration><voice>2</voice><type>quarter</type><lyric number="1"><text>召：“</text></lyric><lyric number="2"><text>航、</text></lyric><lyric number="3"><text>诿：</text></lyric></note></measure><measure number="3"><note><pitch><step>E</step><alter>-1</alter><octave>5</octave></pitch><duration>3</duration><voice>1</voice><type>quarter</type><dot/></note><note><pitch><step>A</step><alter>-1</alter><octave>4</octave></pitch><duration>1</duration><voice>1</voice><type>eighth</type></note><note><pitch><step>B</step><alter>-1</alter><octave>4</octave></pitch><duration>2</duration><voice>1</voice><type>quarter</type></note><note><pitch><step>C</step><octave>5</octave></pitch><duration>2</duration><voice>1</voice><type>quarter</type></note><backup><duration>8</duration></backup><note><pitch><step>A</step><alter>-1</alter><octave>4</octave></pitch><duration>3</duration><voice>2</voice><type>quarter</type><dot/><lyric number="1"><text>今</text></lyric><lyric number="2"><text>翻</text></lyric><lyric number="3"><text>万</text></lyric></note><note><pitch><step>A</step><alter>-1</alter><octave>4</octave></pitch><duration>1</duration><voice>2</voice><type>eighth</type><lyric number="1"><text>日</text></lyric><lyric number="2"><text>山</text></lyric><lyric number="3"><text>事</text></lyric></note><note><pitch><step>G</step><octave>4</octave></pitch><duration>2</duration><voice>2</voice><type>quarter</type><lyric number="1"><text>谁</text></lyric><lyric number="2"><text>越</text></lyric><lyric number="3"><text>我</text></lyric></note><note><pitch><step>A</step><alter>-1</alter><octave>4</octave></pitch><duration>2</duration><voice>2</voice><type>quarter</type><lyric number="1"><text>为</text></lyric><lyric number="2"><text>岭</text></lyric><lyric number="3"><text>都</text></lyric></note></measure><measure number="4"><note><pitch><step>B</step><alter>-1</alter><octave>4</octave></pitch><duration>2</duration><voice>1</voice><type>quarter</type></note><note><pitch><step>A</step><alter>-1</alter><octave>4</octave></pitch><duration>2</duration><voice>1</voice><type>quarter</type></note><note><pitch><step>G</step><octave>4</octave></pitch><duration>4</duration><voice>1</voice><type>half</type></note><backup><duration>8</duration></backup><note><pitch><step>E</step><alter>-1</alter><octave>4</octave></pitch><duration>2</duration><voice>2</voice><type>quarter</type><lyric number="1"><text>我</text></lyric><lyric number="2"><text>去</text></lyric><lyric number="3"><text>不</text></lyric></note><note><pitch><step>D</step><octave>4</octave></pitch><duration>2</duration><voice>2</voice><type>quarter</type><accidental>natural</accidental><lyric number="1"><text>做</text></lyric><lyric number="2"><text>四</text></lyric><lyric number="3"><text>能</text></lyric></note><note><pitch><step>E</step><alter>-1</alter><octave>4</octave></pitch><duration>4</duration><voice>2</voice><type>half</type><lyric number="1"><text>工？</text></lyric><lyric number="2"><text>方，</text></lyric><lyric number="3"><text>做。</text></lyric></note></measure><measure number="5"><note><pitch><step>A</step><alter>-1</alter><octave>4</octave></pitch><duration>3</duration><voice>1</voice><type>quarter</type><dot/></note><note><pitch><step>E</step><alter>-1</alter><octave>4</octave></pitch><duration>1</duration><voice>1</voice><type>eighth</type></note><note><pitch><step>C</step><octave>4</octave></pitch><duration>2</duration><voice>1</voice><type>quarter</type></note><note><pitch><step>E</step><alter>-1</alter><octave>4</octave></pitch><duration>2</duration><voice>1</voice><type>quarter</type></note><backup><duration>8</duration></backup><note><pitch><step>A</step><alter>-1</alter><octave>4</octave></pitch><duration>3</duration><voice>2</voice><type>quarter</type><dot/><lyric number="1"><text>庄</text></lyric><lyric number="2"><text>邻</text></lyric><lyric number="3"><text>灵</text></lyric></note><note><pitch><step>E</step><alter>-1</alter><octave>4</octave></pitch><duration>1</duration><voice>2</voice><type>eighth</type><lyric number="1"><text>稼</text></lyric><lyric number="2"><text>近</text></lyric><lyric number="3"><text>魂</text></lyric></note><note><pitch><step>C</step><octave>4</octave></pitch><duration>2</duration><voice>2</voice><type>quarter</type><lyric number="1"><text>已</text></lyric><lyric number="2"><text>有</text></lyric><lyric number="3"><text>失</text></lyric></note><note><pitch><step>E</step><alter>-1</alter><octave>4</octave></pitch><duration>2</duration><voice>2</voice><type>quarter</type><lyric number="1"><text>熟，</text></lyric><lyric number="2"><text>人</text></lyric><lyric number="3"><text>丧，</text></lyric></note></measure><measure number="6"><note><pitch><step>A</step><alter>-1</alter><octave>4</octave></pitch><duration>2</duration><voice>1</voice><type>quarter</type></note><note><pitch><step>B</step><alter>-1</alter><octave>4</octave></pitch><duration>2</duration><voice>1</voice><type>quarter</type></note><note><pitch><step>C</step><octave>5</octave></pitch><duration>2</duration><voice>1</voice><type>quarter</type></note><note><pitch><step>G</step><octave>4</octave></pitch><duration>2</duration><voice>1</voice><type>quarter</type></note><backup><duration>8</duration></backup><note><pitch><step>A</step><alter>-1</alter><octave>4</octave></pitch><duration>2</duration><voice>2</voice><type>quarter</type><lyric number="1"><text>收</text></lyric><lyric number="2"><text>痛</text></lyric><lyric number="3"><text>主</text></lyric></note><note><pitch><step>F</step><octave>4</octave></pitch><duration>2</duration><voice>2</voice><type>quarter</type><lyric number="1"><text>成</text></lyric><lyric number="2"><text>苦</text></lyric><lyric number="3"><text>在</text></lyric></note><note><pitch><step>E</step><octave>4</octave></pitch><duration>2</duration><voice>2</voice><type>quarter</type><accidental>natural</accidental><lyric number="1"><text>当</text></lyric><lyric number="2"><text>饥</text></lyric><lyric number="3"><text>呼</text></lyric></note><note><pitch><step>G</step><octave>4</octave></pitch><duration>2</duration><voice>2</voice><type>quarter</type><lyric number="1"><text>前，</text></lyric><lyric number="2"><text>寒，</text></lyric><lyric number="3"><text>唤，</text></lyric></note></measure><measure number="7"><note><pitch><step>A</step><alter>-1</alter><octave>4</octave></pitch><duration>3</duration><voice>1</voice><type>quarter</type><dot/></note><note><pitch><step>B</step><alter>-1</alter><octave>4</octave></pitch><duration>1</duration><voice>1</voice><type>eighth</type></note><note><pitch><step>C</step><octave>5</octave></pitch><duration>2</duration><voice>1</voice><type>quarter</type></note><note><pitch><step>B</step><alter>-1</alter><octave>4</octave></pitch><duration>1</duration><voice>1</voice><type>eighth</type><notations><slur number="1" type="start"/></notations></note><note><pitch><step>A</step><alter>-1</alter><octave>4</octave></pitch><duration>1</duration><voice>1</voice><type>eighth</type><notations><slur number="1" type="stop"/></notations></note><backup><duration>8</duration></backup><note><pitch><step>F</step><octave>4</octave></pitch><duration>3</duration><voice>2</voice><type>quarter</type><dot/><lyric number="1"><text>谁</text></lyric><lyric number="2"><text>你</text></lyric><lyric number="3"><text>救</text></lyric></note><note><pitch><step>F</step><octave>4</octave></pitch><duration>1</duration><voice>2</voice><type>eighth</type><lyric number="1"><text>收</text></lyric><lyric number="2"><text>当</text></lyric><lyric number="3"><text>人</text></lyric></note><note><pitch><step>F</step><octave>4</octave></pitch><duration>2</duration><voice>2</voice><type>quarter</type><lyric number="1"><text>禾</text></lyric><lyric number="2"><text>尽</text></lyric><lyric number="3"><text>工</text></lyric></note><note><pitch><step>G</step><octave>4</octave></pitch><duration>1</duration><voice>2</voice><type>eighth</type><notations><slur number="1" type="start"/></notations><lyric number="1"><text>捆</text></lyric><lyric number="2"><text>力</text></lyric><lyric number="3"><text>作</text></lyric></note><note><pitch><step>F</step><octave>4</octave></pitch><duration>1</duration><voice>2</voice><type>eighth</type><notations><slur number="1" type="stop"/></notations></note></measure><measure number="8"><note><pitch><step>G</step><octave>4</octave></pitch><duration>2</duration><voice>1</voice><type>quarter</type></note><note><pitch><step>F</step><octave>4</octave></pitch><duration>2</duration><voice>1</voice><type>quarter</type></note><note><pitch><step>E</step><alter>-1</alter><octave>4</octave></pitch><duration>4</duration><voice>1</voice><type>half</type></note><backup><duration>8</duration></backup><note><pitch><step>E</step><alter>-1</alter><octave>4</octave></pitch><duration>2</duration><voice>2</voice><type>quarter</type><lyric number="1"><text>到</text></lyric><lyric number="2"><text>去</text></lyric><lyric number="3"><text>主</text></lyric></note><note><pitch><step>D</step><octave>4</octave></pitch><duration>2</duration><voice>2</voice><type>quarter</type><accidental>natural</accidental><lyric number="1"><text>仓</text></lyric><lyric number="2"><text>扶</text></lyric><lyric number="3"><text>所</text></lyric></note><note><pitch><step>E</step><alter>-1</alter><octave>4</octave></pitch><duration>4</duration><voice>2</voice><type>half</type><lyric number="1"><text>中？”</text></lyric><lyric number="2"><text>帮；</text></lyric><lyric number="3"><text>托。</text></lyric></note></measure><measure number="9"><note><pitch><step>E</step><alter>-1</alter><octave>4</octave></pitch><duration>2</duration><voice>1</voice><type>quarter</type></note><note><pitch><step>E</step><alter>-1</alter><octave>4</octave></pitch><duration>2</duration><voice>1</voice><type>quarter</type></note><note><pitch><step>A</step><alter>-1</alter><octave>4</octave></pitch><duration>3</duration><voice>1</voice><type>quarter</type><dot/></note><note><pitch><step>G</step><octave>4</octave></pitch><duration>1</duration><voice>1</voice><type>eighth</type></note><backup><duration>8</duration></backup><note><pitch><step>E</step><alter>-1</alter><octave>4</octave></pitch><duration>2</duration><voice>2</voice><type>quarter</type><lyric number="1"><text>耶</text></lyric><lyric number="2"><text>你</text></lyric><lyric number="3"><text>应</text></lyric></note><note><pitch><step>E</step><alter>-1</alter><octave>4</octave></pitch><duration>2</duration><voice>2</voice><type>quarter</type><lyric number="1"><text>稣</text></lyric><lyric number="2"><text>若</text></lyric><lyric number="3"><text>当</text></lyric></note><note><pitch><step>E</step><alter>-1</alter><octave>4</octave></pitch><duration>3</duration><voice>2</voice><type>quarter</type><dot/><lyric number="1"><text>救</text></lyric><lyric number="2"><text>不</text></lyric><lyric number="3"><text>欢</text></lyric></note><note><pitch><step>E</step><alter>-1</alter><octave>4</octave></pitch><duration>1</duration><voice>2</voice><type>eighth</type><lyric number="1"><text>主</text></lyric><lyric number="2"><text>能</text></lyric><lyric number="3"><text>喜</text></lyric></note></measure><measure number="10"><note><pitch><step>F</step><octave>4</octave></pitch><duration>2</duration><voice>1</voice><type>quarter</type></note><note><pitch><step>F</step><octave>4</octave></pitch><duration>2</duration><voice>1</voice><type>quarter</type></note><note><pitch><step>B</step><alter>-1</alter><octave>4</octave></pitch><duration>2</duration><voice>1</voice><type>quarter</type></note><note><pitch><step>A</step><alter>-1</alter><octave>4</octave></pitch><duration>2</duration><voice>1</voice><type>quarter</type></note><backup><duration>8</duration></backup><note><pitch><step>F</step><octave>4</octave></pitch><duration>2</duration><voice>2</voice><type>quarter</type><lyric number="1"><text>恳</text></lyric><lyric number="2"><text>捐</text></lyric><lyric number="3"><text>接</text></lyric></note><note><pitch><step>E</step><alter>-1</alter><octave>4</octave></pitch><duration>2</duration><voice>2</voice><type>quarter</type><lyric number="1"><text>切</text></lyric><lyric number="2"><text>献</text></lyric><lyric number="3"><text>受</text></lyric></note><note><pitch><step>D</step><alter>-1</alter><octave>4</octave></pitch><duration>2</duration><voice>2</voice><type>quarter</type><lyric number="1"><text>呼</text></lyric><lyric number="2"><text>千</text></lyric><lyric number="3"><text>差</text></lyric></note><note><pitch><step>D</step><octave>4</octave></pitch><duration>2</duration><voice>2</voice><type>quarter</type><accidental>natural</accidental><lyric number="1"><text>召，</text></lyric><lyric number="2"><text>万，</text></lyric><lyric number="3"><text>遣，</text></lyric></note></measure><measure number="11"><note><pitch><step>G</step><octave>4</octave></pitch><duration>2</duration><voice>1</voice><type>quarter</type></note><note><pitch><step>G</step><octave>4</octave></pitch><duration>2</duration><voice>1</voice><type>quarter</type></note><note><pitch><step>C</step><octave>5</octave></pitch><duration>3</duration><voice>1</voice><type>quarter</type><dot/></note><note><pitch><step>B</step><alter>-1</alter><octave>4</octave></pitch><duration>1</duration><voice>1</voice><type>eighth</type></note><backup><duration>8</duration></backup><note><pitch><step>E</step><alter>-1</alter><octave>4</octave></pitch><duration>2</duration><voice>2</voice><type>quarter</type><lyric number="1"><text>他</text></lyric><lyric number="2"><text>寡</text></lyric><lyric number="3"><text>圣</text></lyric></note><note><pitch><step>E</step><alter>-1</alter><octave>4</octave></pitch><duration>2</duration><voice>2</voice><type>quarter</type><lyric number="1"><text>许</text></lyric><lyric number="2"><text>妇</text></lyric><lyric number="3"><text>工</text></lyric></note><note><pitch><step>E</step><octave>4</octave></pitch><duration>3</duration><voice>2</voice><type>quarter</type><dot/><accidental>natural</accidental><lyric number="1"><text>赏</text></lyric><lyric number="2"><text>小</text></lyric><lyric number="3"><text>甘</text></lyric></note><note><pitch><step>E</step><octave>4</octave></pitch><duration>1</duration><voice>2</voice><type>eighth</type><lyric number="1"><text>赐</text></lyric><lyric number="2"><text>钱</text></lyric><lyric number="3"><text>心</text></lyric></note></measure><measure number="12"><note><pitch><step>A</step><alter>-1</alter><octave>4</octave></pitch><duration>2</duration><voice>1</voice><type>quarter</type></note><note><pitch><step>D</step><alter>-1</alter><octave>5</octave></pitch><duration>2</duration><voice>1</voice><type>quarter</type></note><note><pitch><step>B</step><alter>-1</alter><octave>4</octave></pitch><duration>4</duration><voice>1</voice><type>half</type></note><backup><duration>8</duration></backup><note><pitch><step>F</step><octave>4</octave></pitch><duration>2</duration><voice>2</voice><type>quarter</type><lyric number="1"><text>极</text></lyric><lyric number="2"><text>当</text></lyric><lyric number="3"><text>乐</text></lyric></note><note><pitch><step>F</step><octave>4</octave></pitch><duration>2</duration><voice>2</voice><type>quarter</type><lyric number="1"><text>丰</text></lyric><lyric number="2"><text>效</text></lyric><lyric number="3"><text>意</text></lyric></note><note><pitch><step>G</step><octave>4</octave></pitch><duration>4</duration><voice>2</voice><type>half</type><lyric number="1"><text>硕，</text></lyric><lyric number="2"><text>仿，</text></lyric><lyric number="3"><text>做，</text></lyric></note></measure><measure number="13"><note><pitch><step>A</step><alter>-1</alter><octave>4</octave></pitch><duration>3</duration><voice>1</voice><type>quarter</type><dot/></note><note><pitch><step>E</step><alter>-1</alter><octave>4</octave></pitch><duration>1</duration><voice>1</voice><type>eighth</type></note><note><pitch><step>C</step><octave>4</octave></pitch><duration>2</duration><voice>1</voice><type>quarter</type></note><note><pitch><step>E</step><alter>-1</alter><octave>4</octave></pitch><duration>2</duration><voice>1</voice><type>quarter</type></note><backup><duration>8</duration></backup><note><pitch><step>A</step><alter>-1</alter><octave>4</octave></pitch><duration>3</duration><voice>2</voice><type>quarter</type><dot/><lyric number="1"><text>谁</text></lyric><lyric number="2"><text>为</text></lyric><lyric number="3"><text>赶</text></lyric></note><note><pitch><step>E</step><alter>-1</alter><octave>4</octave></pitch><duration>1</duration><voice>2</voice><type>eighth</type><lyric number="1"><text>肯</text></lyric><lyric number="2"><text>主</text></lyric><lyric number="3"><text>快</text></lyric></note><note><pitch><step>C</step><octave>4</octave></pitch><duration>2</duration><voice>2</voice><type>quarter</type><lyric number="1"><text>欣</text></lyric><lyric number="2"><text>耶</text></lyric><lyric number="3"><text>回</text></lyric></note><note><pitch><step>E</step><alter>-1</alter><octave>4</octave></pitch><duration>2</duration><voice>2</voice><type>quarter</type><lyric number="1"><text>然</text></lyric><lyric number="2"><text>稣</text></lyric><lyric number="3"><text>应</text></lyric></note></measure><measure number="14"><note><pitch><step>A</step><alter>-1</alter><octave>4</octave></pitch><duration>2</duration><voice>1</voice><type>quarter</type></note><note><pitch><step>B</step><alter>-1</alter><octave>4</octave></pitch><duration>2</duration><voice>1</voice><type>quarter</type></note><note><pitch><step>C</step><octave>5</octave></pitch><duration>2</duration><voice>1</voice><type>quarter</type></note><note><pitch><step>D</step><alter>-1</alter><octave>5</octave></pitch><duration>2</duration><voice>1</voice><type>quarter</type></note><backup><duration>8</duration></backup><note><pitch><step>A</step><alter>-1</alter><octave>4</octave></pitch><duration>2</duration><voice>2</voice><type>quarter</type><lyric number="1"><text>回</text></lyric><lyric number="2"><text>尽</text></lyric><lyric number="3"><text>他</text></lyric></note><note><pitch><step>G</step><octave>4</octave></pitch><duration>2</duration><voice>2</voice><type>quarter</type><lyric number="1"><text>答</text></lyric><lyric number="2"><text>心、</text></lyric><lyric number="3"><text>的</text></lyric></note><note><pitch><step>A</step><alter>-1</alter><octave>4</octave></pitch><duration>2</duration><voice>2</voice><type>quarter</type><lyric number="1"><text>主</text></lyric><lyric number="2"><text>尽</text></lyric><lyric number="3"><text>呼</text></lyric></note><note><pitch><step>G</step><octave>4</octave></pitch><duration>2</duration><voice>2</voice><type>quarter</type><lyric number="1"><text>说：“</text></lyric><lyric number="2"><text>力，</text></lyric><lyric number="3"><text>召：“</text></lyric></note></measure><measure number="15"><note><pitch><step>E</step><alter>-1</alter><octave>5</octave></pitch><duration>3</duration><voice>1</voice><type>quarter</type><dot/></note><note><pitch><step>A</step><alter>-1</alter><octave>4</octave></pitch><duration>1</duration><voice>1</voice><type>eighth</type></note><note><pitch><step>G</step><octave>4</octave></pitch><duration>2</duration><voice>1</voice><type>quarter</type></note><note><pitch><step>F</step><octave>4</octave></pitch><duration>2</duration><voice>1</voice><type>quarter</type></note><backup><duration>8</duration></backup><note><pitch><step>A</step><alter>-1</alter><octave>4</octave></pitch><duration>3</duration><voice>2</voice><type>quarter</type><dot/><lyric number="1"><text>我</text></lyric><lyric number="2"><text>主</text></lyric><lyric number="3"><text>我</text></lyric></note><note><pitch><step>E</step><alter>-1</alter><octave>4</octave></pitch><duration>1</duration><voice>2</voice><type>eighth</type><lyric number="1"><text>在</text></lyric><lyric number="2"><text>必</text></lyric><lyric number="3"><text>在</text></lyric></note><note><pitch><step>E</step><alter>-1</alter><octave>4</octave></pitch><duration>2</duration><voice>2</voice><type>quarter</type><lyric number="1"><text>这</text></lyric><lyric number="2"><text>悦</text></lyric><lyric number="3"><text>这</text></lyric></note><note><pitch><step>D</step><alter>-1</alter><octave>4</octave></pitch><duration>2</duration><voice>2</voice><type>quarter</type><lyric number="1"><text>里</text></lyric><lyric number="2"><text>纳</text></lyric><lyric number="3"><text>里，</text></lyric></note></measure><measure number="16"><note><pitch><step>E</step><alter>-1</alter><octave>4</octave></pitch><duration>2</duration><voice>1</voice><type>quarter</type></note><note><pitch><step>B</step><alter>-1</alter><octave>4</octave></pitch><duration>2</duration><voice>1</voice><type>quarter</type></note><note><pitch><step>A</step><alter>-1</alter><octave>4</octave></pitch><duration>4</duration><voice>1</voice><type>half</type></note><backup><duration>8</duration></backup><note><pitch><step>C</step><octave>4</octave></pitch><duration>2</duration><voice>2</voice><type>quarter</type><lyric number="1"><text>请</text></lyric><lyric number="2"><text>并</text></lyric><lyric number="3"><text>请</text></lyric></note><note><pitch><step>D</step><alter>-1</alter><octave>4</octave></pitch><duration>2</duration><voice>2</voice><type>quarter</type><lyric number="1"><text>差</text></lyric><lyric number="2"><text>奖</text></lyric><lyric number="3"><text>差</text></lyric></note><note><pitch><step>C</step><octave>4</octave></pitch><duration>4</duration><voice>2</voice><type>half</type><lyric number="1"><text>我？”</text></lyric><lyric number="2"><text>赏。</text></lyric><lyric number="3"><text>我！”</text></lyric></note><barline location="right"><bar-style>light-heavy</bar-style></barline></measure></part><part id="P2"><measure number="1"><attributes><divisions>2</divisions><key><fifths>-4</fifths></key><time><beats>4</beats><beat-type>4</beat-type></time><clef><sign>F</sign><line>4</line></clef></attributes><note><pitch><step>A</step><alter>-1</alter><octave>3</octave></pitch><duration>3</duration><voice>1</voice><type>quarter</type><dot/></note><note><pitch><step>E</step><alter>-1</alter><octave>3</octave></pitch><duration>1</duration><voice>1</voice><type>eighth</type></note><note><pitch><step>C</step><octave>3</octave></pitch><duration>2</duration><voice>1</voice><type>quarter</type></note><note><pitch><step>E</step><alter>-1</alter><octave>3</octave></pitch><duration>2</duration><voice>1</voice><type>quarter</type></note><backup><duration>8</duration></backup><note><pitch><step>A</step><alter>-1</alter><octave>3</octave></pitch><duration>3</duration><voice>2</voice><type>quarter</type><dot/></note><note><pitch><step>E</step><alter>-1</alter><octave>3</octave></pitch><duration>1</duration><voice>2</voice><type>eighth</type></note><note><pitch><step>C</step><octave>3</octave></pitch><duration>2</duration><voice>2</voice><type>quarter</type></note><note><pitch><step>E</step><alter>-1</alter><octave>3</octave></pitch><duration>2</duration><voice>2</voice><type>quarter</type></note></measure><measure number="2"><note><pitch><step>A</step><alter>-1</alter><octave>3</octave></pitch><duration>2</duration><voice>1</voice><type>quarter</type></note><note><pitch><step>E</step><alter>-1</alter><octave>4</octave></pitch><duration>2</duration><voice>1</voice><type>quarter</type></note><note><pitch><step>E</step><alter>-1</alter><octave>4</octave></pitch><duration>2</duration><voice>1</voice><type>quarter</type></note><note><pitch><step>E</step><alter>-1</alter><octave>4</octave></pitch><duration>2</duration><voice>1</voice><type>quarter</type></note><backup><duration>8</duration></backup><note><pitch><step>A</step><alter>-1</alter><octave>3</octave></pitch><duration>2</duration><voice>2</voice><type>quarter</type></note><note><pitch><step>E</step><alter>-1</alter><octave>3</octave></pitch><duration>2</duration><voice>2</voice><type>quarter</type></note><note><pitch><step>A</step><alter>-1</alter><octave>3</octave></pitch><duration>2</duration><voice>2</voice><type>quarter</type></note><note><pitch><step>B</step><alter>-1</alter><octave>3</octave></pitch><duration>2</duration><voice>2</voice><type>quarter</type></note></measure><measure number="3"><note><pitch><step>E</step><alter>-1</alter><octave>4</octave></pitch><duration>3</duration><voice>1</voice><type>quarter</type><dot/></note><note><pitch><step>E</step><alter>-1</alter><octave>4</octave></pitch><duration>1</duration><voice>1</voice><type>eighth</type></note><note><pitch><step>E</step><alter>-1</alter><octave>4</octave></pitch><duration>2</duration><voice>1</voice><type>quarter</type></note><note><pitch><step>E</step><alter>-1</alter><octave>4</octave></pitch><duration>2</duration><voice>1</voice><type>quarter</type></note><backup><duration>8</duration></backup><note><pitch><step>C</step><octave>4</octave></pitch><duration>3</duration><voice>2</voice><type>quarter</type><dot/></note><note><pitch><step>C</step><octave>4</octave></pitch><duration>1</duration><voice>2</voice><type>eighth</type></note><note><pitch><step>B</step><alter>-1</alter><octave>3</octave></pitch><duration>2</duration><voice>2</voice><type>quarter</type></note><note><pitch><step>A</step><alter>-1</alter><octave>3</octave></pitch><duration>2</duration><voice>2</voice><type>quarter</type></note></measure><measure number="4"><note><pitch><step>B</step><alter>-1</alter><octave>3</octave></pitch><duration>2</duration><voice>1</voice><type>quarter</type></note><note><pitch><step>B</step><alter>-1</alter><octave>3</octave></pitch><duration>2</duration><voice>1</voice><type>quarter</type></note><note><pitch><step>B</step><alter>-1</alter><octave>3</octave></pitch><duration>4</duration><voice>1</voice><type>half</type></note><backup><duration>8</duration></backup><note><pitch><step>G</step><octave>3</octave></pitch><duration>2</duration><voice>2</voice><type>quarter</type></note><note><pitch><step>F</step><octave>3</octave></pitch><duration>2</duration><voice>2</voice><type>quarter</type></note><note><pitch><step>E</step><alter>-1</alter><octave>3</octave></pitch><duration>4</duration><voice>2</voice><type>half</type></note></measure><measure number="5"><note><pitch><step>A</step><alter>-1</alter><octave>3</octave></pitch><duration>3</duration><voice>1</voice><type>quarter</type><dot/></note><note><pitch><step>E</step><alter>-1</alter><octave>3</octave></pitch><duration>1</duration><voice>1</voice><type>eighth</type></note><note><pitch><step>C</step><octave>3</octave></pitch><duration>2</duration><voice>1</voice><type>quarter</type></note><note><pitch><step>E</step><alter>-1</alter><octave>3</octave></pitch><duration>2</duration><voice>1</voice><type>quarter</type></note><backup><duration>8</duration></backup><note><pitch><step>A</step><alter>-1</alter><octave>3</octave></pitch><duration>3</duration><voice>2</voice><type>quarter</type><dot/></note><note><pitch><step>E</step><alter>-1</alter><octave>3</octave></pitch><duration>1</duration><voice>2</voice><type>eighth</type></note><note><pitch><step>C</step><octave>3</octave></pitch><duration>2</duration><voice>2</voice><type>quarter</type></note><note><pitch><step>E</step><alter>-1</alter><octave>3</octave></pitch><duration>2</duration><voice>2</voice><type>quarter</type></note></measure><measure number="6"><note><pitch><step>A</step><alter>-1</alter><octave>3</octave></pitch><duration>2</duration><voice>1</voice><type>quarter</type></note><note><pitch><step>F</step><octave>3</octave></pitch><duration>2</duration><voice>1</voice><type>quarter</type></note><note><pitch><step>G</step><octave>3</octave></pitch><duration>2</duration><voice>1</voice><type>quarter</type></note><note><pitch><step>C</step><octave>4</octave></pitch><duration>2</duration><voice>1</voice><type>quarter</type></note><backup><duration>8</duration></backup><note><pitch><step>A</step><alter>-1</alter><octave>3</octave></pitch><duration>2</duration><voice>2</voice><type>quarter</type></note><note><pitch><step>D</step><alter>-1</alter><octave>3</octave></pitch><duration>2</duration><voice>2</voice><type>quarter</type></note><note><pitch><step>C</step><octave>3</octave></pitch><duration>2</duration><voice>2</voice><type>quarter</type></note><note><pitch><step>E</step><octave>3</octave></pitch><duration>2</duration><voice>2</voice><type>quarter</type><accidental>natural</accidental></note></measure><measure number="7"><note><pitch><step>C</step><octave>4</octave></pitch><duration>3</duration><voice>1</voice><type>quarter</type><dot/></note><note><pitch><step>C</step><octave>4</octave></pitch><duration>1</duration><voice>1</voice><type>eighth</type></note><note><pitch><step>C</step><octave>4</octave></pitch><duration>2</duration><voice>1</voice><type>quarter</type></note><note><pitch><step>C</step><octave>4</octave></pitch><duration>2</duration><voice>1</voice><type>quarter</type></note><backup><duration>8</duration></backup><note><pitch><step>F</step><octave>3</octave></pitch><duration>3</duration><voice>2</voice><type>quarter</type><dot/></note><note><pitch><step>G</step><octave>3</octave></pitch><duration>1</duration><voice>2</voice><type>eighth</type></note><note><pitch><step>A</step><alter>-1</alter><octave>3</octave></pitch><duration>2</duration><voice>2</voice><type>quarter</type></note><note><pitch><step>A</step><alter>-1</alter><octave>2</octave></pitch><duration>2</duration><voice>2</voice><type>quarter</type></note></measure><measure number="8"><note><pitch><step>B</step><alter>-1</alter><octave>3</octave></pitch><duration>2</duration><voice>1</voice><type>quarter</type></note><note><pitch><step>A</step><alter>-1</alter><octave>3</octave></pitch><duration>2</duration><voice>1</voice><type>quarter</type></note><note><pitch><step>G</step><octave>3</octave></pitch><duration>4</duration><voice>1</voice><type>half</type></note><backup><duration>8</duration></backup><note><pitch><step>B</step><alter>-1</alter><octave>2</octave></pitch><duration>2</duration><voice>2</voice><type>quarter</type></note><note><pitch><step>B</step><alter>-1</alter><octave>2</octave></pitch><duration>2</duration><voice>2</voice><type>quarter</type></note><note><pitch><step>E</step><alter>-1</alter><octave>3</octave></pitch><duration>4</duration><voice>2</voice><type>half</type></note></measure><measure number="9"><note><pitch><step>G</step><octave>3</octave></pitch><duration>2</duration><voice>1</voice><type>quarter</type></note><note><pitch><step>G</step><octave>3</octave></pitch><duration>2</duration><voice>1</voice><type>quarter</type></note><note><pitch><step>A</step><alter>-1</alter><octave>3</octave></pitch><duration>3</duration><voice>1</voice><type>quarter</type><dot/></note><note><pitch><step>A</step><alter>-1</alter><octave>3</octave></pitch><duration>1</duration><voice>1</voice><type>eighth</type></note><backup><duration>8</duration></backup><note><pitch><step>E</step><alter>-1</alter><octave>3</octave></pitch><duration>2</duration><voice>2</voice><type>quarter</type></note><note><pitch><step>D</step><alter>-1</alter><octave>3</octave></pitch><duration>2</duration><voice>2</voice><type>quarter</type></note><note><pitch><step>C</step><octave>3</octave></pitch><duration>3</duration><voice>2</voice><type>quarter</type><dot/></note><note><pitch><step>C</step><octave>3</octave></pitch><duration>1</duration><voice>2</voice><type>eighth</type></note></measure><measure number="10"><note><pitch><step>A</step><alter>-1</alter><octave>3</octave></pitch><duration>2</duration><voice>1</voice><type>quarter</type></note><note><pitch><step>A</step><octave>3</octave></pitch><duration>2</duration><voice>1</voice><type>quarter</type><accidental>natural</accidental></note><note><pitch><step>B</step><alter>-1</alter><octave>3</octave></pitch><duration>2</duration><voice>1</voice><type>quarter</type></note><note><pitch><step>B</step><alter>-1</alter><octave>3</octave></pitch><duration>2</duration><voice>1</voice><type>quarter</type></note><backup><duration>8</duration></backup><note><pitch><step>D</step><alter>-1</alter><octave>3</octave></pitch><duration>2</duration><voice>2</voice><type>quarter</type></note><note><pitch><step>C</step><octave>3</octave></pitch><duration>2</duration><voice>2</voice><type>quarter</type></note><note><pitch><step>B</step><alter>-1</alter><octave>2</octave></pitch><duration>2</duration><voice>2</voice><type>quarter</type></note><note><pitch><step>B</step><alter>-1</alter><octave>2</octave></pitch><duration>2</duration><voice>2</voice><type>quarter</type></note></measure><measure number="11"><note><pitch><step>B</step><alter>-1</alter><octave>3</octave></pitch><duration>2</duration><voice>1</voice><type>quarter</type></note><note><pitch><step>B</step><alter>-1</alter><octave>3</octave></pitch><duration>2</duration><voice>1</voice><type>quarter</type></note><note><pitch><step>C</step><octave>4</octave></pitch><duration>3</duration><voice>1</voice><type>quarter</type><dot/></note><note><pitch><step>C</step><octave>4</octave></pitch><duration>1</duration><voice>1</voice><type>eighth</type></note><backup><duration>8</duration></backup><note><pitch><step>E</step><alter>-1</alter><octave>3</octave></pitch><duration>2</duration><voice>2</voice><type>quarter</type></note><note><pitch><step>D</step><alter>-1</alter><octave>3</octave></pitch><duration>2</duration><voice>2</voice><type>quarter</type></note><note><pitch><step>C</step><octave>3</octave></pitch><duration>3</duration><voice>2</voice><type>quarter</type><dot/></note><note><pitch><step>C</step><octave>3</octave></pitch><duration>1</duration><voice>2</voice><type>eighth</type></note></measure><measure number="12"><note><pitch><step>C</step><octave>4</octave></pitch><duration>2</duration><voice>1</voice><type>quarter</type></note><note><pitch><step>D</step><alter>-1</alter><octave>4</octave></pitch><duration>2</duration><voice>1</voice><type>quarter</type></note><note><pitch><step>E</step><alter>-1</alter><octave>4</octave></pitch><duration>4</duration><voice>1</voice><type>half</type></note><backup><duration>8</duration></backup><note><pitch><step>F</step><octave>3</octave></pitch><duration>2</duration><voice>2</voice><type>quarter</type></note><note><pitch><step>B</step><alter>-1</alter><octave>2</octave></pitch><duration>2</duration><voice>2</voice><type>quarter</type></note><note><pitch><step>E</step><alter>-1</alter><octave>3</octave></pitch><duration>4</duration><voice>2</voice><type>half</type></note></measure><measure number="13"><note><pitch><step>A</step><alter>-1</alter><octave>3</octave></pitch><duration>3</duration><voice>1</voice><type>quarter</type><dot/></note><note><pitch><step>E</step><alter>-1</alter><octave>3</octave></pitch><duration>1</duration><voice>1</voice><type>eighth</type></note><note><pitch><step>C</step><octave>3</octave></pitch><duration>2</duration><voice>1</voice><type>quarter</type></note><note><pitch><step>E</step><alter>-1</alter><octave>3</octave></pitch><duration>2</duration><voice>1</voice><type>quarter</type></note><backup><duration>8</duration></backup><note><pitch><step>A</step><alter>-1</alter><octave>3</octave></pitch><duration>3</duration><voice>2</voice><type>quarter</type><dot/></note><note><pitch><step>E</step><alter>-1</alter><octave>3</octave></pitch><duration>1</duration><voice>2</voice><type>eighth</type></note><note><pitch><step>C</step><octave>3</octave></pitch><duration>2</duration><voice>2</voice><type>quarter</type></note><note><pitch><step>E</step><alter>-1</alter><octave>3</octave></pitch><duration>2</duration><voice>2</voice><type>quarter</type></note></measure><measure number="14"><note><pitch><step>A</step><alter>-1</alter><octave>3</octave></pitch><duration>2</duration><voice>1</voice><type>quarter</type></note><note><pitch><step>E</step><alter>-1</alter><octave>4</octave></pitch><duration>2</duration><voice>1</voice><type>quarter</type></note><note><pitch><step>E</step><alter>-1</alter><octave>4</octave></pitch><duration>2</duration><voice>1</voice><type>quarter</type></note><note><pitch><step>E</step><alter>-1</alter><octave>4</octave></pitch><duration>2</duration><voice>1</voice><type>quarter</type></note><backup><duration>8</duration></backup><note><pitch><step>A</step><alter>-1</alter><octave>3</octave></pitch><duration>2</duration><voice>2</voice><type>quarter</type></note><note><pitch><step>E</step><alter>-1</alter><octave>3</octave></pitch><duration>2</duration><voice>2</voice><type>quarter</type></note><note><pitch><step>A</step><alter>-1</alter><octave>3</octave></pitch><duration>2</duration><voice>2</voice><type>quarter</type></note><note><pitch><step>B</step><alter>-1</alter><octave>3</octave></pitch><duration>2</duration><voice>2</voice><type>quarter</type></note></measure><measure number="15"><note><pitch><step>E</step><alter>-1</alter><octave>4</octave></pitch><duration>3</duration><voice>1</voice><type>quarter</type><dot/></note><note><pitch><step>E</step><alter>-1</alter><octave>4</octave></pitch><duration>1</duration><voice>1</voice><type>eighth</type></note><note><pitch><step>A</step><alter>-1</alter><octave>3</octave></pitch><duration>2</duration><voice>1</voice><type>quarter</type></note><note><pitch><step>A</step><alter>-1</alter><octave>3</octave></pitch><duration>2</duration><voice>1</voice><type>quarter</type></note><backup><duration>8</duration></backup><note><pitch><step>C</step><octave>4</octave></pitch><duration>3</duration><voice>2</voice><type>quarter</type><dot/></note><note><pitch><step>C</step><octave>3</octave></pitch><duration>1</duration><voice>2</voice><type>eighth</type></note><note><pitch><step>D</step><alter>-1</alter><octave>3</octave></pitch><duration>2</duration><voice>2</voice><type>quarter</type></note><note><pitch><step>B</step><alter>-1</alter><octave>2</octave></pitch><duration>2</duration><voice>2</voice><type>quarter</type></note></measure><measure number="16"><note><pitch><step>A</step><alter>-1</alter><octave>3</octave></pitch><duration>2</duration><voice>1</voice><type>quarter</type></note><note><pitch><step>G</step><octave>3</octave></pitch><duration>2</duration><voice>1</voice><type>quarter</type></note><note><pitch><step>A</step><alter>-1</alter><octave>3</octave></pitch><duration>4</duration><voice>1</voice><type>half</type></note><backup><duration>8</duration></backup><note><pitch><step>E</step><alter>-1</alter><octave>3</octave></pitch><duration>2</duration><voice>2</voice><type>quarter</type></note><note><pitch><step>E</step><alter>-1</alter><octave>3</octave></pitch><duration>2</duration><voice>2</voice><type>quarter</type></note><note><pitch><step>A</step><alter>-1</alter><octave>2</octave></pitch><duration>4</duration><voice>2</voice><type>half</type></note><barline location="right"><bar-style>light-heavy</bar-style></barline></measure></part></score-partwise>